<mxfile host="Electron" modified="2023-07-02T09:20:54.321Z" agent="Mozilla/5.0 (X11; Linux x86_64) AppleWebKit/537.36 (KHTML, like Gecko) draw.io/21.5.1 Chrome/112.0.5615.204 Electron/24.6.0 Safari/537.36" etag="R2hmdIGjaTxFMpY45FPJ" version="21.5.1" type="device" pages="2">
  <diagram name="HA configuration" id="Na8425xBiCrPurX4iJq9">
    <mxGraphModel dx="865" dy="625" grid="1" gridSize="10" guides="1" tooltips="1" connect="1" arrows="1" fold="1" page="1" pageScale="1" pageWidth="1169" pageHeight="827" math="0" shadow="0">
      <root>
        <mxCell id="0" />
        <mxCell id="1" parent="0" />
        <mxCell id="RUeICIOoqXqwJl9Cc2NJ-32" style="rounded=0;orthogonalLoop=1;jettySize=auto;html=1;exitX=1;exitY=0.5;exitDx=0;exitDy=0;" edge="1" parent="1" source="RUeICIOoqXqwJl9Cc2NJ-25">
          <mxGeometry relative="1" as="geometry">
            <mxPoint x="650" y="480" as="sourcePoint" />
            <mxPoint x="767.5" y="506.24329896907216" as="targetPoint" />
          </mxGeometry>
        </mxCell>
        <mxCell id="RUeICIOoqXqwJl9Cc2NJ-33" style="rounded=0;orthogonalLoop=1;jettySize=auto;html=1;entryX=0.002;entryY=0.411;entryDx=0;entryDy=0;entryPerimeter=0;exitX=1;exitY=0.5;exitDx=0;exitDy=0;" edge="1" parent="1" source="RUeICIOoqXqwJl9Cc2NJ-25" target="RUeICIOoqXqwJl9Cc2NJ-12">
          <mxGeometry relative="1" as="geometry" />
        </mxCell>
        <mxCell id="RUeICIOoqXqwJl9Cc2NJ-34" style="rounded=0;orthogonalLoop=1;jettySize=auto;html=1;exitX=1;exitY=0.5;exitDx=0;exitDy=0;entryX=0;entryY=0.5;entryDx=0;entryDy=0;" edge="1" parent="1" source="RUeICIOoqXqwJl9Cc2NJ-25">
          <mxGeometry relative="1" as="geometry">
            <mxPoint x="767.5" y="646.8" as="targetPoint" />
          </mxGeometry>
        </mxCell>
        <mxCell id="RUeICIOoqXqwJl9Cc2NJ-25" value="&lt;b&gt;HAProxy&lt;/b&gt;" style="rounded=1;whiteSpace=wrap;html=1;verticalAlign=top;" vertex="1" parent="1">
          <mxGeometry x="480" y="435" width="120" height="140" as="geometry" />
        </mxCell>
        <mxCell id="RUeICIOoqXqwJl9Cc2NJ-2" value="Kubernetes API &lt;br&gt;Load Balancer" style="sketch=0;aspect=fixed;pointerEvents=1;shadow=0;dashed=0;html=1;strokeColor=none;labelPosition=center;verticalLabelPosition=bottom;verticalAlign=top;align=center;fillColor=#00188D;shape=mxgraph.azure.load_balancer_generic" vertex="1" parent="1">
          <mxGeometry x="521.5" y="470" width="37" height="50" as="geometry" />
        </mxCell>
        <mxCell id="RUeICIOoqXqwJl9Cc2NJ-45" style="rounded=0;orthogonalLoop=1;jettySize=auto;html=1;entryX=0;entryY=0.5;entryDx=0;entryDy=0;exitX=1;exitY=0.5;exitDx=0;exitDy=0;" edge="1" parent="1" target="RUeICIOoqXqwJl9Cc2NJ-25">
          <mxGeometry relative="1" as="geometry">
            <mxPoint x="356" y="366" as="sourcePoint" />
          </mxGeometry>
        </mxCell>
        <mxCell id="RUeICIOoqXqwJl9Cc2NJ-46" style="edgeStyle=orthogonalEdgeStyle;rounded=0;orthogonalLoop=1;jettySize=auto;html=1;exitX=1;exitY=0.5;exitDx=0;exitDy=0;entryX=0;entryY=0.5;entryDx=0;entryDy=0;" edge="1" parent="1" target="RUeICIOoqXqwJl9Cc2NJ-25">
          <mxGeometry relative="1" as="geometry">
            <mxPoint x="356" y="504.20000000000005" as="sourcePoint" />
          </mxGeometry>
        </mxCell>
        <mxCell id="RUeICIOoqXqwJl9Cc2NJ-47" style="rounded=0;orthogonalLoop=1;jettySize=auto;html=1;exitX=1;exitY=0.5;exitDx=0;exitDy=0;entryX=0;entryY=0.5;entryDx=0;entryDy=0;" edge="1" parent="1" target="RUeICIOoqXqwJl9Cc2NJ-25">
          <mxGeometry relative="1" as="geometry">
            <mxPoint x="356" y="658.4000000000001" as="sourcePoint" />
          </mxGeometry>
        </mxCell>
        <mxCell id="RUeICIOoqXqwJl9Cc2NJ-48" value="gateway" style="text;html=1;strokeColor=none;fillColor=none;align=center;verticalAlign=middle;whiteSpace=wrap;rounded=0;fontSize=16;" vertex="1" parent="1">
          <mxGeometry x="510" y="390" width="60" height="30" as="geometry" />
        </mxCell>
        <mxCell id="RUeICIOoqXqwJl9Cc2NJ-49" value="master node" style="text;html=1;strokeColor=none;fillColor=none;align=center;verticalAlign=middle;whiteSpace=wrap;rounded=0;fontSize=16;" vertex="1" parent="1">
          <mxGeometry x="960" y="340" width="60" height="30" as="geometry" />
        </mxCell>
        <mxCell id="RUeICIOoqXqwJl9Cc2NJ-50" value="master node" style="text;html=1;strokeColor=none;fillColor=none;align=center;verticalAlign=middle;whiteSpace=wrap;rounded=0;fontSize=16;" vertex="1" parent="1">
          <mxGeometry x="960" y="482.6" width="60" height="30" as="geometry" />
        </mxCell>
        <mxCell id="RUeICIOoqXqwJl9Cc2NJ-51" value="mater&lt;br&gt;node" style="text;html=1;strokeColor=none;fillColor=none;align=center;verticalAlign=middle;whiteSpace=wrap;rounded=0;fontSize=16;" vertex="1" parent="1">
          <mxGeometry x="960" y="622.6" width="60" height="30" as="geometry" />
        </mxCell>
        <mxCell id="RUeICIOoqXqwJl9Cc2NJ-54" value="worker node" style="text;html=1;strokeColor=none;fillColor=none;align=center;verticalAlign=middle;whiteSpace=wrap;rounded=0;fontSize=16;" vertex="1" parent="1">
          <mxGeometry x="110" y="341.8" width="60" height="30" as="geometry" />
        </mxCell>
        <mxCell id="RUeICIOoqXqwJl9Cc2NJ-57" value="worker node" style="text;html=1;strokeColor=none;fillColor=none;align=center;verticalAlign=middle;whiteSpace=wrap;rounded=0;fontSize=16;" vertex="1" parent="1">
          <mxGeometry x="110" y="480.40000000000003" width="60" height="30" as="geometry" />
        </mxCell>
        <mxCell id="RUeICIOoqXqwJl9Cc2NJ-58" value="worker node" style="text;html=1;strokeColor=none;fillColor=none;align=center;verticalAlign=middle;whiteSpace=wrap;rounded=0;fontSize=16;" vertex="1" parent="1">
          <mxGeometry x="110" y="632" width="60" height="30" as="geometry" />
        </mxCell>
        <mxCell id="fW_T0wwTCFqb56F42fH_-2" style="edgeStyle=orthogonalEdgeStyle;rounded=0;orthogonalLoop=1;jettySize=auto;html=1;entryX=0.5;entryY=1;entryDx=0;entryDy=0;" edge="1" parent="1" source="fW_T0wwTCFqb56F42fH_-1" target="RUeICIOoqXqwJl9Cc2NJ-25">
          <mxGeometry relative="1" as="geometry" />
        </mxCell>
        <mxCell id="fW_T0wwTCFqb56F42fH_-1" value="K3S User" style="shape=actor;whiteSpace=wrap;html=1;labelPosition=center;verticalLabelPosition=bottom;align=center;verticalAlign=top;" vertex="1" parent="1">
          <mxGeometry x="519" y="688" width="40" height="60" as="geometry" />
        </mxCell>
        <mxCell id="fW_T0wwTCFqb56F42fH_-3" value="kubectl commands" style="text;html=1;strokeColor=none;fillColor=none;align=center;verticalAlign=middle;whiteSpace=wrap;rounded=0;fontSize=16;fontStyle=2" vertex="1" parent="1">
          <mxGeometry x="530" y="622.6" width="120" height="30" as="geometry" />
        </mxCell>
        <mxCell id="PHb3LdSxm_V6ggQVDF2g-9" value="" style="group" vertex="1" connectable="0" parent="1">
          <mxGeometry x="189" y="294.40000000000003" width="165.2" height="119.19999999999999" as="geometry" />
        </mxCell>
        <mxCell id="PHb3LdSxm_V6ggQVDF2g-1" value="k3s agent" style="rounded=1;whiteSpace=wrap;html=1;verticalAlign=top;labelPosition=center;verticalLabelPosition=middle;align=center;fontStyle=1" vertex="1" parent="PHb3LdSxm_V6ggQVDF2g-9">
          <mxGeometry x="15.199999999999989" y="19.19999999999999" width="150" height="100" as="geometry" />
        </mxCell>
        <mxCell id="PHb3LdSxm_V6ggQVDF2g-2" value="" style="image;sketch=0;aspect=fixed;html=1;points=[];align=center;fontSize=12;image=img/lib/mscae/Kubernetes.svg;direction=south;" vertex="1" parent="PHb3LdSxm_V6ggQVDF2g-9">
          <mxGeometry width="38.4" height="40" as="geometry" />
        </mxCell>
        <mxCell id="PHb3LdSxm_V6ggQVDF2g-3" value="kubelet/kubeproxy" style="sketch=0;html=1;dashed=0;whitespace=wrap;fillColor=#2875E2;strokeColor=#ffffff;points=[[0.005,0.63,0],[0.1,0.2,0],[0.9,0.2,0],[0.5,0,0],[0.995,0.63,0],[0.72,0.99,0],[0.5,1,0],[0.28,0.99,0]];verticalLabelPosition=bottom;align=center;verticalAlign=top;shape=mxgraph.kubernetes.icon;prIcon=node" vertex="1" parent="PHb3LdSxm_V6ggQVDF2g-9">
          <mxGeometry x="65.19999999999999" y="45.19999999999999" width="50" height="48" as="geometry" />
        </mxCell>
        <mxCell id="PHb3LdSxm_V6ggQVDF2g-4" value="" style="shape=image;verticalLabelPosition=bottom;labelBackgroundColor=default;verticalAlign=top;aspect=fixed;imageAspect=0;image=data:image/png,iVBORw0KGgoAAAANSUhEUgAAAysAAAKYCAYAAABzfmczAAAACXBIWXMAAC4jAAAuIwF4pT92AAAgAElEQVR4nO3dTXIbV5Y24ERFzT/2HBFFrcDUFBOTKzC1AosrsLgCSSugtALSKxC9AtITTEmvQKwIzJvfCtBx6QMZovgDEAngZN7niVC4uqPKBjJpEG+enztoWMh0PNxrmmanaZr9+O//FP93E3/dcyUBAAiXcxfipmma/879/28Ho8m1C/U8YeWe6Xi4G8Gj/Pm5aZrd+AMAAG0qIaaElr/ir9eD0eTGFf5H9WElKib7EUz2BBMAALboJqovf5a/1h5eqgwr0/HwsGmaXyKkCCcAAGRVwsp5CS+D0eS8trtUTViZjodvI6AcJng5AACwrNsILn/UElx6HVam42GpnPwaAWVngf8JAAB0wSy4fO7zsH7vwsp0PNyJcPJeixcAABUoYeVzCS+D0eS2T2+3N2Eltnj91jTNW1UUAAAqdBuh5VNfQkvnw0qElPcRUgAAgKY5a5rmY9e3iXU2rAgpAADwrE6Hls6FlZhJORFSAABgYR+72B7WqbAyHQ8/xFyKmRQAAFhOCSrHg9HkrCvXrRNhJVYQn9ruBQAAK7uO0HKZ/VKmDitavgAAYG0+xTxL2tawtGFlOh4eRjVFyxcAAKxHGbw/ylplSRdWVFMAAGDjUlZZUoWV6Xi41zTNF7MpAACwcddRZbnOcun/leA13JmOh++aprkSVAAAYCtK4eBiOh6m6XDaemVF2xcAAKRzNhhNjrb9orYaVuIU+i+R4gAAgDxKO9jBNudYthZWYj7lwrYvAABIq2wLe7OtOZatzKxEH5ygAgAAue3GHMv+Nl7lxisrEVRON/3PBQAAVlI2hZ1t8hJutLISG78EFQAA6J7TTW8K21hlZToentr4BQAAnbexCstGwoqgAgAAvbKRwLL2NrDpePhBUAEAgF7ZSEvYWisrhukBAKDX1lphWVtYEVQAAKAK5RyW83W80bWEldjDfLGOvzcAAJDKbZx03/rBka2HFSfTAwBAdUpgeTUYTW7bfOOtDthPx8MSUL4IKgAAUJWdOOm+1RzQ9jawL3EkPwAAUJfSYXXS5jtuLazEiuL9tv5+AABA57ydjofv2nrRrcysTMfDw6iqAAAAvG5j4H7lsBJ9aV/NqQAAAOEmAstKA/dttIEZqAcAAObttnHm4kphJfrRzKkAAAD3Hca4yIu9uA1sOh6WtHSlqgIAADxipfNXVqmsnAoqAADAE3ZWaQd7UVjR/gUAACzoxe1gS7eB2f4FAAAs6UXbwV5SWTkRVAAAgCWUefelD4tcqrIyHQ/3YqgeAABgWWXY/mbR/82ylZUTtwMAAHihpfLEwpWV6XhYBuov3BUAAGAFB4PR5HKR//kylZWVT6AEAACq937RC7BQWJmOh29jKAYAAGAV+9G19axFKysLpx8AAIA28sWzYSUOcFFVAQAA2rJQdWWRyspvbgkAANCyZ3PGk9vAbAADAADW6MlzV56rrPzqzgAAAGvyZHXl0crKdDzcaZrmf90VAABgTW6junL70N/+qcrKW3cEAABYo1IgOXzsb/9UWDFYDwAArNujoycPtoFNx8O9pmmu3BYAAGADHhy0f6yyYrAeAADYlAdHUB4LK+ZVAACATXmwWPJDWImzVXbcFgAAYEN2YxTlOw9VVn5xRwAAgA3bv/+PeyisPLo6DAAAYE1+aAX7bhuYLWAAAMAW/c/8AZH3Kys/lF4AAAA25Lsur/th5Wd3AQAA2JLv8ojKCgAAkMV3eeRbWIl5FSuLAQCAbSkrjHdn/+z5yoqqCgAAsG3fzluZDys/uS0AAMCWPRhWfjgxEgAAYMO+DdkLKwAAQCbfV1ZiuB4AAGDbdqbj4U4zV1nZdUsAAIAk7oops7CisgIAAGTxXVj5j9sCAAAkoQ0MAABI6W4jmLACAACkJKwAAADZfDezAgAAkMXfMyvOWAEAADL61yy1AAAAZDEdD3f/7W4AsILLJ/6nu2YiAViBsALAQkoouW6a5q+maW4Go8lTIeU70/FwJwYly5+fmqbZF2IAWISwAsBDbpqmOW+a5s/BaHK+yhUajCa3EXa+BZxS2o/Q8kvTNIfuAAAPGUzHw/LL4sLVAaBpmrOmaX5fpnKyqqi8lMDy22xVJQA0TXMgrABQKh+fm6b5FFWQrYnfSb+ptgBQwoo2MIB6pQkpM1HRuYw2sdNoFQOgUsIKQJ1Ku9dxlpBy32A0KTMzB1FpOTWQD1AnJ9gD1OUuBAxGk6OsQWVeqbQMRpNXTdN8zPOqANgUYQWgHqWa8nqTw/NtGYwmH8prj/XJAFRCWAHov1JBOepKNeUxg9GkBJWDCF0AVMDMCkC/3UbbVy8qEhG2jqbjYTmc8iTBSwJgjVRWAPqrBJRXfQkq8wajyacSWvK8IgDWQVgB6KfrqKh0tu3rOYPR5ExgAeg3YQWgf3ofVGYEFoB+E1YA+qWaoDIjsAD0l7AC0B+zrV/VBJWZCCzHOV4NAG0RVgD6400fh+kXFUP31hoD9IiwAtAPH7t42OMaHDs4EqA/hBWA7ruME96rNzuHpfbrANAXwgpAt/lyfk+0wn1M9aIAeBFhBaDbPg9Gkxv38HtRadIOBtBxwgpAd91o/3qS7WAAHSesAHSX9q8nxMKB87QvEIBnCSsA3XRp+9dCVFcAOkxYAegmA+QLiHkeZ68AdJSwAtA916oqS/ncodcKwBxhBaB7fPleQqwyFu4AOkhYAeiWW0PjL/J7B18zQPWEFYBuOY9T2lmOgAfQQcIKQLf84X4tLwKewALQMcIKQHfcDkYTX7hfTtAD6BhhBaA7DImvRtAD6BhhBaA7/nSvXi5awa67+voBaiSsAHSHL9qrU50C6BBhBaAjHATZir968B4AqiGsAHSDqko7bvrwJgBqIawAdIMv2S1QnQLoFmEFoBu0LwFQHWEFgNqorgB0hLAC0A1mVgCojrAC0A237hMAtRFWAACAlIQVAAAgJWEFAABISVgBAABSElYAAICUhBUAACAlYQUAAEhJWAEAAFISVgAAgJSEFQAAICVhBQAASElYAQAAUhJWAACAlIQVAAAgJWEFAABISVgBAABSElYAAICUhBUAACAlYQUAAEhJWAEAAFISVgAAgJSEFQAAICVhBQAASElYAQAAUhJWAACAlIQVAAAgJWEFAABISVgBAABSElYAAICUhBUAACAlYQUAAEhJWAEAAFISVgAAgJSEFYAOGIwml+4TALURVgAAgJSEFQAAICVhBQAASElYAQAAUhJWAACAlIQVAAAgJWEFAABISVgBAABSElYAAICUhBUAACAlYQUAAEhJWAEAAFISVgAAgJSEFQAAICVhBQAASElYAQAAUhJWAACAlIQVAAAgJWEFgNrsueMA3SCsAFCbHXccoBuEFQAAICVhBQAASElYAQAAUhJWAACAlIQVAAAgJWEFAABISVgBAABSElYAAICUhBUAACAlYQUAAEhJWAEAAFISVgAAgJSEFQAAICVhBQAASElYAQAAUhJWAACAlIQVAAAgJWEFAABISVgBAABSElYAAICUhBUAACAlYQUAAEhJWAEAAFISVgAAgJSEFQAAICVhBQAASElYAQAAUhJWAACAlIQVAAAgJWEFAABISVgBAABSElYAAICUhBUAACAlYQUAAEhJWAEAAFISVgAAgJSEFYD8btwjAGokrADkJ6wAUCVhBQAASElYAQAAUhJWAACAlIQVAAAgJWEFAABISVgBAABSElYAAICUhBUAACAlYQUAAEhJWAEAAFISVgAAgJSEFQAAICVhBQAASElYAQAAUhJWAACAlIQVAAAgJWEFAABISVgBoBrT8XDH3QboDmEFgJrsudsA3SGsAAAAKQkrAABASsIKAACQkrACAACkJKwAAAApCSsAAEBKwgoAAJCSsAIAAKQkrAAAACkJKwAAQErCCgAAkJKwAgAApCSsAAAAKQkrAABASsIKAACQkrACAACkJKwAAAApCSsAAEBKwgoAAJCSsAIAAKQkrAAAACkJKwAAQErCCgAAkJKwAgAApCSsAAAAKQkrAABASsIKAACQkrACAACkJKwAAAApCSsAAEBKwgoAAJCSsAIAAKQkrAAAACkJKwAAQErCCgAAkJKwAgAApCSsAAAAKQkrAPn96R4BUCNhBQAASElYAQAAUhJWAACAlIQVAAAgJWEFAABISVgBAABSElYAAICUhBUAACAlYQUAAEhJWAEAAFISVgAAgJSEFQAAICVhBQAASElYAQAAUhJWAACAlIQVAAAgJWEFAABISVgBAABSElYAqMmeuw3QHcIKADXZcbcBukNYAQAAUhJWAACAlIQVAAAgJWEFAABISVgBAABSElYAAICUhBUAACAlYQUAAEhJWAEAAFISVgAAgJSEFQAAICVhBQAASElYAQAAUhJWAACAlIQVAAAgJWEFIL+f3aPW/Kcn7wOgCsIKADXZdbcBukNYAchvzz1qjbAC0CHCCkB+O9PxcMd9aoWwAtAhwgpAN6iurGg6Hu53+g0AVEhYAegGX7RXJ/ABdIywAtANP7lPK3MNATpGWAHoBpWV1bmGAB0jrAB0Qxmy18b0QnHtDNcDdIywAtAdv7pXL+baAXSQsALQHYfu1Yu5dgAdJKwAdMeu9bvL0wIG0F3CCkC3aGda3m9de8EA/E1YAeiWt9PxUJVgQXHy/9tOvFgAfiCsAHSPSsHi3nXlhQLwI2EFoHveRsWAJ8Q1EuwAOkxYAeie8iX8xH171ru4VgB0lLAC0E1vHRL5uJjreZ/19QGwGGEFoLtUVx53mvWFAbA4YQWgu/an46EB8num42E5ANJ5NAA9IKwAdNt7q4z/EddCVQWgJ4QVgG4rA+Rf3MNvTg3VA/SHsALQfXvT8bD6asJ0PDzR/gXQL8IKQD+U7WDVntQe7938DkDPCCsA/XFaY2CZjof75lQA+klYAeiXk5rOX4n3amYHoKeEFYB+KcPlF1Ft6LUIKhcG6gH6S1gB6J9ZYOltS1i8N0EFoOeEFYD+Ou3joZERVKwoBqjAv91kgF4rMyw/NU1zPBhNbrv8RqfjYQknZT1xtVvPAGqjsgLQf+XL/VWXB+/n5lMEFYCKCCsAddiNwPKha+82XvNVOfwywcsBYIOEFYC6vJ+Oh1+7sC2svMbyWstrTvByANgCYQWgPruxLSzliuMIKRfR9rWb4CUBsCXCCkC99udCy+G2r8K9kNL7c2IAeJ5tYACUYFCCwk3TNL83TXM2GE1uNnFVpuNhqZyUoPSbKgoA9w2iBeDClQFgznXTNH80TXM+GE2u27wwsdmr/O751dA8AE84EFYAeM5thJc/m6a5iT/Xz53bEuei7EXFpPz5Of5vhzkCsIgDbWAAPGdn1io2/9+bjoez/3gdgaaJ/65qCQCtEFYAWJVwAsBa2AYGAACkJKwAAAApCSsAAEBKwgoAAJCSsAIAAKQkrAAAACkJKwAAQErCCgAAkJKwAgAApCSsAAAAKQkrAABASsIKAACQkrACAACkJKwAAAApCSsAAEBKwgoAAJCSsAIAAKQkrAAAACkJKwAAQErCCgAAkJKwAgAApCSsAAAAKQkrAABASsIKAACQkrACAACkJKwAAAApCSsAAEBKwgoAAJCSsAIAAKQkrAAAACkJKwAAQErCCgAAkJKwAgAApCSsAAAAKQkrAABASsIKAACQkrACAACkJKwAAAApCSsAAEBKwgoAAJCSsAIAAKQkrAAAACkJKwAAQErCCgAAkJKwAgAApCSsAAAAKQkrAABASsIKAACQkrACAACkJKwAAAApCSsAAEBKwgoAAJCSsAIAAKQkrAAAACkJKwAAQErCCgAAkJKwAgAApCSsAAAAKf3bbQEqczn3dv+c+8//aZpmN/7z7tx/BgC2RFgB+uo2gkkJJNflz2A0uV3mvU7Hw70ILeWvPzdNs++nhZaUn8mbpmn+iv9cfjZvB6PJ9f2/ffwc7sSfvQjWe/EHoNcG0/Gw/PK9cJuBHihf9H4vIeWhL31tmI6Hh03T/NI0zWF8eYRFlGByHuH5ctng/Jj4Hf5LBGnhBeibA2EF6Lrype+shJR1BZTHRHD5NYIL3HcT4flsMJrcbODnsVQB38bPpDZGoA+EFaCzype/j+VpdVtPqV8qviS+jy+KUNoPPw9Gk/Mt/kzux8+k1kWgy4QVoHNKMDkejCZn2V640FK9Ek4+brrC9xQ/k0DHCStAp5RKyqdtV1KeE18QTz3VrsZlhJTLrG9YpQXoKGEF6ITyJfBoE33/bYqZllOD+L11GyHlU1fe4HQ8fBuhxUwL0AUHDoUEMru5e6oymhx0LagUMbPw+t7ZLvRDuaevuxRUmr9/Js/iZ/JjhC2A1FRWgIw698T6OdPx8EM80ab7jvvwsxntiie22QGJqawA6ZQnv6/6FFSav59ol7By5Gl2p91Gpa8XP5ulWjkYTd6U9xRnFAGkI6wAWczaao6yD9C/VLTgHAgsnXQdQaV3LX3lPQ1Gk9fCNJCRsAJs200Mzx9kWvm6LvEeBZZumQWVXv98Rph+FfMsACkIK8A2fYxqSrozU9ZJYOmUWVCp4l6V9xkti68shgAyEFaAbTiPuZQPtXwJvG8usJBXVUFlXsyzHMTPaOc28QH9IawAmzT78vemi6uI2xaB5ahf76o3bqM9serqV8yzlCrLsUogsA3CCrAJt7Hu9XUfB5RXES1wvdp81hNvapihWlRsQHvlZxXYNGEFWLdPfVxF3KbBaHJsPiCVY6H6RzHPcuygU2CThBVgXWariI9rb6VZkLWxOVwK1k8rFaeYZ3ljngVYN2EFaNtNtNBUsYq4LTHDY2Xsdt3GF3AWMBhNzmOe5aOgDayLsAK0pXxZ+Vi+vJQvMa7q8uKJvvaa7VEFfIFYdVxaw6paQQ5shrACtOEsWr4+uJorO+746++qy9rO+2lTrDo+ilXHAjfQGmEFWMVsFfGRVcTtiNY5X5o3TwteC2LV8UHMYPlMAFYmrAAvMTuDwiri9fDFebPO/By3K6pUr/0sA6sSVoBlzVYRe/q/JlGlcn03xxfqNYhVxx/ifBZzbMCLCCvAoi4jpBhC3gxfoDfjXAvjesU8y5uYZ7EhEFiKsAI85ybmUg58qducuNaeRq/f576/wSxinuW1M4WAZQgrwGPmVxHr59+O32t80xt042d786KF9FW0lAI8SVgBHnIWLV9WEW9RnFfjCfT6qKpsScyzHEdoERiBRwkrwLzLuVXEviTnoBVsfVzbLYt5loOYZ9FmCvxAWAGa+JJwFHMpnnLm8kftF2BNrs1g5RHzLK/iUFQPSoBvhBXgY5w+b1VuTsLjegiBCQ1Gk0/RGubzCLgjrEC9zmdzKVq+8op7I7C0zzVNKuZZjuJQSfcJKiesQH1mq4jfaIPpDGdTtEy7Y36D0eQ65lnemGeBegkrUI/yhP7YKuJO+rP2C9AyP/8dElvxXkfLqiowVEZYgTrMVhE716CbPFVul0pVx0Rr2IcILeZZoCLCCvTbZQzPW0XcYaUdpvZr0LL/36t3U5FYdXwUq45VyKACwgr0U3kS/yZWEfui2w+qK+3xJbfjYtVxCSxHWsOg34QV6JfbuVXEDrzrF2EF7omV66/icw/oIWEF+uM8QopVxPAECyb6ZW6e5VV8DgI9IqxA911bRQzULuZZ3sQ8i/ZX6AlhBbprtor4tSfFVRBEYQExz1K2hh2bZ4HuE1agmz5ZRVwdX7pgCfH5+Co+L4GOElagWy4jpBybS6nOXu0XAJYV8yzHEVpUoKGDhBXohvlVxNqBAJYQ8ywHMc/iMxQ6RFiB3O5WEQ9Gk1dWEQOsJuZZZquOVaehA4QVyOtstorYPaJpml0XoR3T8XC/D++Dl5tbdXzmMkJuwgrkcxmriI+0fDFHWIEWxTxLOQH/tXkWyEtYgTxKS8JRzKX4xck30/FQUGmXZQV8MxhNrmOe5cg8C+QjrEAOH2PLl5YEHiKstOs/fXoztCM+f1+bZ4FchBXYrtkq4g9WEfMEMxbtUlnhQdEa9iFCi4dHkICwAttxE3MpVhGziJ9dpVYJfzwpVh0fxarja1cLtkdYgc2aX0VsLoVFqQS0bDoeuqY8K1Ydv455FtVv2AJhBTbnbNby5ZqzqFizu+OCtU51hYXFPMvsfBZgg4QVWL/LOC/lyFwKL/CLi7YWritLmZtnKaHFIb2wIcIKrM/N3CpiPc+81KErtxb70/FQxYqlxTzLm5hnMXMIayaswHp8jGqKbTK8WMxVWFu8PoIgLxbzLKXKcmyeBdZHWIF2nVtFTIt+czHXyvVlZYPR5FO0hn1yNaF9wgq04zpWEb+xipg2RIuSJ//rtWcrGG2IeZbjOJ/FpkdokbACqynVk+Oy2tIqYlr2zhawjVBdoTVlPrHMKTZN88Y8C7RDWIGX+xQtX0r/tCqqKr5Eb8bb6XhoLohWDUaT85hn+WieBVYjrMDyZquIj82lsCaqKpv1vqY3y+bMrTq2bAVeaBAHjl24gPCsm2j5sl+ftYmqyldhZeNemTdjneL71nsHksJSDlRW4Hm3c6uIBRXW7b2gshUnFb5nNihWHZd5liPzLLA4YQWedhYhxSpi1i6evL5zpbfiMK4/rFWcv/XaPAssRliBh81WER9pDWGDPN3frlOn2rMJser4Q4QWFXt4grAC3ytPuY6sImbTpuNhCSrO/NiuXcP2bFJ5GFbO5yoPx+IhGXCPsAL/mK0itrWFjZqOh4fav9J4F/cDNibmWV7HPIvWMJgjrMDfq4hfWUXMNsQJ6qcufiqnTrZnG+Jh2ex8FqheI6xQuTKL8qZsZzGXwjbEfMQX27/S2TG/wrbMzbO8iodpUDVhhRrdrSIupwtbRcy2xBfhi5iTIJ9SWbkQWNiWmGc5iHkWD9SolrBCbc6i5euDO8+2zAUVrUa5CSxsXcyzlCrLsXkWaiSsUIvLuVXEPuzZGkGlcwQWUhiMJp+iNcwSGKoirNB3s1XEB1YRs20xtC2odI/AQgoxz3IU57P4nUYVhBX67KNVxGQRp6MLKt01CyzuH1s3GE2uY57ljXkW+k5YoY/OZ3MpWr7IYDoefoig4sl8t80Ci3NYSKEsiYl5lo/mWeirwdzTPui6m2j5Uhonhel4uBtnqOy7I73zKbYK+oJICvF5875pmrfuCD1yoLJCH5QvC8exilhQIYWoplwJKr31rtzfeOAHWxerjo9i1bHfhfSGygpddxZBxdNNUojP1FPnp1TlLKosZgdIYzoevo1Ki88iuuxAWKGrLiOkXLuDZKDlq3rlgcnn0h7m4QlZxAa7dxFaoIuEFTrnJp5g2vBFCvFl4H18IYCbeJByXv2VII14mHLSNI3lEHSNmRU64za2nbwWVMgi2iy+CirMKV8Kv0zHQ2uOSSPmWd7EPIuOBDpFZYUuOI8nlfrBSSE+N0+cmcICzNWRTjxoObFOnQ5QWSG167texdHkjaBCBqWVYjoenjrckSXcVd9iOxykEB0Kr2IFN6SmskJGtzGX4kOUFOaGVH/zJJIVOAuKdCwHITmVFdL5FKfPCyqkEKeVX8UQvaDCKnbjBPyL+IIIWxfzLAcxz6KLgXRUVsjiMp44+qAkhRiOPvG0kTVyCj7pRMuiKjJZqKywdSWclJmUA0GFDErL13Q8PHH6PBvwLuZZ3rrYZDEYTT7EPIvNm6QgrLAts7mUV84jIIvpePjOKmI2rDy9Pp2Oh1fR6QBbV6p9g9HkqBwXEJ0PsDXawNiGswgqKimkYBUxiVjVTjoxu3cSc1ewSU6wZ6Ou45ewpzSk4FRnEiuH4H4yz0IWtiKyJcIKG3EbIUX/KynM/dJ9746Q2E1UoX12kkY85HkfZwjBuhmwZ+0+xipiv2xJIYaZrwQVOmA35lkuzLOQRaw6PopVxzolWDuVFdbFKmJSsYqYHjDvRzrxAOhEaxhrorJC627u+gutIiaJWEV8ahUxPXBXFYxzMCCF6Jx4FZ0U0DqVFdpS5lI+x352SCFWETt5nj66iVlAq99Jw9IS1sCAPa04i1+attaQQnyunVqzSQUu4/P32s0mC+vgaZGwwkqsIiaVeKp3qt2LCnloRDqq27TAzAovVoY8XwsqZBBzKR/i9HlBhRqVeZav8eUQUhiMJp/iFHyVP15MWGFZtzFAbzaFFGITzVeriOHu6fXJdDz8atUxWcSq49cG8HkpYYVlXMeZKaopbF35MlbOn4i2Ly0G8I/SDnkR57OY2yKFeMj5Jh56wsKEFRZ1Fm1fPmTYqvLlK1YRX2j5giftR2vYh9Iq6VKxbbG97kBgYRnCCos4i9NqYatiLuUq+vOBxbyP0OLfG7YuNteZY2FhwgrPEVTYuul4eFj68G2VgRcr/96cTsfDK/MsbFscGn0gsLAIYYWnCCpsVbR8lXavL85MgVbsxTzLF/MsbFO0lWsJ41nCCo85F1TYllhFfGIVMaxNOWH8yjwL2ySwsAhhhYeUsqygwlbMrSJ2XgSs1060Vl6ZZ2FbYobFdw4eJaxwX3m6cWTrF5sWq4ivrCKGjduNeZYL8yxsQ2wJcw4LDxJWuO8onnLARsRcypdYRbznqsPW7Mc8y6nWMDYtzmFxjhs/EFaYdx5PN2DtYi5ltor40BWHNN7OzmdxS9iwI/Mr3CesMHOrZ5RNKauII6RYRQw53c2zlJXh8e8rrF2sNNYOxneEFWaOzamwbtPxcM8qYuiU8u/pl5hn8e8sazcYTT45f4V5wgrF9WA0OXMlWJdo+TqNaooBXuie/WgNOzHPwgYcu8jMCCs0PhRYp+l4+C5WEVuNCt33LkKL1eKszWA0uTRsz4ywwmV8KECrYhVxCSkn5lKgV8q/zycxz6JSyrqYXeGOsMLn6q8Arbq3iliPO/TXbqw6/mKehbaprjAjrNTtxqpi2jK3ivirVcRQlcPZqmPzLLTMA1WElcr5EKAV0/Hw7dwqYqBO7yO0mE+jFfFA9eQWZDEAAAyGSURBVMbVrJuwUjdVFVYScyml3etUyxcQ8yzlBPwr8yy05HcXsm7CSr3O4/AlWNrcKuILq4iBB+zFPMupeRZW5GiFygkr9fqz9gvAy8zNpWj1AJ5z1yJqnoWXigerDomsmLBSLy1gLGVuFfF7q4iBJezE58aVeRZeyFawigkrdbrRAsaiYhXxhVXEwIp2Y56ltIftuZgs4Q8Xq17CSp08oeBZMZdyEi1f5lKAtuxHleVUaxiLcHh13YSVOplX4UnRqlFCyjtXCliTt7PzWVxgFmBupVLCSp20gPGgmEu5ilXEnngC63Y3z1Lm4aw65hnCSqWElQopp3JfzKXMVhHrJQc2bTdWHV9Ydcwj/uvC1ElYqc9t7ReA70ULxpVVxEAC+9EadmKehXs8aK2UsFIfZVTuTMfDQ6uIgaTeRWgxNweVE1agMmVlaKwi/mIVMZBYeYhSKixX5lnwsLVewkp9tIFVam4V8ZVVxECH7MU8yxfzLPUajCa+v1RKWKnPX7VfgBpFK4VVxECXHc5WHZtngXoIK9Bjc6uIT8ylAD3xPkKLpSBQAWEFeihWEX+xihjoqfLw5TRWHWtrhR4TVurz/2q/AH0WcymzVcSHtV8PoPf2Y57l1DwL9JOwUh9P2XsqWiKurCIGKnT3+WeeBfpHWIGOm1tFfGoVMVCxnXhYU0KLynLPaPerl7BSH19meyJavk6tIgb4Tvk99yXmWXQTQMcJK/URVnpgbhWxbTgAD9uPKsup1rBeEDwrJaxUyJOm7opVxF+tIgZY2NtYdeycqW77T+0XoFbCSp1UVzomVhFfxCpi9w9gOeXhzkl52GP2obM8aK2UsFKnn2u/AF0xt4r4q7kUgJXtxqrjC6uOO8fvwEoJK3XyL3wHxCrir7HdBoD27Edr2Il5lvy0r9dNWKnTng/nvGIuZbaK2H0CWJ93EVosK8nNQ9aKCSv18i9+MnOriC/cH4CNKQ+FysawK/Msaf1S+wWombBSL//iJzI3l+LpHsB27MU8yxfzLHlEJ4gQWTFhpV5O902gnLIcq4jfa/kCSOEwWsM+aJlOwfeVygkr9drRo7s9c6uIv1hFDJDS+zhU0u/K7fqt5jePsFK7X2u/AJsWcyknVhEDdMJuzLNcmGfZvNgCZhNY5YSVuu1bB7g5c6uInaIM0C37Mc9yqjVso1RVEFbwQbBusYr4yipigM57O5tncSvXK5YcaMFDWKF5a+vJesRcypdYRayCBdAP5aHT+7IcpSxJcU/XxoHI3BFWKE5chfbEXEp56nZliwlAb5UHfV9insUDqRapqjBPWKE4NDjYjnjKdmUVMUA19mNr2Il5ltZ4iMo3wgozPhhWUJ6qWUUMULV3Mc9iicoK4uGprgS+EVaY2TMwuLy5VcRXVhEDVK9UVk5insXvhCVFZeq0Uy+atRNWmPde3+3i4umZVcQA3Lcbq44vLLFZynvdCdwnrHCfHfLPiFXEX6N1zrUC4DH7s1XHfrc+LWY+PfzjB8IK9+0pwT7s3ipiT34AWNT7CC02XD0gujp89+BBwgoPOTS/8o+5VcRfDf0B8EI70b1wZZ7lH3NzKipPPEhY4THvPQG6+xB9O7eKGABWtRfzLF9qn2eJoOLgZJ4krPCU01oDy9wq4lMtXwCswWGcz1LzPMupoMJzhBWeU1VgiZavU6uIAdiAnajcX1X6u1ZrNc8SVlhEFYFlbi6l+vY3ADZqN37XXvT9CIG51i+/a1mIsMKiTuPww96ZW0X83oAfAFu0H1WWXh4jEDM6ZlRYirDCMt7FQGAvPkBjFfGFVcQAJPN2dj5LX25MnKNyJaiwLGGFZc0GAjs7z3FvFbG5FAAy2onNnF/ji35nRWfGF90LvISwwkvsxtrFk65VWWL25qtVxAB0RPmd+yXmWTrVBRBt1ldOpmcVwgqreNeVDSZzH5gOngKgi/ajNSz9g8K5bV/mU1jZINp5LlxKVnTZNM3HwWhymelCxlOoE+sRAeiR26ZpPjdN82kwmtxmeVsRosqDzN88GKQlB8IKbSth5ffBaHK2zSsbP9e/CSkA9NgstJwNRpObbb3NeDD4WywGEFJok7DC2pQPzfPyIbqpD9B4olM+KH9VdgagMuUh4R+D0eR8U287Bv9/9WCQNRJW2IjrqLj80XabWByeVX6Gf7HZCwDuqi0lsPxRfve22SYWFZTyu/bnCCiqKKybsMJWXEaA+SsqMNeLfJjGz+pOVE1+ig9MH5QA8Ljr+PPf+P17OxhNrp+7XvEwcCd+1/4Uv3udScamCSukcx1PhWZUSwBgPW7j9+6M37lkc/Bvt4RkzJoAwGbsCChk55wVAAAgJWEFAABISVgBAAAyuhVWAACAdMrmun+1fe4FAABAG1RWAACAbO6OspiFldZONwUAAFjR3RlAs7Dy7EmmAAAAm6SyAgAAZPNnMxdW/nJ7AACATGZh5cZdAQAAkrjbWCysAAAA2dzlk8HsRU3Hw6lbBAAAbNtgNLnLKfPnrKiuAAAA2/bt0Pr5sGJ9MQAAsG3fcsl8WPnTbQEAALbs26ZilRUAACCTb21gg/kXZcgeAADYopvBaPJq9o//173XcenOAAAAW/JdHrkfVv5wVwAAgC35bo5eZQUAAMjiuzwyuP+ipuPh/zZNs+N2AQAAG3Q9GE1ez//j7ldWinN3BAAA2LAfurweCivmVgAAgE37/f4/74c2sEYrGAAAsFnfrSyeeaiy0mgFAwAANujB/PFYWNEKBgAAbMoPLWDNY21gzd+tYF+bptl1ewAAgDX6YQvYzGOVleaxdAMAANCiR3PHU2HlzB0AAADW7NHc8WhYGYwmNwbtAQCANTobjCa3j/3tn6qsFJ/dGQAAYE2ezBuPDtjPGLQHAADW4HIwmhw89bd9rrJSfHRnAACAlj2bM56trDSqKwAAQLseXVc8b5HKSqO6AgAAtGih2fiFKiuN6goAANCOhaoqzRKVlUZ1BQAAaMHxon+LhSsrzd/VlaumafbcIQAA4AWe3QA2b5nKSrNMCgIAAFglTywVVgajyaVT7QEAgBcop9VfL/M/W7ay0kQaevRIfAAAgHtuX9KltXRYGYwmN4uuGgMAACjLugajydIFj6UG7OcZtgcAABaw1FD9vJe0gc0cuTMAAMATblfJDS8OKzEc4+wVAADgMR9jjORFXtwGNqMdDAAAeMCL279mVmkDmzmyHQwAAJizUvvXzMphJdrBHBYJAADMHK3S/jXTRmWlBJazcshLG38vAACg0z4NRpNWDpJvJayEUl1Z6kRKAACgV8qcSmtdV62FlTjk5Y35FQAAqNJN5IHWtFlZmZ1uv9LEPwAA0Dl3hYuXnFL/lFbDSvPPwL0DIwEAoB5HkQNa1XpYaf4ZuLchDAAA+u+orYH6+9YSVpq/A8snG8IAAKDXjqNQsRYrn2D/nOl4eNo0zVs/owAA0Ctng9FkreMfaw8rjcACAAB9s/ag0mwqrDQCCwAA9MVGgkqzybDSCCwAANB1GwsqzToH7B8Sb8zQPQAAdM/xJoNKs+nKysx0PCzVldNt/LMBAIClHa1z69djthJWmn8Cy0nTNDvbeg0AAMCTZifTX27jMm0trDR/B5a9pmkuBBYAAEjnJoJK6yfTL2qrYaX5O7DsRGDZ2/ZrAQAA7lxGULnd5uXYeliZmY6HpSXsXY5XAwAA1fo4GE0+ZHjzacJK83dgOYzBe21hAACwWVudT3nIRlcXP2cwmpw3TfM6yk4AAMBmlO/hrzIFlSZbZWXedDwsLWHvVVkAAGBtbqPt61PGS5w2rDR/B5bdaAvbT/ByAACgTy7j/JSbrO8pdViZcSYLAAC05jZCynn2S5pqZuUxcVrmq6ZpUpanAACgIz7GbEr6oNJ0pbIyT2sYAAAsrYST48wtXw/pXFiZmY6H+zGAL7QAAMDDLmOAvpPbdjsbVmaEFgAA+EGnQ8pM58PKTISW35qmOczxigAAYOPKrPfnwWhy3YdL35uwMhMzLSW0vLU9DACACpTtXp9LUOnaTMpzehdW5sXK41+1iAEA0ENlaP6P2JzbS70OKzNRbTmM4LKX41UBAMDSSnvX7yWo9K2K8pAqwsq8ueDyi4oLAAAdUCoof9YSUOZVF1bmTcfDnQgsP8dfVV0AANi2y6ig/NmVwxvXpeqw8pDYKlb+/NQ0za4AAwDAGl3Hn7/KX7u+arhtwsoCpuPhXmwWm7WN/Rx/3RFmAAB4wnVs62qilauJysltX9YLr5OwsgYxF7PbuzcGAMBjSlXk1tVpUdM0/wepnMc0zFEZrgAAAABJRU5ErkJggg==;container=0;" vertex="1" parent="PHb3LdSxm_V6ggQVDF2g-9">
          <mxGeometry x="121" y="20.560000000000002" width="30.1" height="24.64" as="geometry" />
        </mxCell>
        <mxCell id="PHb3LdSxm_V6ggQVDF2g-10" value="" style="group" vertex="1" connectable="0" parent="1">
          <mxGeometry x="190" y="430" width="165.2" height="119.19999999999999" as="geometry" />
        </mxCell>
        <mxCell id="PHb3LdSxm_V6ggQVDF2g-11" value="k3s agent" style="rounded=1;whiteSpace=wrap;html=1;verticalAlign=top;labelPosition=center;verticalLabelPosition=middle;align=center;fontStyle=1" vertex="1" parent="PHb3LdSxm_V6ggQVDF2g-10">
          <mxGeometry x="15.199999999999989" y="19.19999999999999" width="150" height="100" as="geometry" />
        </mxCell>
        <mxCell id="PHb3LdSxm_V6ggQVDF2g-12" value="" style="image;sketch=0;aspect=fixed;html=1;points=[];align=center;fontSize=12;image=img/lib/mscae/Kubernetes.svg;direction=south;" vertex="1" parent="PHb3LdSxm_V6ggQVDF2g-10">
          <mxGeometry width="38.4" height="40" as="geometry" />
        </mxCell>
        <mxCell id="PHb3LdSxm_V6ggQVDF2g-13" value="kubelet/kubeproxy" style="sketch=0;html=1;dashed=0;whitespace=wrap;fillColor=#2875E2;strokeColor=#ffffff;points=[[0.005,0.63,0],[0.1,0.2,0],[0.9,0.2,0],[0.5,0,0],[0.995,0.63,0],[0.72,0.99,0],[0.5,1,0],[0.28,0.99,0]];verticalLabelPosition=bottom;align=center;verticalAlign=top;shape=mxgraph.kubernetes.icon;prIcon=node" vertex="1" parent="PHb3LdSxm_V6ggQVDF2g-10">
          <mxGeometry x="65.19999999999999" y="45.19999999999999" width="50" height="48" as="geometry" />
        </mxCell>
        <mxCell id="PHb3LdSxm_V6ggQVDF2g-14" value="" style="shape=image;verticalLabelPosition=bottom;labelBackgroundColor=default;verticalAlign=top;aspect=fixed;imageAspect=0;image=data:image/png,iVBORw0KGgoAAAANSUhEUgAAAysAAAKYCAYAAABzfmczAAAACXBIWXMAAC4jAAAuIwF4pT92AAAgAElEQVR4nO3dTXIbV5Y24ERFzT/2HBFFrcDUFBOTKzC1AosrsLgCSSugtALSKxC9AtITTEmvQKwIzJvfCtBx6QMZovgDEAngZN7niVC4uqPKBjJpEG+enztoWMh0PNxrmmanaZr9+O//FP93E3/dcyUBAAiXcxfipmma/879/28Ho8m1C/U8YeWe6Xi4G8Gj/Pm5aZrd+AMAAG0qIaaElr/ir9eD0eTGFf5H9WElKib7EUz2BBMAALboJqovf5a/1h5eqgwr0/HwsGmaXyKkCCcAAGRVwsp5CS+D0eS8trtUTViZjodvI6AcJng5AACwrNsILn/UElx6HVam42GpnPwaAWVngf8JAAB0wSy4fO7zsH7vwsp0PNyJcPJeixcAABUoYeVzCS+D0eS2T2+3N2Eltnj91jTNW1UUAAAqdBuh5VNfQkvnw0qElPcRUgAAgKY5a5rmY9e3iXU2rAgpAADwrE6Hls6FlZhJORFSAABgYR+72B7WqbAyHQ8/xFyKmRQAAFhOCSrHg9HkrCvXrRNhJVYQn9ruBQAAK7uO0HKZ/VKmDitavgAAYG0+xTxL2tawtGFlOh4eRjVFyxcAAKxHGbw/ylplSRdWVFMAAGDjUlZZUoWV6Xi41zTNF7MpAACwcddRZbnOcun/leA13JmOh++aprkSVAAAYCtK4eBiOh6m6XDaemVF2xcAAKRzNhhNjrb9orYaVuIU+i+R4gAAgDxKO9jBNudYthZWYj7lwrYvAABIq2wLe7OtOZatzKxEH5ygAgAAue3GHMv+Nl7lxisrEVRON/3PBQAAVlI2hZ1t8hJutLISG78EFQAA6J7TTW8K21hlZToentr4BQAAnbexCstGwoqgAgAAvbKRwLL2NrDpePhBUAEAgF7ZSEvYWisrhukBAKDX1lphWVtYEVQAAKAK5RyW83W80bWEldjDfLGOvzcAAJDKbZx03/rBka2HFSfTAwBAdUpgeTUYTW7bfOOtDthPx8MSUL4IKgAAUJWdOOm+1RzQ9jawL3EkPwAAUJfSYXXS5jtuLazEiuL9tv5+AABA57ydjofv2nrRrcysTMfDw6iqAAAAvG5j4H7lsBJ9aV/NqQAAAOEmAstKA/dttIEZqAcAAObttnHm4kphJfrRzKkAAAD3Hca4yIu9uA1sOh6WtHSlqgIAADxipfNXVqmsnAoqAADAE3ZWaQd7UVjR/gUAACzoxe1gS7eB2f4FAAAs6UXbwV5SWTkRVAAAgCWUefelD4tcqrIyHQ/3YqgeAABgWWXY/mbR/82ylZUTtwMAAHihpfLEwpWV6XhYBuov3BUAAGAFB4PR5HKR//kylZWVT6AEAACq937RC7BQWJmOh29jKAYAAGAV+9G19axFKysLpx8AAIA28sWzYSUOcFFVAQAA2rJQdWWRyspvbgkAANCyZ3PGk9vAbAADAADW6MlzV56rrPzqzgAAAGvyZHXl0crKdDzcaZrmf90VAABgTW6junL70N/+qcrKW3cEAABYo1IgOXzsb/9UWDFYDwAArNujoycPtoFNx8O9pmmu3BYAAGADHhy0f6yyYrAeAADYlAdHUB4LK+ZVAACATXmwWPJDWImzVXbcFgAAYEN2YxTlOw9VVn5xRwAAgA3bv/+PeyisPLo6DAAAYE1+aAX7bhuYLWAAAMAW/c/8AZH3Kys/lF4AAAA25Lsur/th5Wd3AQAA2JLv8ojKCgAAkMV3eeRbWIl5FSuLAQCAbSkrjHdn/+z5yoqqCgAAsG3fzluZDys/uS0AAMCWPRhWfjgxEgAAYMO+DdkLKwAAQCbfV1ZiuB4AAGDbdqbj4U4zV1nZdUsAAIAk7oops7CisgIAAGTxXVj5j9sCAAAkoQ0MAABI6W4jmLACAACkJKwAAADZfDezAgAAkMXfMyvOWAEAADL61yy1AAAAZDEdD3f/7W4AsILLJ/6nu2YiAViBsALAQkoouW6a5q+maW4Go8lTIeU70/FwJwYly5+fmqbZF2IAWISwAsBDbpqmOW+a5s/BaHK+yhUajCa3EXa+BZxS2o/Q8kvTNIfuAAAPGUzHw/LL4sLVAaBpmrOmaX5fpnKyqqi8lMDy22xVJQA0TXMgrABQKh+fm6b5FFWQrYnfSb+ptgBQwoo2MIB6pQkpM1HRuYw2sdNoFQOgUsIKQJ1Ku9dxlpBy32A0KTMzB1FpOTWQD1AnJ9gD1OUuBAxGk6OsQWVeqbQMRpNXTdN8zPOqANgUYQWgHqWa8nqTw/NtGYwmH8prj/XJAFRCWAHov1JBOepKNeUxg9GkBJWDCF0AVMDMCkC/3UbbVy8qEhG2jqbjYTmc8iTBSwJgjVRWAPqrBJRXfQkq8wajyacSWvK8IgDWQVgB6KfrqKh0tu3rOYPR5ExgAeg3YQWgf3ofVGYEFoB+E1YA+qWaoDIjsAD0l7AC0B+zrV/VBJWZCCzHOV4NAG0RVgD6400fh+kXFUP31hoD9IiwAtAPH7t42OMaHDs4EqA/hBWA7ruME96rNzuHpfbrANAXwgpAt/lyfk+0wn1M9aIAeBFhBaDbPg9Gkxv38HtRadIOBtBxwgpAd91o/3qS7WAAHSesAHSX9q8nxMKB87QvEIBnCSsA3XRp+9dCVFcAOkxYAegmA+QLiHkeZ68AdJSwAtA916oqS/ncodcKwBxhBaB7fPleQqwyFu4AOkhYAeiWW0PjL/J7B18zQPWEFYBuOY9T2lmOgAfQQcIKQLf84X4tLwKewALQMcIKQHfcDkYTX7hfTtAD6BhhBaA7DImvRtAD6BhhBaA7/nSvXi5awa67+voBaiSsAHSHL9qrU50C6BBhBaAjHATZir968B4AqiGsAHSDqko7bvrwJgBqIawAdIMv2S1QnQLoFmEFoBu0LwFQHWEFgNqorgB0hLAC0A1mVgCojrAC0A237hMAtRFWAACAlIQVAAAgJWEFAABISVgBAABSElYAAICUhBUAACAlYQUAAEhJWAEAAFISVgAAgJSEFQAAICVhBQAASElYAQAAUhJWAACAlIQVAAAgJWEFAABISVgBAABSElYAAICUhBUAACAlYQUAAEhJWAEAAFISVgAAgJSEFQAAICVhBQAASElYAQAAUhJWAACAlIQVAAAgJWEFAABISVgBAABSElYAAICUhBUAACAlYQUAAEhJWAEAAFISVgAAgJSEFYAOGIwml+4TALURVgAAgJSEFQAAICVhBQAASElYAQAAUhJWAACAlIQVAAAgJWEFAABISVgBAABSElYAAICUhBUAACAlYQUAAEhJWAEAAFISVgAAgJSEFQAAICVhBQAASElYAQAAUhJWAACAlIQVAAAgJWEFgNrsueMA3SCsAFCbHXccoBuEFQAAICVhBQAASElYAQAAUhJWAACAlIQVAAAgJWEFAABISVgBAABSElYAAICUhBUAACAlYQUAAEhJWAEAAFISVgAAgJSEFQAAICVhBQAASElYAQAAUhJWAACAlIQVAAAgJWEFAABISVgBAABSElYAAICUhBUAACAlYQUAAEhJWAEAAFISVgAAgJSEFQAAICVhBQAASElYAQAAUhJWAACAlIQVAAAgJWEFAABISVgBAABSElYAAICUhBUAACAlYQUAAEhJWAEAAFISVgAAgJSEFYD8btwjAGokrADkJ6wAUCVhBQAASElYAQAAUhJWAACAlIQVAAAgJWEFAABISVgBAABSElYAAICUhBUAACAlYQUAAEhJWAEAAFISVgAAgJSEFQAAICVhBQAASElYAQAAUhJWAACAlIQVAAAgJWEFAABISVgBoBrT8XDH3QboDmEFgJrsudsA3SGsAAAAKQkrAABASsIKAACQkrACAACkJKwAAAApCSsAAEBKwgoAAJCSsAIAAKQkrAAAACkJKwAAQErCCgAAkJKwAgAApCSsAAAAKQkrAABASsIKAACQkrACAACkJKwAAAApCSsAAEBKwgoAAJCSsAIAAKQkrAAAACkJKwAAQErCCgAAkJKwAgAApCSsAAAAKQkrAABASsIKAACQkrACAACkJKwAAAApCSsAAEBKwgoAAJCSsAIAAKQkrAAAACkJKwAAQErCCgAAkJKwAgAApCSsAAAAKQkrAPn96R4BUCNhBQAASElYAQAAUhJWAACAlIQVAAAgJWEFAABISVgBAABSElYAAICUhBUAACAlYQUAAEhJWAEAAFISVgAAgJSEFQAAICVhBQAASElYAQAAUhJWAACAlIQVAAAgJWEFAABISVgBAABSElYAqMmeuw3QHcIKADXZcbcBukNYAQAAUhJWAACAlIQVAAAgJWEFAABISVgBAABSElYAAICUhBUAACAlYQUAAEhJWAEAAFISVgAAgJSEFQAAICVhBQAASElYAQAAUhJWAACAlIQVAAAgJWEFIL+f3aPW/Kcn7wOgCsIKADXZdbcBukNYAchvzz1qjbAC0CHCCkB+O9PxcMd9aoWwAtAhwgpAN6iurGg6Hu53+g0AVEhYAegGX7RXJ/ABdIywAtANP7lPK3MNATpGWAHoBpWV1bmGAB0jrAB0Qxmy18b0QnHtDNcDdIywAtAdv7pXL+baAXSQsALQHYfu1Yu5dgAdJKwAdMeu9bvL0wIG0F3CCkC3aGda3m9de8EA/E1YAeiWt9PxUJVgQXHy/9tOvFgAfiCsAHSPSsHi3nXlhQLwI2EFoHveRsWAJ8Q1EuwAOkxYAeie8iX8xH171ru4VgB0lLAC0E1vHRL5uJjreZ/19QGwGGEFoLtUVx53mvWFAbA4YQWgu/an46EB8num42E5ANJ5NAA9IKwAdNt7q4z/EddCVQWgJ4QVgG4rA+Rf3MNvTg3VA/SHsALQfXvT8bD6asJ0PDzR/gXQL8IKQD+U7WDVntQe7938DkDPCCsA/XFaY2CZjof75lQA+klYAeiXk5rOX4n3amYHoKeEFYB+KcPlF1Ft6LUIKhcG6gH6S1gB6J9ZYOltS1i8N0EFoOeEFYD+Ou3joZERVKwoBqjAv91kgF4rMyw/NU1zPBhNbrv8RqfjYQknZT1xtVvPAGqjsgLQf+XL/VWXB+/n5lMEFYCKCCsAddiNwPKha+82XvNVOfwywcsBYIOEFYC6vJ+Oh1+7sC2svMbyWstrTvByANgCYQWgPruxLSzliuMIKRfR9rWb4CUBsCXCCkC99udCy+G2r8K9kNL7c2IAeJ5tYACUYFCCwk3TNL83TXM2GE1uNnFVpuNhqZyUoPSbKgoA9w2iBeDClQFgznXTNH80TXM+GE2u27wwsdmr/O751dA8AE84EFYAeM5thJc/m6a5iT/Xz53bEuei7EXFpPz5Of5vhzkCsIgDbWAAPGdn1io2/9+bjoez/3gdgaaJ/65qCQCtEFYAWJVwAsBa2AYGAACkJKwAAAApCSsAAEBKwgoAAJCSsAIAAKQkrAAAACkJKwAAQErCCgAAkJKwAgAApCSsAAAAKQkrAABASsIKAACQkrACAACkJKwAAAApCSsAAEBKwgoAAJCSsAIAAKQkrAAAACkJKwAAQErCCgAAkJKwAgAApCSsAAAAKQkrAABASsIKAACQkrACAACkJKwAAAApCSsAAEBKwgoAAJCSsAIAAKQkrAAAACkJKwAAQErCCgAAkJKwAgAApCSsAAAAKQkrAABASsIKAACQkrACAACkJKwAAAApCSsAAEBKwgoAAJCSsAIAAKQkrAAAACkJKwAAQErCCgAAkJKwAgAApCSsAAAAKQkrAABASsIKAACQkrACAACkJKwAAAApCSsAAEBKwgoAAJCSsAIAAKQkrAAAACkJKwAAQErCCgAAkJKwAgAApCSsAAAAKf3bbQEqczn3dv+c+8//aZpmN/7z7tx/BgC2RFgB+uo2gkkJJNflz2A0uV3mvU7Hw70ILeWvPzdNs++nhZaUn8mbpmn+iv9cfjZvB6PJ9f2/ffwc7sSfvQjWe/EHoNcG0/Gw/PK9cJuBHihf9H4vIeWhL31tmI6Hh03T/NI0zWF8eYRFlGByHuH5ctng/Jj4Hf5LBGnhBeibA2EF6Lrype+shJR1BZTHRHD5NYIL3HcT4flsMJrcbODnsVQB38bPpDZGoA+EFaCzype/j+VpdVtPqV8qviS+jy+KUNoPPw9Gk/Mt/kzux8+k1kWgy4QVoHNKMDkejCZn2V640FK9Ek4+brrC9xQ/k0DHCStAp5RKyqdtV1KeE18QTz3VrsZlhJTLrG9YpQXoKGEF6ITyJfBoE33/bYqZllOD+L11GyHlU1fe4HQ8fBuhxUwL0AUHDoUEMru5e6oymhx0LagUMbPw+t7ZLvRDuaevuxRUmr9/Js/iZ/JjhC2A1FRWgIw698T6OdPx8EM80ab7jvvwsxntiie22QGJqawA6ZQnv6/6FFSav59ol7By5Gl2p91Gpa8XP5ulWjkYTd6U9xRnFAGkI6wAWczaao6yD9C/VLTgHAgsnXQdQaV3LX3lPQ1Gk9fCNJCRsAJs200Mzx9kWvm6LvEeBZZumQWVXv98Rph+FfMsACkIK8A2fYxqSrozU9ZJYOmUWVCp4l6V9xkti68shgAyEFaAbTiPuZQPtXwJvG8usJBXVUFlXsyzHMTPaOc28QH9IawAmzT78vemi6uI2xaB5ahf76o3bqM9serqV8yzlCrLsUogsA3CCrAJt7Hu9XUfB5RXES1wvdp81hNvapihWlRsQHvlZxXYNGEFWLdPfVxF3KbBaHJsPiCVY6H6RzHPcuygU2CThBVgXWariI9rb6VZkLWxOVwK1k8rFaeYZ3ljngVYN2EFaNtNtNBUsYq4LTHDY2Xsdt3GF3AWMBhNzmOe5aOgDayLsAK0pXxZ+Vi+vJQvMa7q8uKJvvaa7VEFfIFYdVxaw6paQQ5shrACtOEsWr4+uJorO+746++qy9rO+2lTrDo+ilXHAjfQGmEFWMVsFfGRVcTtiNY5X5o3TwteC2LV8UHMYPlMAFYmrAAvMTuDwiri9fDFebPO/By3K6pUr/0sA6sSVoBlzVYRe/q/JlGlcn03xxfqNYhVxx/ifBZzbMCLCCvAoi4jpBhC3gxfoDfjXAvjesU8y5uYZ7EhEFiKsAI85ybmUg58qducuNaeRq/f576/wSxinuW1M4WAZQgrwGPmVxHr59+O32t80xt042d786KF9FW0lAI8SVgBHnIWLV9WEW9RnFfjCfT6qKpsScyzHEdoERiBRwkrwLzLuVXEviTnoBVsfVzbLYt5loOYZ9FmCvxAWAGa+JJwFHMpnnLm8kftF2BNrs1g5RHzLK/iUFQPSoBvhBXgY5w+b1VuTsLjegiBCQ1Gk0/RGubzCLgjrEC9zmdzKVq+8op7I7C0zzVNKuZZjuJQSfcJKiesQH1mq4jfaIPpDGdTtEy7Y36D0eQ65lnemGeBegkrUI/yhP7YKuJO+rP2C9AyP/8dElvxXkfLqiowVEZYgTrMVhE716CbPFVul0pVx0Rr2IcILeZZoCLCCvTbZQzPW0XcYaUdpvZr0LL/36t3U5FYdXwUq45VyKACwgr0U3kS/yZWEfui2w+qK+3xJbfjYtVxCSxHWsOg34QV6JfbuVXEDrzrF2EF7omV66/icw/oIWEF+uM8QopVxPAECyb6ZW6e5VV8DgI9IqxA911bRQzULuZZ3sQ8i/ZX6AlhBbprtor4tSfFVRBEYQExz1K2hh2bZ4HuE1agmz5ZRVwdX7pgCfH5+Co+L4GOElagWy4jpBybS6nOXu0XAJYV8yzHEVpUoKGDhBXohvlVxNqBAJYQ8ywHMc/iMxQ6RFiB3O5WEQ9Gk1dWEQOsJuZZZquOVaehA4QVyOtstorYPaJpml0XoR3T8XC/D++Dl5tbdXzmMkJuwgrkcxmriI+0fDFHWIEWxTxLOQH/tXkWyEtYgTxKS8JRzKX4xck30/FQUGmXZQV8MxhNrmOe5cg8C+QjrEAOH2PLl5YEHiKstOs/fXoztCM+f1+bZ4FchBXYrtkq4g9WEfMEMxbtUlnhQdEa9iFCi4dHkICwAttxE3MpVhGziJ9dpVYJfzwpVh0fxarja1cLtkdYgc2aX0VsLoVFqQS0bDoeuqY8K1Ydv455FtVv2AJhBTbnbNby5ZqzqFizu+OCtU51hYXFPMvsfBZgg4QVWL/LOC/lyFwKL/CLi7YWritLmZtnKaHFIb2wIcIKrM/N3CpiPc+81KErtxb70/FQxYqlxTzLm5hnMXMIayaswHp8jGqKbTK8WMxVWFu8PoIgLxbzLKXKcmyeBdZHWIF2nVtFTIt+czHXyvVlZYPR5FO0hn1yNaF9wgq04zpWEb+xipg2RIuSJ//rtWcrGG2IeZbjOJ/FpkdokbACqynVk+Oy2tIqYlr2zhawjVBdoTVlPrHMKTZN88Y8C7RDWIGX+xQtX0r/tCqqKr5Eb8bb6XhoLohWDUaT85hn+WieBVYjrMDyZquIj82lsCaqKpv1vqY3y+bMrTq2bAVeaBAHjl24gPCsm2j5sl+ftYmqyldhZeNemTdjneL71nsHksJSDlRW4Hm3c6uIBRXW7b2gshUnFb5nNihWHZd5liPzLLA4YQWedhYhxSpi1i6evL5zpbfiMK4/rFWcv/XaPAssRliBh81WER9pDWGDPN3frlOn2rMJser4Q4QWFXt4grAC3ytPuY6sImbTpuNhCSrO/NiuXcP2bFJ5GFbO5yoPx+IhGXCPsAL/mK0itrWFjZqOh4fav9J4F/cDNibmWV7HPIvWMJgjrMDfq4hfWUXMNsQJ6qcufiqnTrZnG+Jh2ex8FqheI6xQuTKL8qZsZzGXwjbEfMQX27/S2TG/wrbMzbO8iodpUDVhhRrdrSIupwtbRcy2xBfhi5iTIJ9SWbkQWNiWmGc5iHkWD9SolrBCbc6i5euDO8+2zAUVrUa5CSxsXcyzlCrLsXkWaiSsUIvLuVXEPuzZGkGlcwQWUhiMJp+iNcwSGKoirNB3s1XEB1YRs20xtC2odI/AQgoxz3IU57P4nUYVhBX67KNVxGQRp6MLKt01CyzuH1s3GE2uY57ljXkW+k5YoY/OZ3MpWr7IYDoefoig4sl8t80Ci3NYSKEsiYl5lo/mWeirwdzTPui6m2j5Uhonhel4uBtnqOy7I73zKbYK+oJICvF5875pmrfuCD1yoLJCH5QvC8exilhQIYWoplwJKr31rtzfeOAHWxerjo9i1bHfhfSGygpddxZBxdNNUojP1FPnp1TlLKosZgdIYzoevo1Ki88iuuxAWKGrLiOkXLuDZKDlq3rlgcnn0h7m4QlZxAa7dxFaoIuEFTrnJp5g2vBFCvFl4H18IYCbeJByXv2VII14mHLSNI3lEHSNmRU64za2nbwWVMgi2iy+CirMKV8Kv0zHQ2uOSSPmWd7EPIuOBDpFZYUuOI8nlfrBSSE+N0+cmcICzNWRTjxoObFOnQ5QWSG167texdHkjaBCBqWVYjoenjrckSXcVd9iOxykEB0Kr2IFN6SmskJGtzGX4kOUFOaGVH/zJJIVOAuKdCwHITmVFdL5FKfPCyqkEKeVX8UQvaDCKnbjBPyL+IIIWxfzLAcxz6KLgXRUVsjiMp44+qAkhRiOPvG0kTVyCj7pRMuiKjJZqKywdSWclJmUA0GFDErL13Q8PHH6PBvwLuZZ3rrYZDEYTT7EPIvNm6QgrLAts7mUV84jIIvpePjOKmI2rDy9Pp2Oh1fR6QBbV6p9g9HkqBwXEJ0PsDXawNiGswgqKimkYBUxiVjVTjoxu3cSc1ewSU6wZ6Ou45ewpzSk4FRnEiuH4H4yz0IWtiKyJcIKG3EbIUX/KynM/dJ9746Q2E1UoX12kkY85HkfZwjBuhmwZ+0+xipiv2xJIYaZrwQVOmA35lkuzLOQRaw6PopVxzolWDuVFdbFKmJSsYqYHjDvRzrxAOhEaxhrorJC627u+gutIiaJWEV8ahUxPXBXFYxzMCCF6Jx4FZ0U0DqVFdpS5lI+x352SCFWETt5nj66iVlAq99Jw9IS1sCAPa04i1+attaQQnyunVqzSQUu4/P32s0mC+vgaZGwwkqsIiaVeKp3qt2LCnloRDqq27TAzAovVoY8XwsqZBBzKR/i9HlBhRqVeZav8eUQUhiMJp/iFHyVP15MWGFZtzFAbzaFFGITzVeriOHu6fXJdDz8atUxWcSq49cG8HkpYYVlXMeZKaopbF35MlbOn4i2Ly0G8I/SDnkR57OY2yKFeMj5Jh56wsKEFRZ1Fm1fPmTYqvLlK1YRX2j5giftR2vYh9Iq6VKxbbG97kBgYRnCCos4i9NqYatiLuUq+vOBxbyP0OLfG7YuNteZY2FhwgrPEVTYuul4eFj68G2VgRcr/96cTsfDK/MsbFscGn0gsLAIYYWnCCpsVbR8lXavL85MgVbsxTzLF/MsbFO0lWsJ41nCCo85F1TYllhFfGIVMaxNOWH8yjwL2ySwsAhhhYeUsqygwlbMrSJ2XgSs1060Vl6ZZ2FbYobFdw4eJaxwX3m6cWTrF5sWq4ivrCKGjduNeZYL8yxsQ2wJcw4LDxJWuO8onnLARsRcypdYRbznqsPW7Mc8y6nWMDYtzmFxjhs/EFaYdx5PN2DtYi5ltor40BWHNN7OzmdxS9iwI/Mr3CesMHOrZ5RNKauII6RYRQw53c2zlJXh8e8rrF2sNNYOxneEFWaOzamwbtPxcM8qYuiU8u/pl5hn8e8sazcYTT45f4V5wgrF9WA0OXMlWJdo+TqNaooBXuie/WgNOzHPwgYcu8jMCCs0PhRYp+l4+C5WEVuNCt33LkKL1eKszWA0uTRsz4ywwmV8KECrYhVxCSkn5lKgV8q/zycxz6JSyrqYXeGOsMLn6q8Arbq3iliPO/TXbqw6/mKehbaprjAjrNTtxqpi2jK3ivirVcRQlcPZqmPzLLTMA1WElcr5EKAV0/Hw7dwqYqBO7yO0mE+jFfFA9eQWZDEAAAyGSURBVMbVrJuwUjdVFVYScyml3etUyxcQ8yzlBPwr8yy05HcXsm7CSr3O4/AlWNrcKuILq4iBB+zFPMupeRZW5GiFygkr9fqz9gvAy8zNpWj1AJ5z1yJqnoWXigerDomsmLBSLy1gLGVuFfF7q4iBJezE58aVeRZeyFawigkrdbrRAsaiYhXxhVXEwIp2Y56ltIftuZgs4Q8Xq17CSp08oeBZMZdyEi1f5lKAtuxHleVUaxiLcHh13YSVOplX4UnRqlFCyjtXCliTt7PzWVxgFmBupVLCSp20gPGgmEu5ilXEnngC63Y3z1Lm4aw65hnCSqWElQopp3JfzKXMVhHrJQc2bTdWHV9Ydcwj/uvC1ElYqc9t7ReA70ULxpVVxEAC+9EadmKehXs8aK2UsFIfZVTuTMfDQ6uIgaTeRWgxNweVE1agMmVlaKwi/mIVMZBYeYhSKixX5lnwsLVewkp9tIFVam4V8ZVVxECH7MU8yxfzLPUajCa+v1RKWKnPX7VfgBpFK4VVxECXHc5WHZtngXoIK9Bjc6uIT8ylAD3xPkKLpSBQAWEFeihWEX+xihjoqfLw5TRWHWtrhR4TVurz/2q/AH0WcymzVcSHtV8PoPf2Y57l1DwL9JOwUh9P2XsqWiKurCIGKnT3+WeeBfpHWIGOm1tFfGoVMVCxnXhYU0KLynLPaPerl7BSH19meyJavk6tIgb4Tvk99yXmWXQTQMcJK/URVnpgbhWxbTgAD9uPKsup1rBeEDwrJaxUyJOm7opVxF+tIgZY2NtYdeycqW77T+0XoFbCSp1UVzomVhFfxCpi9w9gOeXhzkl52GP2obM8aK2UsFKnn2u/AF0xt4r4q7kUgJXtxqrjC6uOO8fvwEoJK3XyL3wHxCrir7HdBoD27Edr2Il5lvy0r9dNWKnTng/nvGIuZbaK2H0CWJ93EVosK8nNQ9aKCSv18i9+MnOriC/cH4CNKQ+FysawK/Msaf1S+wWombBSL//iJzI3l+LpHsB27MU8yxfzLHlEJ4gQWTFhpV5O902gnLIcq4jfa/kCSOEwWsM+aJlOwfeVygkr9drRo7s9c6uIv1hFDJDS+zhU0u/K7fqt5jePsFK7X2u/AJsWcyknVhEDdMJuzLNcmGfZvNgCZhNY5YSVuu1bB7g5c6uInaIM0C37Mc9yqjVso1RVEFbwQbBusYr4yipigM57O5tncSvXK5YcaMFDWKF5a+vJesRcypdYRayCBdAP5aHT+7IcpSxJcU/XxoHI3BFWKE5chfbEXEp56nZliwlAb5UHfV9insUDqRapqjBPWKE4NDjYjnjKdmUVMUA19mNr2Il5ltZ4iMo3wgozPhhWUJ6qWUUMULV3Mc9iicoK4uGprgS+EVaY2TMwuLy5VcRXVhEDVK9UVk5insXvhCVFZeq0Uy+atRNWmPde3+3i4umZVcQA3Lcbq44vLLFZynvdCdwnrHCfHfLPiFXEX6N1zrUC4DH7s1XHfrc+LWY+PfzjB8IK9+0pwT7s3ipiT34AWNT7CC02XD0gujp89+BBwgoPOTS/8o+5VcRfDf0B8EI70b1wZZ7lH3NzKipPPEhY4THvPQG6+xB9O7eKGABWtRfzLF9qn2eJoOLgZJ4krPCU01oDy9wq4lMtXwCswWGcz1LzPMupoMJzhBWeU1VgiZavU6uIAdiAnajcX1X6u1ZrNc8SVlhEFYFlbi6l+vY3ADZqN37XXvT9CIG51i+/a1mIsMKiTuPww96ZW0X83oAfAFu0H1WWXh4jEDM6ZlRYirDCMt7FQGAvPkBjFfGFVcQAJPN2dj5LX25MnKNyJaiwLGGFZc0GAjs7z3FvFbG5FAAy2onNnF/ji35nRWfGF90LvISwwkvsxtrFk65VWWL25qtVxAB0RPmd+yXmWTrVBRBt1ldOpmcVwgqreNeVDSZzH5gOngKgi/ajNSz9g8K5bV/mU1jZINp5LlxKVnTZNM3HwWhymelCxlOoE+sRAeiR26ZpPjdN82kwmtxmeVsRosqDzN88GKQlB8IKbSth5ffBaHK2zSsbP9e/CSkA9NgstJwNRpObbb3NeDD4WywGEFJok7DC2pQPzfPyIbqpD9B4olM+KH9VdgagMuUh4R+D0eR8U287Bv9/9WCQNRJW2IjrqLj80XabWByeVX6Gf7HZCwDuqi0lsPxRfve22SYWFZTyu/bnCCiqKKybsMJWXEaA+SsqMNeLfJjGz+pOVE1+ig9MH5QA8Ljr+PPf+P17OxhNrp+7XvEwcCd+1/4Uv3udScamCSukcx1PhWZUSwBgPW7j9+6M37lkc/Bvt4RkzJoAwGbsCChk55wVAAAgJWEFAABISVgBAAAyuhVWAACAdMrmun+1fe4FAABAG1RWAACAbO6OspiFldZONwUAAFjR3RlAs7Dy7EmmAAAAm6SyAgAAZPNnMxdW/nJ7AACATGZh5cZdAQAAkrjbWCysAAAA2dzlk8HsRU3Hw6lbBAAAbNtgNLnLKfPnrKiuAAAA2/bt0Pr5sGJ9MQAAsG3fcsl8WPnTbQEAALbs26ZilRUAACCTb21gg/kXZcgeAADYopvBaPJq9o//173XcenOAAAAW/JdHrkfVv5wVwAAgC35bo5eZQUAAMjiuzwyuP+ipuPh/zZNs+N2AQAAG3Q9GE1ez//j7ldWinN3BAAA2LAfurweCivmVgAAgE37/f4/74c2sEYrGAAAsFnfrSyeeaiy0mgFAwAANujB/PFYWNEKBgAAbMoPLWDNY21gzd+tYF+bptl1ewAAgDX6YQvYzGOVleaxdAMAANCiR3PHU2HlzB0AAADW7NHc8WhYGYwmNwbtAQCANTobjCa3j/3tn6qsFJ/dGQAAYE2ezBuPDtjPGLQHAADW4HIwmhw89bd9rrJSfHRnAACAlj2bM56trDSqKwAAQLseXVc8b5HKSqO6AgAAtGih2fiFKiuN6goAANCOhaoqzRKVlUZ1BQAAaMHxon+LhSsrzd/VlaumafbcIQAA4AWe3QA2b5nKSrNMCgIAAFglTywVVgajyaVT7QEAgBcop9VfL/M/W7ay0kQaevRIfAAAgHtuX9KltXRYGYwmN4uuGgMAACjLugajydIFj6UG7OcZtgcAABaw1FD9vJe0gc0cuTMAAMATblfJDS8OKzEc4+wVAADgMR9jjORFXtwGNqMdDAAAeMCL279mVmkDmzmyHQwAAJizUvvXzMphJdrBHBYJAADMHK3S/jXTRmWlBJazcshLG38vAACg0z4NRpNWDpJvJayEUl1Z6kRKAACgV8qcSmtdV62FlTjk5Y35FQAAqNJN5IHWtFlZmZ1uv9LEPwAA0Dl3hYuXnFL/lFbDSvPPwL0DIwEAoB5HkQNa1XpYaf4ZuLchDAAA+u+orYH6+9YSVpq/A8snG8IAAKDXjqNQsRYrn2D/nOl4eNo0zVs/owAA0Ctng9FkreMfaw8rjcACAAB9s/ag0mwqrDQCCwAA9MVGgkqzybDSCCwAANB1GwsqzToH7B8Sb8zQPQAAdM/xJoNKs+nKysx0PCzVldNt/LMBAIClHa1z69djthJWmn8Cy0nTNDvbeg0AAMCTZifTX27jMm0trDR/B5a9pmkuBBYAAEjnJoJK6yfTL2qrYaX5O7DsRGDZ2/ZrAQAA7lxGULnd5uXYeliZmY6HpSXsXY5XAwAA1fo4GE0+ZHjzacJK83dgOYzBe21hAACwWVudT3nIRlcXP2cwmpw3TfM6yk4AAMBmlO/hrzIFlSZbZWXedDwsLWHvVVkAAGBtbqPt61PGS5w2rDR/B5bdaAvbT/ByAACgTy7j/JSbrO8pdViZcSYLAAC05jZCynn2S5pqZuUxcVrmq6ZpUpanAACgIz7GbEr6oNJ0pbIyT2sYAAAsrYST48wtXw/pXFiZmY6H+zGAL7QAAMDDLmOAvpPbdjsbVmaEFgAA+EGnQ8pM58PKTISW35qmOczxigAAYOPKrPfnwWhy3YdL35uwMhMzLSW0vLU9DACACpTtXp9LUOnaTMpzehdW5sXK41+1iAEA0ENlaP6P2JzbS70OKzNRbTmM4LKX41UBAMDSSnvX7yWo9K2K8pAqwsq8ueDyi4oLAAAdUCoof9YSUOZVF1bmTcfDnQgsP8dfVV0AANi2y6ig/NmVwxvXpeqw8pDYKlb+/NQ0za4AAwDAGl3Hn7/KX7u+arhtwsoCpuPhXmwWm7WN/Rx/3RFmAAB4wnVs62qilauJysltX9YLr5OwsgYxF7PbuzcGAMBjSlXk1tVpUdM0/wepnMc0zFEZrgAAAABJRU5ErkJggg==;container=0;" vertex="1" parent="PHb3LdSxm_V6ggQVDF2g-10">
          <mxGeometry x="121" y="20.560000000000002" width="30.1" height="24.64" as="geometry" />
        </mxCell>
        <mxCell id="PHb3LdSxm_V6ggQVDF2g-15" value="" style="group" vertex="1" connectable="0" parent="1">
          <mxGeometry x="190" y="580" width="165.2" height="119.19999999999999" as="geometry" />
        </mxCell>
        <mxCell id="PHb3LdSxm_V6ggQVDF2g-16" value="k3s agent" style="rounded=1;whiteSpace=wrap;html=1;verticalAlign=top;labelPosition=center;verticalLabelPosition=middle;align=center;fontStyle=1" vertex="1" parent="PHb3LdSxm_V6ggQVDF2g-15">
          <mxGeometry x="15.199999999999989" y="19.19999999999999" width="150" height="100" as="geometry" />
        </mxCell>
        <mxCell id="PHb3LdSxm_V6ggQVDF2g-17" value="" style="image;sketch=0;aspect=fixed;html=1;points=[];align=center;fontSize=12;image=img/lib/mscae/Kubernetes.svg;direction=south;" vertex="1" parent="PHb3LdSxm_V6ggQVDF2g-15">
          <mxGeometry width="38.4" height="40" as="geometry" />
        </mxCell>
        <mxCell id="PHb3LdSxm_V6ggQVDF2g-18" value="kubelet/kubeproxy" style="sketch=0;html=1;dashed=0;whitespace=wrap;fillColor=#2875E2;strokeColor=#ffffff;points=[[0.005,0.63,0],[0.1,0.2,0],[0.9,0.2,0],[0.5,0,0],[0.995,0.63,0],[0.72,0.99,0],[0.5,1,0],[0.28,0.99,0]];verticalLabelPosition=bottom;align=center;verticalAlign=top;shape=mxgraph.kubernetes.icon;prIcon=node" vertex="1" parent="PHb3LdSxm_V6ggQVDF2g-15">
          <mxGeometry x="65.19999999999999" y="45.19999999999999" width="50" height="48" as="geometry" />
        </mxCell>
        <mxCell id="PHb3LdSxm_V6ggQVDF2g-19" value="" style="shape=image;verticalLabelPosition=bottom;labelBackgroundColor=default;verticalAlign=top;aspect=fixed;imageAspect=0;image=data:image/png,iVBORw0KGgoAAAANSUhEUgAAAysAAAKYCAYAAABzfmczAAAACXBIWXMAAC4jAAAuIwF4pT92AAAgAElEQVR4nO3dTXIbV5Y24ERFzT/2HBFFrcDUFBOTKzC1AosrsLgCSSugtALSKxC9AtITTEmvQKwIzJvfCtBx6QMZovgDEAngZN7niVC4uqPKBjJpEG+enztoWMh0PNxrmmanaZr9+O//FP93E3/dcyUBAAiXcxfipmma/879/28Ho8m1C/U8YeWe6Xi4G8Gj/Pm5aZrd+AMAAG0qIaaElr/ir9eD0eTGFf5H9WElKib7EUz2BBMAALboJqovf5a/1h5eqgwr0/HwsGmaXyKkCCcAAGRVwsp5CS+D0eS8trtUTViZjodvI6AcJng5AACwrNsILn/UElx6HVam42GpnPwaAWVngf8JAAB0wSy4fO7zsH7vwsp0PNyJcPJeixcAABUoYeVzCS+D0eS2T2+3N2Eltnj91jTNW1UUAAAqdBuh5VNfQkvnw0qElPcRUgAAgKY5a5rmY9e3iXU2rAgpAADwrE6Hls6FlZhJORFSAABgYR+72B7WqbAyHQ8/xFyKmRQAAFhOCSrHg9HkrCvXrRNhJVYQn9ruBQAAK7uO0HKZ/VKmDitavgAAYG0+xTxL2tawtGFlOh4eRjVFyxcAAKxHGbw/ylplSRdWVFMAAGDjUlZZUoWV6Xi41zTNF7MpAACwcddRZbnOcun/leA13JmOh++aprkSVAAAYCtK4eBiOh6m6XDaemVF2xcAAKRzNhhNjrb9orYaVuIU+i+R4gAAgDxKO9jBNudYthZWYj7lwrYvAABIq2wLe7OtOZatzKxEH5ygAgAAue3GHMv+Nl7lxisrEVRON/3PBQAAVlI2hZ1t8hJutLISG78EFQAA6J7TTW8K21hlZToentr4BQAAnbexCstGwoqgAgAAvbKRwLL2NrDpePhBUAEAgF7ZSEvYWisrhukBAKDX1lphWVtYEVQAAKAK5RyW83W80bWEldjDfLGOvzcAAJDKbZx03/rBka2HFSfTAwBAdUpgeTUYTW7bfOOtDthPx8MSUL4IKgAAUJWdOOm+1RzQ9jawL3EkPwAAUJfSYXXS5jtuLazEiuL9tv5+AABA57ydjofv2nrRrcysTMfDw6iqAAAAvG5j4H7lsBJ9aV/NqQAAAOEmAstKA/dttIEZqAcAAObttnHm4kphJfrRzKkAAAD3Hca4yIu9uA1sOh6WtHSlqgIAADxipfNXVqmsnAoqAADAE3ZWaQd7UVjR/gUAACzoxe1gS7eB2f4FAAAs6UXbwV5SWTkRVAAAgCWUefelD4tcqrIyHQ/3YqgeAABgWWXY/mbR/82ylZUTtwMAAHihpfLEwpWV6XhYBuov3BUAAGAFB4PR5HKR//kylZWVT6AEAACq937RC7BQWJmOh29jKAYAAGAV+9G19axFKysLpx8AAIA28sWzYSUOcFFVAQAA2rJQdWWRyspvbgkAANCyZ3PGk9vAbAADAADW6MlzV56rrPzqzgAAAGvyZHXl0crKdDzcaZrmf90VAABgTW6junL70N/+qcrKW3cEAABYo1IgOXzsb/9UWDFYDwAArNujoycPtoFNx8O9pmmu3BYAAGADHhy0f6yyYrAeAADYlAdHUB4LK+ZVAACATXmwWPJDWImzVXbcFgAAYEN2YxTlOw9VVn5xRwAAgA3bv/+PeyisPLo6DAAAYE1+aAX7bhuYLWAAAMAW/c/8AZH3Kys/lF4AAAA25Lsur/th5Wd3AQAA2JLv8ojKCgAAkMV3eeRbWIl5FSuLAQCAbSkrjHdn/+z5yoqqCgAAsG3fzluZDys/uS0AAMCWPRhWfjgxEgAAYMO+DdkLKwAAQCbfV1ZiuB4AAGDbdqbj4U4zV1nZdUsAAIAk7oops7CisgIAAGTxXVj5j9sCAAAkoQ0MAABI6W4jmLACAACkJKwAAADZfDezAgAAkMXfMyvOWAEAADL61yy1AAAAZDEdD3f/7W4AsILLJ/6nu2YiAViBsALAQkoouW6a5q+maW4Go8lTIeU70/FwJwYly5+fmqbZF2IAWISwAsBDbpqmOW+a5s/BaHK+yhUajCa3EXa+BZxS2o/Q8kvTNIfuAAAPGUzHw/LL4sLVAaBpmrOmaX5fpnKyqqi8lMDy22xVJQA0TXMgrABQKh+fm6b5FFWQrYnfSb+ptgBQwoo2MIB6pQkpM1HRuYw2sdNoFQOgUsIKQJ1Ku9dxlpBy32A0KTMzB1FpOTWQD1AnJ9gD1OUuBAxGk6OsQWVeqbQMRpNXTdN8zPOqANgUYQWgHqWa8nqTw/NtGYwmH8prj/XJAFRCWAHov1JBOepKNeUxg9GkBJWDCF0AVMDMCkC/3UbbVy8qEhG2jqbjYTmc8iTBSwJgjVRWAPqrBJRXfQkq8wajyacSWvK8IgDWQVgB6KfrqKh0tu3rOYPR5ExgAeg3YQWgf3ofVGYEFoB+E1YA+qWaoDIjsAD0l7AC0B+zrV/VBJWZCCzHOV4NAG0RVgD6400fh+kXFUP31hoD9IiwAtAPH7t42OMaHDs4EqA/hBWA7ruME96rNzuHpfbrANAXwgpAt/lyfk+0wn1M9aIAeBFhBaDbPg9Gkxv38HtRadIOBtBxwgpAd91o/3qS7WAAHSesAHSX9q8nxMKB87QvEIBnCSsA3XRp+9dCVFcAOkxYAegmA+QLiHkeZ68AdJSwAtA916oqS/ncodcKwBxhBaB7fPleQqwyFu4AOkhYAeiWW0PjL/J7B18zQPWEFYBuOY9T2lmOgAfQQcIKQLf84X4tLwKewALQMcIKQHfcDkYTX7hfTtAD6BhhBaA7DImvRtAD6BhhBaA7/nSvXi5awa67+voBaiSsAHSHL9qrU50C6BBhBaAjHATZir968B4AqiGsAHSDqko7bvrwJgBqIawAdIMv2S1QnQLoFmEFoBu0LwFQHWEFgNqorgB0hLAC0A1mVgCojrAC0A237hMAtRFWAACAlIQVAAAgJWEFAABISVgBAABSElYAAICUhBUAACAlYQUAAEhJWAEAAFISVgAAgJSEFQAAICVhBQAASElYAQAAUhJWAACAlIQVAAAgJWEFAABISVgBAABSElYAAICUhBUAACAlYQUAAEhJWAEAAFISVgAAgJSEFQAAICVhBQAASElYAQAAUhJWAACAlIQVAAAgJWEFAABISVgBAABSElYAAICUhBUAACAlYQUAAEhJWAEAAFISVgAAgJSEFYAOGIwml+4TALURVgAAgJSEFQAAICVhBQAASElYAQAAUhJWAACAlIQVAAAgJWEFAABISVgBAABSElYAAICUhBUAACAlYQUAAEhJWAEAAFISVgAAgJSEFQAAICVhBQAASElYAQAAUhJWAACAlIQVAAAgJWEFgNrsueMA3SCsAFCbHXccoBuEFQAAICVhBQAASElYAQAAUhJWAACAlIQVAAAgJWEFAABISVgBAABSElYAAICUhBUAACAlYQUAAEhJWAEAAFISVgAAgJSEFQAAICVhBQAASElYAQAAUhJWAACAlIQVAAAgJWEFAABISVgBAABSElYAAICUhBUAACAlYQUAAEhJWAEAAFISVgAAgJSEFQAAICVhBQAASElYAQAAUhJWAACAlIQVAAAgJWEFAABISVgBAABSElYAAICUhBUAACAlYQUAAEhJWAEAAFISVgAAgJSEFYD8btwjAGokrADkJ6wAUCVhBQAASElYAQAAUhJWAACAlIQVAAAgJWEFAABISVgBAABSElYAAICUhBUAACAlYQUAAEhJWAEAAFISVgAAgJSEFQAAICVhBQAASElYAQAAUhJWAACAlIQVAAAgJWEFAABISVgBoBrT8XDH3QboDmEFgJrsudsA3SGsAAAAKQkrAABASsIKAACQkrACAACkJKwAAAApCSsAAEBKwgoAAJCSsAIAAKQkrAAAACkJKwAAQErCCgAAkJKwAgAApCSsAAAAKQkrAABASsIKAACQkrACAACkJKwAAAApCSsAAEBKwgoAAJCSsAIAAKQkrAAAACkJKwAAQErCCgAAkJKwAgAApCSsAAAAKQkrAABASsIKAACQkrACAACkJKwAAAApCSsAAEBKwgoAAJCSsAIAAKQkrAAAACkJKwAAQErCCgAAkJKwAgAApCSsAAAAKQkrAPn96R4BUCNhBQAASElYAQAAUhJWAACAlIQVAAAgJWEFAABISVgBAABSElYAAICUhBUAACAlYQUAAEhJWAEAAFISVgAAgJSEFQAAICVhBQAASElYAQAAUhJWAACAlIQVAAAgJWEFAABISVgBAABSElYAqMmeuw3QHcIKADXZcbcBukNYAQAAUhJWAACAlIQVAAAgJWEFAABISVgBAABSElYAAICUhBUAACAlYQUAAEhJWAEAAFISVgAAgJSEFQAAICVhBQAASElYAQAAUhJWAACAlIQVAAAgJWEFIL+f3aPW/Kcn7wOgCsIKADXZdbcBukNYAchvzz1qjbAC0CHCCkB+O9PxcMd9aoWwAtAhwgpAN6iurGg6Hu53+g0AVEhYAegGX7RXJ/ABdIywAtANP7lPK3MNATpGWAHoBpWV1bmGAB0jrAB0Qxmy18b0QnHtDNcDdIywAtAdv7pXL+baAXSQsALQHYfu1Yu5dgAdJKwAdMeu9bvL0wIG0F3CCkC3aGda3m9de8EA/E1YAeiWt9PxUJVgQXHy/9tOvFgAfiCsAHSPSsHi3nXlhQLwI2EFoHveRsWAJ8Q1EuwAOkxYAeie8iX8xH171ru4VgB0lLAC0E1vHRL5uJjreZ/19QGwGGEFoLtUVx53mvWFAbA4YQWgu/an46EB8num42E5ANJ5NAA9IKwAdNt7q4z/EddCVQWgJ4QVgG4rA+Rf3MNvTg3VA/SHsALQfXvT8bD6asJ0PDzR/gXQL8IKQD+U7WDVntQe7938DkDPCCsA/XFaY2CZjof75lQA+klYAeiXk5rOX4n3amYHoKeEFYB+KcPlF1Ft6LUIKhcG6gH6S1gB6J9ZYOltS1i8N0EFoOeEFYD+Ou3joZERVKwoBqjAv91kgF4rMyw/NU1zPBhNbrv8RqfjYQknZT1xtVvPAGqjsgLQf+XL/VWXB+/n5lMEFYCKCCsAddiNwPKha+82XvNVOfwywcsBYIOEFYC6vJ+Oh1+7sC2svMbyWstrTvByANgCYQWgPruxLSzliuMIKRfR9rWb4CUBsCXCCkC99udCy+G2r8K9kNL7c2IAeJ5tYACUYFCCwk3TNL83TXM2GE1uNnFVpuNhqZyUoPSbKgoA9w2iBeDClQFgznXTNH80TXM+GE2u27wwsdmr/O751dA8AE84EFYAeM5thJc/m6a5iT/Xz53bEuei7EXFpPz5Of5vhzkCsIgDbWAAPGdn1io2/9+bjoez/3gdgaaJ/65qCQCtEFYAWJVwAsBa2AYGAACkJKwAAAApCSsAAEBKwgoAAJCSsAIAAKQkrAAAACkJKwAAQErCCgAAkJKwAgAApCSsAAAAKQkrAABASsIKAACQkrACAACkJKwAAAApCSsAAEBKwgoAAJCSsAIAAKQkrAAAACkJKwAAQErCCgAAkJKwAgAApCSsAAAAKQkrAABASsIKAACQkrACAACkJKwAAAApCSsAAEBKwgoAAJCSsAIAAKQkrAAAACkJKwAAQErCCgAAkJKwAgAApCSsAAAAKQkrAABASsIKAACQkrACAACkJKwAAAApCSsAAEBKwgoAAJCSsAIAAKQkrAAAACkJKwAAQErCCgAAkJKwAgAApCSsAAAAKQkrAABASsIKAACQkrACAACkJKwAAAApCSsAAEBKwgoAAJCSsAIAAKQkrAAAACkJKwAAQErCCgAAkJKwAgAApCSsAAAAKf3bbQEqczn3dv+c+8//aZpmN/7z7tx/BgC2RFgB+uo2gkkJJNflz2A0uV3mvU7Hw70ILeWvPzdNs++nhZaUn8mbpmn+iv9cfjZvB6PJ9f2/ffwc7sSfvQjWe/EHoNcG0/Gw/PK9cJuBHihf9H4vIeWhL31tmI6Hh03T/NI0zWF8eYRFlGByHuH5ctng/Jj4Hf5LBGnhBeibA2EF6Lrype+shJR1BZTHRHD5NYIL3HcT4flsMJrcbODnsVQB38bPpDZGoA+EFaCzype/j+VpdVtPqV8qviS+jy+KUNoPPw9Gk/Mt/kzux8+k1kWgy4QVoHNKMDkejCZn2V640FK9Ek4+brrC9xQ/k0DHCStAp5RKyqdtV1KeE18QTz3VrsZlhJTLrG9YpQXoKGEF6ITyJfBoE33/bYqZllOD+L11GyHlU1fe4HQ8fBuhxUwL0AUHDoUEMru5e6oymhx0LagUMbPw+t7ZLvRDuaevuxRUmr9/Js/iZ/JjhC2A1FRWgIw698T6OdPx8EM80ab7jvvwsxntiie22QGJqawA6ZQnv6/6FFSav59ol7By5Gl2p91Gpa8XP5ulWjkYTd6U9xRnFAGkI6wAWczaao6yD9C/VLTgHAgsnXQdQaV3LX3lPQ1Gk9fCNJCRsAJs200Mzx9kWvm6LvEeBZZumQWVXv98Rph+FfMsACkIK8A2fYxqSrozU9ZJYOmUWVCp4l6V9xkti68shgAyEFaAbTiPuZQPtXwJvG8usJBXVUFlXsyzHMTPaOc28QH9IawAmzT78vemi6uI2xaB5ahf76o3bqM9serqV8yzlCrLsUogsA3CCrAJt7Hu9XUfB5RXES1wvdp81hNvapihWlRsQHvlZxXYNGEFWLdPfVxF3KbBaHJsPiCVY6H6RzHPcuygU2CThBVgXWariI9rb6VZkLWxOVwK1k8rFaeYZ3ljngVYN2EFaNtNtNBUsYq4LTHDY2Xsdt3GF3AWMBhNzmOe5aOgDayLsAK0pXxZ+Vi+vJQvMa7q8uKJvvaa7VEFfIFYdVxaw6paQQ5shrACtOEsWr4+uJorO+746++qy9rO+2lTrDo+ilXHAjfQGmEFWMVsFfGRVcTtiNY5X5o3TwteC2LV8UHMYPlMAFYmrAAvMTuDwiri9fDFebPO/By3K6pUr/0sA6sSVoBlzVYRe/q/JlGlcn03xxfqNYhVxx/ifBZzbMCLCCvAoi4jpBhC3gxfoDfjXAvjesU8y5uYZ7EhEFiKsAI85ybmUg58qducuNaeRq/f576/wSxinuW1M4WAZQgrwGPmVxHr59+O32t80xt042d786KF9FW0lAI8SVgBHnIWLV9WEW9RnFfjCfT6qKpsScyzHEdoERiBRwkrwLzLuVXEviTnoBVsfVzbLYt5loOYZ9FmCvxAWAGa+JJwFHMpnnLm8kftF2BNrs1g5RHzLK/iUFQPSoBvhBXgY5w+b1VuTsLjegiBCQ1Gk0/RGubzCLgjrEC9zmdzKVq+8op7I7C0zzVNKuZZjuJQSfcJKiesQH1mq4jfaIPpDGdTtEy7Y36D0eQ65lnemGeBegkrUI/yhP7YKuJO+rP2C9AyP/8dElvxXkfLqiowVEZYgTrMVhE716CbPFVul0pVx0Rr2IcILeZZoCLCCvTbZQzPW0XcYaUdpvZr0LL/36t3U5FYdXwUq45VyKACwgr0U3kS/yZWEfui2w+qK+3xJbfjYtVxCSxHWsOg34QV6JfbuVXEDrzrF2EF7omV66/icw/oIWEF+uM8QopVxPAECyb6ZW6e5VV8DgI9IqxA911bRQzULuZZ3sQ8i/ZX6AlhBbprtor4tSfFVRBEYQExz1K2hh2bZ4HuE1agmz5ZRVwdX7pgCfH5+Co+L4GOElagWy4jpBybS6nOXu0XAJYV8yzHEVpUoKGDhBXohvlVxNqBAJYQ8ywHMc/iMxQ6RFiB3O5WEQ9Gk1dWEQOsJuZZZquOVaehA4QVyOtstorYPaJpml0XoR3T8XC/D++Dl5tbdXzmMkJuwgrkcxmriI+0fDFHWIEWxTxLOQH/tXkWyEtYgTxKS8JRzKX4xck30/FQUGmXZQV8MxhNrmOe5cg8C+QjrEAOH2PLl5YEHiKstOs/fXoztCM+f1+bZ4FchBXYrtkq4g9WEfMEMxbtUlnhQdEa9iFCi4dHkICwAttxE3MpVhGziJ9dpVYJfzwpVh0fxarja1cLtkdYgc2aX0VsLoVFqQS0bDoeuqY8K1Ydv455FtVv2AJhBTbnbNby5ZqzqFizu+OCtU51hYXFPMvsfBZgg4QVWL/LOC/lyFwKL/CLi7YWritLmZtnKaHFIb2wIcIKrM/N3CpiPc+81KErtxb70/FQxYqlxTzLm5hnMXMIayaswHp8jGqKbTK8WMxVWFu8PoIgLxbzLKXKcmyeBdZHWIF2nVtFTIt+czHXyvVlZYPR5FO0hn1yNaF9wgq04zpWEb+xipg2RIuSJ//rtWcrGG2IeZbjOJ/FpkdokbACqynVk+Oy2tIqYlr2zhawjVBdoTVlPrHMKTZN88Y8C7RDWIGX+xQtX0r/tCqqKr5Eb8bb6XhoLohWDUaT85hn+WieBVYjrMDyZquIj82lsCaqKpv1vqY3y+bMrTq2bAVeaBAHjl24gPCsm2j5sl+ftYmqyldhZeNemTdjneL71nsHksJSDlRW4Hm3c6uIBRXW7b2gshUnFb5nNihWHZd5liPzLLA4YQWedhYhxSpi1i6evL5zpbfiMK4/rFWcv/XaPAssRliBh81WER9pDWGDPN3frlOn2rMJser4Q4QWFXt4grAC3ytPuY6sImbTpuNhCSrO/NiuXcP2bFJ5GFbO5yoPx+IhGXCPsAL/mK0itrWFjZqOh4fav9J4F/cDNibmWV7HPIvWMJgjrMDfq4hfWUXMNsQJ6qcufiqnTrZnG+Jh2ex8FqheI6xQuTKL8qZsZzGXwjbEfMQX27/S2TG/wrbMzbO8iodpUDVhhRrdrSIupwtbRcy2xBfhi5iTIJ9SWbkQWNiWmGc5iHkWD9SolrBCbc6i5euDO8+2zAUVrUa5CSxsXcyzlCrLsXkWaiSsUIvLuVXEPuzZGkGlcwQWUhiMJp+iNcwSGKoirNB3s1XEB1YRs20xtC2odI/AQgoxz3IU57P4nUYVhBX67KNVxGQRp6MLKt01CyzuH1s3GE2uY57ljXkW+k5YoY/OZ3MpWr7IYDoefoig4sl8t80Ci3NYSKEsiYl5lo/mWeirwdzTPui6m2j5Uhonhel4uBtnqOy7I73zKbYK+oJICvF5875pmrfuCD1yoLJCH5QvC8exilhQIYWoplwJKr31rtzfeOAHWxerjo9i1bHfhfSGygpddxZBxdNNUojP1FPnp1TlLKosZgdIYzoevo1Ki88iuuxAWKGrLiOkXLuDZKDlq3rlgcnn0h7m4QlZxAa7dxFaoIuEFTrnJp5g2vBFCvFl4H18IYCbeJByXv2VII14mHLSNI3lEHSNmRU64za2nbwWVMgi2iy+CirMKV8Kv0zHQ2uOSSPmWd7EPIuOBDpFZYUuOI8nlfrBSSE+N0+cmcICzNWRTjxoObFOnQ5QWSG167texdHkjaBCBqWVYjoenjrckSXcVd9iOxykEB0Kr2IFN6SmskJGtzGX4kOUFOaGVH/zJJIVOAuKdCwHITmVFdL5FKfPCyqkEKeVX8UQvaDCKnbjBPyL+IIIWxfzLAcxz6KLgXRUVsjiMp44+qAkhRiOPvG0kTVyCj7pRMuiKjJZqKywdSWclJmUA0GFDErL13Q8PHH6PBvwLuZZ3rrYZDEYTT7EPIvNm6QgrLAts7mUV84jIIvpePjOKmI2rDy9Pp2Oh1fR6QBbV6p9g9HkqBwXEJ0PsDXawNiGswgqKimkYBUxiVjVTjoxu3cSc1ewSU6wZ6Ou45ewpzSk4FRnEiuH4H4yz0IWtiKyJcIKG3EbIUX/KynM/dJ9746Q2E1UoX12kkY85HkfZwjBuhmwZ+0+xipiv2xJIYaZrwQVOmA35lkuzLOQRaw6PopVxzolWDuVFdbFKmJSsYqYHjDvRzrxAOhEaxhrorJC627u+gutIiaJWEV8ahUxPXBXFYxzMCCF6Jx4FZ0U0DqVFdpS5lI+x352SCFWETt5nj66iVlAq99Jw9IS1sCAPa04i1+attaQQnyunVqzSQUu4/P32s0mC+vgaZGwwkqsIiaVeKp3qt2LCnloRDqq27TAzAovVoY8XwsqZBBzKR/i9HlBhRqVeZav8eUQUhiMJp/iFHyVP15MWGFZtzFAbzaFFGITzVeriOHu6fXJdDz8atUxWcSq49cG8HkpYYVlXMeZKaopbF35MlbOn4i2Ly0G8I/SDnkR57OY2yKFeMj5Jh56wsKEFRZ1Fm1fPmTYqvLlK1YRX2j5giftR2vYh9Iq6VKxbbG97kBgYRnCCos4i9NqYatiLuUq+vOBxbyP0OLfG7YuNteZY2FhwgrPEVTYuul4eFj68G2VgRcr/96cTsfDK/MsbFscGn0gsLAIYYWnCCpsVbR8lXavL85MgVbsxTzLF/MsbFO0lWsJ41nCCo85F1TYllhFfGIVMaxNOWH8yjwL2ySwsAhhhYeUsqygwlbMrSJ2XgSs1060Vl6ZZ2FbYobFdw4eJaxwX3m6cWTrF5sWq4ivrCKGjduNeZYL8yxsQ2wJcw4LDxJWuO8onnLARsRcypdYRbznqsPW7Mc8y6nWMDYtzmFxjhs/EFaYdx5PN2DtYi5ltor40BWHNN7OzmdxS9iwI/Mr3CesMHOrZ5RNKauII6RYRQw53c2zlJXh8e8rrF2sNNYOxneEFWaOzamwbtPxcM8qYuiU8u/pl5hn8e8sazcYTT45f4V5wgrF9WA0OXMlWJdo+TqNaooBXuie/WgNOzHPwgYcu8jMCCs0PhRYp+l4+C5WEVuNCt33LkKL1eKszWA0uTRsz4ywwmV8KECrYhVxCSkn5lKgV8q/zycxz6JSyrqYXeGOsMLn6q8Arbq3iliPO/TXbqw6/mKehbaprjAjrNTtxqpi2jK3ivirVcRQlcPZqmPzLLTMA1WElcr5EKAV0/Hw7dwqYqBO7yO0mE+jFfFA9eQWZDEAAAyGSURBVMbVrJuwUjdVFVYScyml3etUyxcQ8yzlBPwr8yy05HcXsm7CSr3O4/AlWNrcKuILq4iBB+zFPMupeRZW5GiFygkr9fqz9gvAy8zNpWj1AJ5z1yJqnoWXigerDomsmLBSLy1gLGVuFfF7q4iBJezE58aVeRZeyFawigkrdbrRAsaiYhXxhVXEwIp2Y56ltIftuZgs4Q8Xq17CSp08oeBZMZdyEi1f5lKAtuxHleVUaxiLcHh13YSVOplX4UnRqlFCyjtXCliTt7PzWVxgFmBupVLCSp20gPGgmEu5ilXEnngC63Y3z1Lm4aw65hnCSqWElQopp3JfzKXMVhHrJQc2bTdWHV9Ydcwj/uvC1ElYqc9t7ReA70ULxpVVxEAC+9EadmKehXs8aK2UsFIfZVTuTMfDQ6uIgaTeRWgxNweVE1agMmVlaKwi/mIVMZBYeYhSKixX5lnwsLVewkp9tIFVam4V8ZVVxECH7MU8yxfzLPUajCa+v1RKWKnPX7VfgBpFK4VVxECXHc5WHZtngXoIK9Bjc6uIT8ylAD3xPkKLpSBQAWEFeihWEX+xihjoqfLw5TRWHWtrhR4TVurz/2q/AH0WcymzVcSHtV8PoPf2Y57l1DwL9JOwUh9P2XsqWiKurCIGKnT3+WeeBfpHWIGOm1tFfGoVMVCxnXhYU0KLynLPaPerl7BSH19meyJavk6tIgb4Tvk99yXmWXQTQMcJK/URVnpgbhWxbTgAD9uPKsup1rBeEDwrJaxUyJOm7opVxF+tIgZY2NtYdeycqW77T+0XoFbCSp1UVzomVhFfxCpi9w9gOeXhzkl52GP2obM8aK2UsFKnn2u/AF0xt4r4q7kUgJXtxqrjC6uOO8fvwEoJK3XyL3wHxCrir7HdBoD27Edr2Il5lvy0r9dNWKnTng/nvGIuZbaK2H0CWJ93EVosK8nNQ9aKCSv18i9+MnOriC/cH4CNKQ+FysawK/Msaf1S+wWombBSL//iJzI3l+LpHsB27MU8yxfzLHlEJ4gQWTFhpV5O902gnLIcq4jfa/kCSOEwWsM+aJlOwfeVygkr9drRo7s9c6uIv1hFDJDS+zhU0u/K7fqt5jePsFK7X2u/AJsWcyknVhEDdMJuzLNcmGfZvNgCZhNY5YSVuu1bB7g5c6uInaIM0C37Mc9yqjVso1RVEFbwQbBusYr4yipigM57O5tncSvXK5YcaMFDWKF5a+vJesRcypdYRayCBdAP5aHT+7IcpSxJcU/XxoHI3BFWKE5chfbEXEp56nZliwlAb5UHfV9insUDqRapqjBPWKE4NDjYjnjKdmUVMUA19mNr2Il5ltZ4iMo3wgozPhhWUJ6qWUUMULV3Mc9iicoK4uGprgS+EVaY2TMwuLy5VcRXVhEDVK9UVk5insXvhCVFZeq0Uy+atRNWmPde3+3i4umZVcQA3Lcbq44vLLFZynvdCdwnrHCfHfLPiFXEX6N1zrUC4DH7s1XHfrc+LWY+PfzjB8IK9+0pwT7s3ipiT34AWNT7CC02XD0gujp89+BBwgoPOTS/8o+5VcRfDf0B8EI70b1wZZ7lH3NzKipPPEhY4THvPQG6+xB9O7eKGABWtRfzLF9qn2eJoOLgZJ4krPCU01oDy9wq4lMtXwCswWGcz1LzPMupoMJzhBWeU1VgiZavU6uIAdiAnajcX1X6u1ZrNc8SVlhEFYFlbi6l+vY3ADZqN37XXvT9CIG51i+/a1mIsMKiTuPww96ZW0X83oAfAFu0H1WWXh4jEDM6ZlRYirDCMt7FQGAvPkBjFfGFVcQAJPN2dj5LX25MnKNyJaiwLGGFZc0GAjs7z3FvFbG5FAAy2onNnF/ji35nRWfGF90LvISwwkvsxtrFk65VWWL25qtVxAB0RPmd+yXmWTrVBRBt1ldOpmcVwgqreNeVDSZzH5gOngKgi/ajNSz9g8K5bV/mU1jZINp5LlxKVnTZNM3HwWhymelCxlOoE+sRAeiR26ZpPjdN82kwmtxmeVsRosqDzN88GKQlB8IKbSth5ffBaHK2zSsbP9e/CSkA9NgstJwNRpObbb3NeDD4WywGEFJok7DC2pQPzfPyIbqpD9B4olM+KH9VdgagMuUh4R+D0eR8U287Bv9/9WCQNRJW2IjrqLj80XabWByeVX6Gf7HZCwDuqi0lsPxRfve22SYWFZTyu/bnCCiqKKybsMJWXEaA+SsqMNeLfJjGz+pOVE1+ig9MH5QA8Ljr+PPf+P17OxhNrp+7XvEwcCd+1/4Uv3udScamCSukcx1PhWZUSwBgPW7j9+6M37lkc/Bvt4RkzJoAwGbsCChk55wVAAAgJWEFAABISVgBAAAyuhVWAACAdMrmun+1fe4FAABAG1RWAACAbO6OspiFldZONwUAAFjR3RlAs7Dy7EmmAAAAm6SyAgAAZPNnMxdW/nJ7AACATGZh5cZdAQAAkrjbWCysAAAA2dzlk8HsRU3Hw6lbBAAAbNtgNLnLKfPnrKiuAAAA2/bt0Pr5sGJ9MQAAsG3fcsl8WPnTbQEAALbs26ZilRUAACCTb21gg/kXZcgeAADYopvBaPJq9o//173XcenOAAAAW/JdHrkfVv5wVwAAgC35bo5eZQUAAMjiuzwyuP+ipuPh/zZNs+N2AQAAG3Q9GE1ez//j7ldWinN3BAAA2LAfurweCivmVgAAgE37/f4/74c2sEYrGAAAsFnfrSyeeaiy0mgFAwAANujB/PFYWNEKBgAAbMoPLWDNY21gzd+tYF+bptl1ewAAgDX6YQvYzGOVleaxdAMAANCiR3PHU2HlzB0AAADW7NHc8WhYGYwmNwbtAQCANTobjCa3j/3tn6qsFJ/dGQAAYE2ezBuPDtjPGLQHAADW4HIwmhw89bd9rrJSfHRnAACAlj2bM56trDSqKwAAQLseXVc8b5HKSqO6AgAAtGih2fiFKiuN6goAANCOhaoqzRKVlUZ1BQAAaMHxon+LhSsrzd/VlaumafbcIQAA4AWe3QA2b5nKSrNMCgIAAFglTywVVgajyaVT7QEAgBcop9VfL/M/W7ay0kQaevRIfAAAgHtuX9KltXRYGYwmN4uuGgMAACjLugajydIFj6UG7OcZtgcAABaw1FD9vJe0gc0cuTMAAMATblfJDS8OKzEc4+wVAADgMR9jjORFXtwGNqMdDAAAeMCL279mVmkDmzmyHQwAAJizUvvXzMphJdrBHBYJAADMHK3S/jXTRmWlBJazcshLG38vAACg0z4NRpNWDpJvJayEUl1Z6kRKAACgV8qcSmtdV62FlTjk5Y35FQAAqNJN5IHWtFlZmZ1uv9LEPwAA0Dl3hYuXnFL/lFbDSvPPwL0DIwEAoB5HkQNa1XpYaf4ZuLchDAAA+u+orYH6+9YSVpq/A8snG8IAAKDXjqNQsRYrn2D/nOl4eNo0zVs/owAA0Ctng9FkreMfaw8rjcACAAB9s/ag0mwqrDQCCwAA9MVGgkqzybDSCCwAANB1GwsqzToH7B8Sb8zQPQAAdM/xJoNKs+nKysx0PCzVldNt/LMBAIClHa1z69djthJWmn8Cy0nTNDvbeg0AAMCTZifTX27jMm0trDR/B5a9pmkuBBYAAEjnJoJK6yfTL2qrYaX5O7DsRGDZ2/ZrAQAA7lxGULnd5uXYeliZmY6HpSXsXY5XAwAA1fo4GE0+ZHjzacJK83dgOYzBe21hAACwWVudT3nIRlcXP2cwmpw3TfM6yk4AAMBmlO/hrzIFlSZbZWXedDwsLWHvVVkAAGBtbqPt61PGS5w2rDR/B5bdaAvbT/ByAACgTy7j/JSbrO8pdViZcSYLAAC05jZCynn2S5pqZuUxcVrmq6ZpUpanAACgIz7GbEr6oNJ0pbIyT2sYAAAsrYST48wtXw/pXFiZmY6H+zGAL7QAAMDDLmOAvpPbdjsbVmaEFgAA+EGnQ8pM58PKTISW35qmOczxigAAYOPKrPfnwWhy3YdL35uwMhMzLSW0vLU9DACACpTtXp9LUOnaTMpzehdW5sXK41+1iAEA0ENlaP6P2JzbS70OKzNRbTmM4LKX41UBAMDSSnvX7yWo9K2K8pAqwsq8ueDyi4oLAAAdUCoof9YSUOZVF1bmTcfDnQgsP8dfVV0AANi2y6ig/NmVwxvXpeqw8pDYKlb+/NQ0za4AAwDAGl3Hn7/KX7u+arhtwsoCpuPhXmwWm7WN/Rx/3RFmAAB4wnVs62qilauJysltX9YLr5OwsgYxF7PbuzcGAMBjSlXk1tVpUdM0/wepnMc0zFEZrgAAAABJRU5ErkJggg==;container=0;" vertex="1" parent="PHb3LdSxm_V6ggQVDF2g-15">
          <mxGeometry x="121" y="20.560000000000002" width="30.1" height="24.64" as="geometry" />
        </mxCell>
        <mxCell id="RUeICIOoqXqwJl9Cc2NJ-143" value="" style="group" vertex="1" connectable="0" parent="1">
          <mxGeometry x="751.5" y="301.6" width="166" height="118.4" as="geometry" />
        </mxCell>
        <mxCell id="RUeICIOoqXqwJl9Cc2NJ-12" value="k3s server" style="rounded=1;whiteSpace=wrap;html=1;verticalAlign=top;labelPosition=center;verticalLabelPosition=middle;align=center;fontStyle=1" vertex="1" parent="RUeICIOoqXqwJl9Cc2NJ-143">
          <mxGeometry x="16" y="18.4" width="150" height="100" as="geometry" />
        </mxCell>
        <mxCell id="RUeICIOoqXqwJl9Cc2NJ-3" value="control plane" style="sketch=0;html=1;dashed=0;whitespace=wrap;fillColor=#2875E2;strokeColor=#ffffff;points=[[0.005,0.63,0],[0.1,0.2,0],[0.9,0.2,0],[0.5,0,0],[0.995,0.63,0],[0.72,0.99,0],[0.5,1,0],[0.28,0.99,0]];verticalLabelPosition=bottom;align=center;verticalAlign=top;shape=mxgraph.kubernetes.icon;prIcon=master" vertex="1" parent="RUeICIOoqXqwJl9Cc2NJ-143">
          <mxGeometry x="40" y="44.4" width="50" height="48" as="geometry" />
        </mxCell>
        <mxCell id="RUeICIOoqXqwJl9Cc2NJ-10" value="etcd" style="sketch=0;html=1;dashed=0;whitespace=wrap;fillColor=#2875E2;strokeColor=#ffffff;points=[[0.005,0.63,0],[0.1,0.2,0],[0.9,0.2,0],[0.5,0,0],[0.995,0.63,0],[0.72,0.99,0],[0.5,1,0],[0.28,0.99,0]];verticalLabelPosition=bottom;align=center;verticalAlign=top;shape=mxgraph.kubernetes.icon;prIcon=etcd" vertex="1" parent="RUeICIOoqXqwJl9Cc2NJ-143">
          <mxGeometry x="105" y="44.4" width="50" height="48" as="geometry" />
        </mxCell>
        <mxCell id="RUeICIOoqXqwJl9Cc2NJ-13" value="" style="image;sketch=0;aspect=fixed;html=1;points=[];align=center;fontSize=12;image=img/lib/mscae/Kubernetes.svg;" vertex="1" parent="RUeICIOoqXqwJl9Cc2NJ-143">
          <mxGeometry width="40" height="38.4" as="geometry" />
        </mxCell>
        <mxCell id="PHb3LdSxm_V6ggQVDF2g-20" value="" style="shape=image;verticalLabelPosition=bottom;labelBackgroundColor=default;verticalAlign=top;aspect=fixed;imageAspect=0;image=data:image/png,iVBORw0KGgoAAAANSUhEUgAAAysAAAKYCAYAAABzfmczAAAACXBIWXMAAC4jAAAuIwF4pT92AAAgAElEQVR4nO3dTXIbV5Y24ERFzT/2HBFFrcDUFBOTKzC1AosrsLgCSSugtALSKxC9AtITTEmvQKwIzJvfCtBx6QMZovgDEAngZN7niVC4uqPKBjJpEG+enztoWMh0PNxrmmanaZr9+O//FP93E3/dcyUBAAiXcxfipmma/879/28Ho8m1C/U8YeWe6Xi4G8Gj/Pm5aZrd+AMAAG0qIaaElr/ir9eD0eTGFf5H9WElKib7EUz2BBMAALboJqovf5a/1h5eqgwr0/HwsGmaXyKkCCcAAGRVwsp5CS+D0eS8trtUTViZjodvI6AcJng5AACwrNsILn/UElx6HVam42GpnPwaAWVngf8JAAB0wSy4fO7zsH7vwsp0PNyJcPJeixcAABUoYeVzCS+D0eS2T2+3N2Eltnj91jTNW1UUAAAqdBuh5VNfQkvnw0qElPcRUgAAgKY5a5rmY9e3iXU2rAgpAADwrE6Hls6FlZhJORFSAABgYR+72B7WqbAyHQ8/xFyKmRQAAFhOCSrHg9HkrCvXrRNhJVYQn9ruBQAAK7uO0HKZ/VKmDitavgAAYG0+xTxL2tawtGFlOh4eRjVFyxcAAKxHGbw/ylplSRdWVFMAAGDjUlZZUoWV6Xi41zTNF7MpAACwcddRZbnOcun/leA13JmOh++aprkSVAAAYCtK4eBiOh6m6XDaemVF2xcAAKRzNhhNjrb9orYaVuIU+i+R4gAAgDxKO9jBNudYthZWYj7lwrYvAABIq2wLe7OtOZatzKxEH5ygAgAAue3GHMv+Nl7lxisrEVRON/3PBQAAVlI2hZ1t8hJutLISG78EFQAA6J7TTW8K21hlZToentr4BQAAnbexCstGwoqgAgAAvbKRwLL2NrDpePhBUAEAgF7ZSEvYWisrhukBAKDX1lphWVtYEVQAAKAK5RyW83W80bWEldjDfLGOvzcAAJDKbZx03/rBka2HFSfTAwBAdUpgeTUYTW7bfOOtDthPx8MSUL4IKgAAUJWdOOm+1RzQ9jawL3EkPwAAUJfSYXXS5jtuLazEiuL9tv5+AABA57ydjofv2nrRrcysTMfDw6iqAAAAvG5j4H7lsBJ9aV/NqQAAAOEmAstKA/dttIEZqAcAAObttnHm4kphJfrRzKkAAAD3Hca4yIu9uA1sOh6WtHSlqgIAADxipfNXVqmsnAoqAADAE3ZWaQd7UVjR/gUAACzoxe1gS7eB2f4FAAAs6UXbwV5SWTkRVAAAgCWUefelD4tcqrIyHQ/3YqgeAABgWWXY/mbR/82ylZUTtwMAAHihpfLEwpWV6XhYBuov3BUAAGAFB4PR5HKR//kylZWVT6AEAACq937RC7BQWJmOh29jKAYAAGAV+9G19axFKysLpx8AAIA28sWzYSUOcFFVAQAA2rJQdWWRyspvbgkAANCyZ3PGk9vAbAADAADW6MlzV56rrPzqzgAAAGvyZHXl0crKdDzcaZrmf90VAABgTW6junL70N/+qcrKW3cEAABYo1IgOXzsb/9UWDFYDwAArNujoycPtoFNx8O9pmmu3BYAAGADHhy0f6yyYrAeAADYlAdHUB4LK+ZVAACATXmwWPJDWImzVXbcFgAAYEN2YxTlOw9VVn5xRwAAgA3bv/+PeyisPLo6DAAAYE1+aAX7bhuYLWAAAMAW/c/8AZH3Kys/lF4AAAA25Lsur/th5Wd3AQAA2JLv8ojKCgAAkMV3eeRbWIl5FSuLAQCAbSkrjHdn/+z5yoqqCgAAsG3fzluZDys/uS0AAMCWPRhWfjgxEgAAYMO+DdkLKwAAQCbfV1ZiuB4AAGDbdqbj4U4zV1nZdUsAAIAk7oops7CisgIAAGTxXVj5j9sCAAAkoQ0MAABI6W4jmLACAACkJKwAAADZfDezAgAAkMXfMyvOWAEAADL61yy1AAAAZDEdD3f/7W4AsILLJ/6nu2YiAViBsALAQkoouW6a5q+maW4Go8lTIeU70/FwJwYly5+fmqbZF2IAWISwAsBDbpqmOW+a5s/BaHK+yhUajCa3EXa+BZxS2o/Q8kvTNIfuAAAPGUzHw/LL4sLVAaBpmrOmaX5fpnKyqqi8lMDy22xVJQA0TXMgrABQKh+fm6b5FFWQrYnfSb+ptgBQwoo2MIB6pQkpM1HRuYw2sdNoFQOgUsIKQJ1Ku9dxlpBy32A0KTMzB1FpOTWQD1AnJ9gD1OUuBAxGk6OsQWVeqbQMRpNXTdN8zPOqANgUYQWgHqWa8nqTw/NtGYwmH8prj/XJAFRCWAHov1JBOepKNeUxg9GkBJWDCF0AVMDMCkC/3UbbVy8qEhG2jqbjYTmc8iTBSwJgjVRWAPqrBJRXfQkq8wajyacSWvK8IgDWQVgB6KfrqKh0tu3rOYPR5ExgAeg3YQWgf3ofVGYEFoB+E1YA+qWaoDIjsAD0l7AC0B+zrV/VBJWZCCzHOV4NAG0RVgD6400fh+kXFUP31hoD9IiwAtAPH7t42OMaHDs4EqA/hBWA7ruME96rNzuHpfbrANAXwgpAt/lyfk+0wn1M9aIAeBFhBaDbPg9Gkxv38HtRadIOBtBxwgpAd91o/3qS7WAAHSesAHSX9q8nxMKB87QvEIBnCSsA3XRp+9dCVFcAOkxYAegmA+QLiHkeZ68AdJSwAtA916oqS/ncodcKwBxhBaB7fPleQqwyFu4AOkhYAeiWW0PjL/J7B18zQPWEFYBuOY9T2lmOgAfQQcIKQLf84X4tLwKewALQMcIKQHfcDkYTX7hfTtAD6BhhBaA7DImvRtAD6BhhBaA7/nSvXi5awa67+voBaiSsAHSHL9qrU50C6BBhBaAjHATZir968B4AqiGsAHSDqko7bvrwJgBqIawAdIMv2S1QnQLoFmEFoBu0LwFQHWEFgNqorgB0hLAC0A1mVgCojrAC0A237hMAtRFWAACAlIQVAAAgJWEFAABISVgBAABSElYAAICUhBUAACAlYQUAAEhJWAEAAFISVgAAgJSEFQAAICVhBQAASElYAQAAUhJWAACAlIQVAAAgJWEFAABISVgBAABSElYAAICUhBUAACAlYQUAAEhJWAEAAFISVgAAgJSEFQAAICVhBQAASElYAQAAUhJWAACAlIQVAAAgJWEFAABISVgBAABSElYAAICUhBUAACAlYQUAAEhJWAEAAFISVgAAgJSEFYAOGIwml+4TALURVgAAgJSEFQAAICVhBQAASElYAQAAUhJWAACAlIQVAAAgJWEFAABISVgBAABSElYAAICUhBUAACAlYQUAAEhJWAEAAFISVgAAgJSEFQAAICVhBQAASElYAQAAUhJWAACAlIQVAAAgJWEFgNrsueMA3SCsAFCbHXccoBuEFQAAICVhBQAASElYAQAAUhJWAACAlIQVAAAgJWEFAABISVgBAABSElYAAICUhBUAACAlYQUAAEhJWAEAAFISVgAAgJSEFQAAICVhBQAASElYAQAAUhJWAACAlIQVAAAgJWEFAABISVgBAABSElYAAICUhBUAACAlYQUAAEhJWAEAAFISVgAAgJSEFQAAICVhBQAASElYAQAAUhJWAACAlIQVAAAgJWEFAABISVgBAABSElYAAICUhBUAACAlYQUAAEhJWAEAAFISVgAAgJSEFYD8btwjAGokrADkJ6wAUCVhBQAASElYAQAAUhJWAACAlIQVAAAgJWEFAABISVgBAABSElYAAICUhBUAACAlYQUAAEhJWAEAAFISVgAAgJSEFQAAICVhBQAASElYAQAAUhJWAACAlIQVAAAgJWEFAABISVgBoBrT8XDH3QboDmEFgJrsudsA3SGsAAAAKQkrAABASsIKAACQkrACAACkJKwAAAApCSsAAEBKwgoAAJCSsAIAAKQkrAAAACkJKwAAQErCCgAAkJKwAgAApCSsAAAAKQkrAABASsIKAACQkrACAACkJKwAAAApCSsAAEBKwgoAAJCSsAIAAKQkrAAAACkJKwAAQErCCgAAkJKwAgAApCSsAAAAKQkrAABASsIKAACQkrACAACkJKwAAAApCSsAAEBKwgoAAJCSsAIAAKQkrAAAACkJKwAAQErCCgAAkJKwAgAApCSsAAAAKQkrAPn96R4BUCNhBQAASElYAQAAUhJWAACAlIQVAAAgJWEFAABISVgBAABSElYAAICUhBUAACAlYQUAAEhJWAEAAFISVgAAgJSEFQAAICVhBQAASElYAQAAUhJWAACAlIQVAAAgJWEFAABISVgBAABSElYAqMmeuw3QHcIKADXZcbcBukNYAQAAUhJWAACAlIQVAAAgJWEFAABISVgBAABSElYAAICUhBUAACAlYQUAAEhJWAEAAFISVgAAgJSEFQAAICVhBQAASElYAQAAUhJWAACAlIQVAAAgJWEFIL+f3aPW/Kcn7wOgCsIKADXZdbcBukNYAchvzz1qjbAC0CHCCkB+O9PxcMd9aoWwAtAhwgpAN6iurGg6Hu53+g0AVEhYAegGX7RXJ/ABdIywAtANP7lPK3MNATpGWAHoBpWV1bmGAB0jrAB0Qxmy18b0QnHtDNcDdIywAtAdv7pXL+baAXSQsALQHYfu1Yu5dgAdJKwAdMeu9bvL0wIG0F3CCkC3aGda3m9de8EA/E1YAeiWt9PxUJVgQXHy/9tOvFgAfiCsAHSPSsHi3nXlhQLwI2EFoHveRsWAJ8Q1EuwAOkxYAeie8iX8xH171ru4VgB0lLAC0E1vHRL5uJjreZ/19QGwGGEFoLtUVx53mvWFAbA4YQWgu/an46EB8num42E5ANJ5NAA9IKwAdNt7q4z/EddCVQWgJ4QVgG4rA+Rf3MNvTg3VA/SHsALQfXvT8bD6asJ0PDzR/gXQL8IKQD+U7WDVntQe7938DkDPCCsA/XFaY2CZjof75lQA+klYAeiXk5rOX4n3amYHoKeEFYB+KcPlF1Ft6LUIKhcG6gH6S1gB6J9ZYOltS1i8N0EFoOeEFYD+Ou3joZERVKwoBqjAv91kgF4rMyw/NU1zPBhNbrv8RqfjYQknZT1xtVvPAGqjsgLQf+XL/VWXB+/n5lMEFYCKCCsAddiNwPKha+82XvNVOfwywcsBYIOEFYC6vJ+Oh1+7sC2svMbyWstrTvByANgCYQWgPruxLSzliuMIKRfR9rWb4CUBsCXCCkC99udCy+G2r8K9kNL7c2IAeJ5tYACUYFCCwk3TNL83TXM2GE1uNnFVpuNhqZyUoPSbKgoA9w2iBeDClQFgznXTNH80TXM+GE2u27wwsdmr/O751dA8AE84EFYAeM5thJc/m6a5iT/Xz53bEuei7EXFpPz5Of5vhzkCsIgDbWAAPGdn1io2/9+bjoez/3gdgaaJ/65qCQCtEFYAWJVwAsBa2AYGAACkJKwAAAApCSsAAEBKwgoAAJCSsAIAAKQkrAAAACkJKwAAQErCCgAAkJKwAgAApCSsAAAAKQkrAABASsIKAACQkrACAACkJKwAAAApCSsAAEBKwgoAAJCSsAIAAKQkrAAAACkJKwAAQErCCgAAkJKwAgAApCSsAAAAKQkrAABASsIKAACQkrACAACkJKwAAAApCSsAAEBKwgoAAJCSsAIAAKQkrAAAACkJKwAAQErCCgAAkJKwAgAApCSsAAAAKQkrAABASsIKAACQkrACAACkJKwAAAApCSsAAEBKwgoAAJCSsAIAAKQkrAAAACkJKwAAQErCCgAAkJKwAgAApCSsAAAAKQkrAABASsIKAACQkrACAACkJKwAAAApCSsAAEBKwgoAAJCSsAIAAKQkrAAAACkJKwAAQErCCgAAkJKwAgAApCSsAAAAKf3bbQEqczn3dv+c+8//aZpmN/7z7tx/BgC2RFgB+uo2gkkJJNflz2A0uV3mvU7Hw70ILeWvPzdNs++nhZaUn8mbpmn+iv9cfjZvB6PJ9f2/ffwc7sSfvQjWe/EHoNcG0/Gw/PK9cJuBHihf9H4vIeWhL31tmI6Hh03T/NI0zWF8eYRFlGByHuH5ctng/Jj4Hf5LBGnhBeibA2EF6Lrype+shJR1BZTHRHD5NYIL3HcT4flsMJrcbODnsVQB38bPpDZGoA+EFaCzype/j+VpdVtPqV8qviS+jy+KUNoPPw9Gk/Mt/kzux8+k1kWgy4QVoHNKMDkejCZn2V640FK9Ek4+brrC9xQ/k0DHCStAp5RKyqdtV1KeE18QTz3VrsZlhJTLrG9YpQXoKGEF6ITyJfBoE33/bYqZllOD+L11GyHlU1fe4HQ8fBuhxUwL0AUHDoUEMru5e6oymhx0LagUMbPw+t7ZLvRDuaevuxRUmr9/Js/iZ/JjhC2A1FRWgIw698T6OdPx8EM80ab7jvvwsxntiie22QGJqawA6ZQnv6/6FFSav59ol7By5Gl2p91Gpa8XP5ulWjkYTd6U9xRnFAGkI6wAWczaao6yD9C/VLTgHAgsnXQdQaV3LX3lPQ1Gk9fCNJCRsAJs200Mzx9kWvm6LvEeBZZumQWVXv98Rph+FfMsACkIK8A2fYxqSrozU9ZJYOmUWVCp4l6V9xkti68shgAyEFaAbTiPuZQPtXwJvG8usJBXVUFlXsyzHMTPaOc28QH9IawAmzT78vemi6uI2xaB5ahf76o3bqM9serqV8yzlCrLsUogsA3CCrAJt7Hu9XUfB5RXES1wvdp81hNvapihWlRsQHvlZxXYNGEFWLdPfVxF3KbBaHJsPiCVY6H6RzHPcuygU2CThBVgXWariI9rb6VZkLWxOVwK1k8rFaeYZ3ljngVYN2EFaNtNtNBUsYq4LTHDY2Xsdt3GF3AWMBhNzmOe5aOgDayLsAK0pXxZ+Vi+vJQvMa7q8uKJvvaa7VEFfIFYdVxaw6paQQ5shrACtOEsWr4+uJorO+746++qy9rO+2lTrDo+ilXHAjfQGmEFWMVsFfGRVcTtiNY5X5o3TwteC2LV8UHMYPlMAFYmrAAvMTuDwiri9fDFebPO/By3K6pUr/0sA6sSVoBlzVYRe/q/JlGlcn03xxfqNYhVxx/ifBZzbMCLCCvAoi4jpBhC3gxfoDfjXAvjesU8y5uYZ7EhEFiKsAI85ybmUg58qducuNaeRq/f576/wSxinuW1M4WAZQgrwGPmVxHr59+O32t80xt042d786KF9FW0lAI8SVgBHnIWLV9WEW9RnFfjCfT6qKpsScyzHEdoERiBRwkrwLzLuVXEviTnoBVsfVzbLYt5loOYZ9FmCvxAWAGa+JJwFHMpnnLm8kftF2BNrs1g5RHzLK/iUFQPSoBvhBXgY5w+b1VuTsLjegiBCQ1Gk0/RGubzCLgjrEC9zmdzKVq+8op7I7C0zzVNKuZZjuJQSfcJKiesQH1mq4jfaIPpDGdTtEy7Y36D0eQ65lnemGeBegkrUI/yhP7YKuJO+rP2C9AyP/8dElvxXkfLqiowVEZYgTrMVhE716CbPFVul0pVx0Rr2IcILeZZoCLCCvTbZQzPW0XcYaUdpvZr0LL/36t3U5FYdXwUq45VyKACwgr0U3kS/yZWEfui2w+qK+3xJbfjYtVxCSxHWsOg34QV6JfbuVXEDrzrF2EF7omV66/icw/oIWEF+uM8QopVxPAECyb6ZW6e5VV8DgI9IqxA911bRQzULuZZ3sQ8i/ZX6AlhBbprtor4tSfFVRBEYQExz1K2hh2bZ4HuE1agmz5ZRVwdX7pgCfH5+Co+L4GOElagWy4jpBybS6nOXu0XAJYV8yzHEVpUoKGDhBXohvlVxNqBAJYQ8ywHMc/iMxQ6RFiB3O5WEQ9Gk1dWEQOsJuZZZquOVaehA4QVyOtstorYPaJpml0XoR3T8XC/D++Dl5tbdXzmMkJuwgrkcxmriI+0fDFHWIEWxTxLOQH/tXkWyEtYgTxKS8JRzKX4xck30/FQUGmXZQV8MxhNrmOe5cg8C+QjrEAOH2PLl5YEHiKstOs/fXoztCM+f1+bZ4FchBXYrtkq4g9WEfMEMxbtUlnhQdEa9iFCi4dHkICwAttxE3MpVhGziJ9dpVYJfzwpVh0fxarja1cLtkdYgc2aX0VsLoVFqQS0bDoeuqY8K1Ydv455FtVv2AJhBTbnbNby5ZqzqFizu+OCtU51hYXFPMvsfBZgg4QVWL/LOC/lyFwKL/CLi7YWritLmZtnKaHFIb2wIcIKrM/N3CpiPc+81KErtxb70/FQxYqlxTzLm5hnMXMIayaswHp8jGqKbTK8WMxVWFu8PoIgLxbzLKXKcmyeBdZHWIF2nVtFTIt+czHXyvVlZYPR5FO0hn1yNaF9wgq04zpWEb+xipg2RIuSJ//rtWcrGG2IeZbjOJ/FpkdokbACqynVk+Oy2tIqYlr2zhawjVBdoTVlPrHMKTZN88Y8C7RDWIGX+xQtX0r/tCqqKr5Eb8bb6XhoLohWDUaT85hn+WieBVYjrMDyZquIj82lsCaqKpv1vqY3y+bMrTq2bAVeaBAHjl24gPCsm2j5sl+ftYmqyldhZeNemTdjneL71nsHksJSDlRW4Hm3c6uIBRXW7b2gshUnFb5nNihWHZd5liPzLLA4YQWedhYhxSpi1i6evL5zpbfiMK4/rFWcv/XaPAssRliBh81WER9pDWGDPN3frlOn2rMJser4Q4QWFXt4grAC3ytPuY6sImbTpuNhCSrO/NiuXcP2bFJ5GFbO5yoPx+IhGXCPsAL/mK0itrWFjZqOh4fav9J4F/cDNibmWV7HPIvWMJgjrMDfq4hfWUXMNsQJ6qcufiqnTrZnG+Jh2ex8FqheI6xQuTKL8qZsZzGXwjbEfMQX27/S2TG/wrbMzbO8iodpUDVhhRrdrSIupwtbRcy2xBfhi5iTIJ9SWbkQWNiWmGc5iHkWD9SolrBCbc6i5euDO8+2zAUVrUa5CSxsXcyzlCrLsXkWaiSsUIvLuVXEPuzZGkGlcwQWUhiMJp+iNcwSGKoirNB3s1XEB1YRs20xtC2odI/AQgoxz3IU57P4nUYVhBX67KNVxGQRp6MLKt01CyzuH1s3GE2uY57ljXkW+k5YoY/OZ3MpWr7IYDoefoig4sl8t80Ci3NYSKEsiYl5lo/mWeirwdzTPui6m2j5Uhonhel4uBtnqOy7I73zKbYK+oJICvF5875pmrfuCD1yoLJCH5QvC8exilhQIYWoplwJKr31rtzfeOAHWxerjo9i1bHfhfSGygpddxZBxdNNUojP1FPnp1TlLKosZgdIYzoevo1Ki88iuuxAWKGrLiOkXLuDZKDlq3rlgcnn0h7m4QlZxAa7dxFaoIuEFTrnJp5g2vBFCvFl4H18IYCbeJByXv2VII14mHLSNI3lEHSNmRU64za2nbwWVMgi2iy+CirMKV8Kv0zHQ2uOSSPmWd7EPIuOBDpFZYUuOI8nlfrBSSE+N0+cmcICzNWRTjxoObFOnQ5QWSG167texdHkjaBCBqWVYjoenjrckSXcVd9iOxykEB0Kr2IFN6SmskJGtzGX4kOUFOaGVH/zJJIVOAuKdCwHITmVFdL5FKfPCyqkEKeVX8UQvaDCKnbjBPyL+IIIWxfzLAcxz6KLgXRUVsjiMp44+qAkhRiOPvG0kTVyCj7pRMuiKjJZqKywdSWclJmUA0GFDErL13Q8PHH6PBvwLuZZ3rrYZDEYTT7EPIvNm6QgrLAts7mUV84jIIvpePjOKmI2rDy9Pp2Oh1fR6QBbV6p9g9HkqBwXEJ0PsDXawNiGswgqKimkYBUxiVjVTjoxu3cSc1ewSU6wZ6Ou45ewpzSk4FRnEiuH4H4yz0IWtiKyJcIKG3EbIUX/KynM/dJ9746Q2E1UoX12kkY85HkfZwjBuhmwZ+0+xipiv2xJIYaZrwQVOmA35lkuzLOQRaw6PopVxzolWDuVFdbFKmJSsYqYHjDvRzrxAOhEaxhrorJC627u+gutIiaJWEV8ahUxPXBXFYxzMCCF6Jx4FZ0U0DqVFdpS5lI+x352SCFWETt5nj66iVlAq99Jw9IS1sCAPa04i1+attaQQnyunVqzSQUu4/P32s0mC+vgaZGwwkqsIiaVeKp3qt2LCnloRDqq27TAzAovVoY8XwsqZBBzKR/i9HlBhRqVeZav8eUQUhiMJp/iFHyVP15MWGFZtzFAbzaFFGITzVeriOHu6fXJdDz8atUxWcSq49cG8HkpYYVlXMeZKaopbF35MlbOn4i2Ly0G8I/SDnkR57OY2yKFeMj5Jh56wsKEFRZ1Fm1fPmTYqvLlK1YRX2j5giftR2vYh9Iq6VKxbbG97kBgYRnCCos4i9NqYatiLuUq+vOBxbyP0OLfG7YuNteZY2FhwgrPEVTYuul4eFj68G2VgRcr/96cTsfDK/MsbFscGn0gsLAIYYWnCCpsVbR8lXavL85MgVbsxTzLF/MsbFO0lWsJ41nCCo85F1TYllhFfGIVMaxNOWH8yjwL2ySwsAhhhYeUsqygwlbMrSJ2XgSs1060Vl6ZZ2FbYobFdw4eJaxwX3m6cWTrF5sWq4ivrCKGjduNeZYL8yxsQ2wJcw4LDxJWuO8onnLARsRcypdYRbznqsPW7Mc8y6nWMDYtzmFxjhs/EFaYdx5PN2DtYi5ltor40BWHNN7OzmdxS9iwI/Mr3CesMHOrZ5RNKauII6RYRQw53c2zlJXh8e8rrF2sNNYOxneEFWaOzamwbtPxcM8qYuiU8u/pl5hn8e8sazcYTT45f4V5wgrF9WA0OXMlWJdo+TqNaooBXuie/WgNOzHPwgYcu8jMCCs0PhRYp+l4+C5WEVuNCt33LkKL1eKszWA0uTRsz4ywwmV8KECrYhVxCSkn5lKgV8q/zycxz6JSyrqYXeGOsMLn6q8Arbq3iliPO/TXbqw6/mKehbaprjAjrNTtxqpi2jK3ivirVcRQlcPZqmPzLLTMA1WElcr5EKAV0/Hw7dwqYqBO7yO0mE+jFfFA9eQWZDEAAAyGSURBVMbVrJuwUjdVFVYScyml3etUyxcQ8yzlBPwr8yy05HcXsm7CSr3O4/AlWNrcKuILq4iBB+zFPMupeRZW5GiFygkr9fqz9gvAy8zNpWj1AJ5z1yJqnoWXigerDomsmLBSLy1gLGVuFfF7q4iBJezE58aVeRZeyFawigkrdbrRAsaiYhXxhVXEwIp2Y56ltIftuZgs4Q8Xq17CSp08oeBZMZdyEi1f5lKAtuxHleVUaxiLcHh13YSVOplX4UnRqlFCyjtXCliTt7PzWVxgFmBupVLCSp20gPGgmEu5ilXEnngC63Y3z1Lm4aw65hnCSqWElQopp3JfzKXMVhHrJQc2bTdWHV9Ydcwj/uvC1ElYqc9t7ReA70ULxpVVxEAC+9EadmKehXs8aK2UsFIfZVTuTMfDQ6uIgaTeRWgxNweVE1agMmVlaKwi/mIVMZBYeYhSKixX5lnwsLVewkp9tIFVam4V8ZVVxECH7MU8yxfzLPUajCa+v1RKWKnPX7VfgBpFK4VVxECXHc5WHZtngXoIK9Bjc6uIT8ylAD3xPkKLpSBQAWEFeihWEX+xihjoqfLw5TRWHWtrhR4TVurz/2q/AH0WcymzVcSHtV8PoPf2Y57l1DwL9JOwUh9P2XsqWiKurCIGKnT3+WeeBfpHWIGOm1tFfGoVMVCxnXhYU0KLynLPaPerl7BSH19meyJavk6tIgb4Tvk99yXmWXQTQMcJK/URVnpgbhWxbTgAD9uPKsup1rBeEDwrJaxUyJOm7opVxF+tIgZY2NtYdeycqW77T+0XoFbCSp1UVzomVhFfxCpi9w9gOeXhzkl52GP2obM8aK2UsFKnn2u/AF0xt4r4q7kUgJXtxqrjC6uOO8fvwEoJK3XyL3wHxCrir7HdBoD27Edr2Il5lvy0r9dNWKnTng/nvGIuZbaK2H0CWJ93EVosK8nNQ9aKCSv18i9+MnOriC/cH4CNKQ+FysawK/Msaf1S+wWombBSL//iJzI3l+LpHsB27MU8yxfzLHlEJ4gQWTFhpV5O902gnLIcq4jfa/kCSOEwWsM+aJlOwfeVygkr9drRo7s9c6uIv1hFDJDS+zhU0u/K7fqt5jePsFK7X2u/AJsWcyknVhEDdMJuzLNcmGfZvNgCZhNY5YSVuu1bB7g5c6uInaIM0C37Mc9yqjVso1RVEFbwQbBusYr4yipigM57O5tncSvXK5YcaMFDWKF5a+vJesRcypdYRayCBdAP5aHT+7IcpSxJcU/XxoHI3BFWKE5chfbEXEp56nZliwlAb5UHfV9insUDqRapqjBPWKE4NDjYjnjKdmUVMUA19mNr2Il5ltZ4iMo3wgozPhhWUJ6qWUUMULV3Mc9iicoK4uGprgS+EVaY2TMwuLy5VcRXVhEDVK9UVk5insXvhCVFZeq0Uy+atRNWmPde3+3i4umZVcQA3Lcbq44vLLFZynvdCdwnrHCfHfLPiFXEX6N1zrUC4DH7s1XHfrc+LWY+PfzjB8IK9+0pwT7s3ipiT34AWNT7CC02XD0gujp89+BBwgoPOTS/8o+5VcRfDf0B8EI70b1wZZ7lH3NzKipPPEhY4THvPQG6+xB9O7eKGABWtRfzLF9qn2eJoOLgZJ4krPCU01oDy9wq4lMtXwCswWGcz1LzPMupoMJzhBWeU1VgiZavU6uIAdiAnajcX1X6u1ZrNc8SVlhEFYFlbi6l+vY3ADZqN37XXvT9CIG51i+/a1mIsMKiTuPww96ZW0X83oAfAFu0H1WWXh4jEDM6ZlRYirDCMt7FQGAvPkBjFfGFVcQAJPN2dj5LX25MnKNyJaiwLGGFZc0GAjs7z3FvFbG5FAAy2onNnF/ji35nRWfGF90LvISwwkvsxtrFk65VWWL25qtVxAB0RPmd+yXmWTrVBRBt1ldOpmcVwgqreNeVDSZzH5gOngKgi/ajNSz9g8K5bV/mU1jZINp5LlxKVnTZNM3HwWhymelCxlOoE+sRAeiR26ZpPjdN82kwmtxmeVsRosqDzN88GKQlB8IKbSth5ffBaHK2zSsbP9e/CSkA9NgstJwNRpObbb3NeDD4WywGEFJok7DC2pQPzfPyIbqpD9B4olM+KH9VdgagMuUh4R+D0eR8U287Bv9/9WCQNRJW2IjrqLj80XabWByeVX6Gf7HZCwDuqi0lsPxRfve22SYWFZTyu/bnCCiqKKybsMJWXEaA+SsqMNeLfJjGz+pOVE1+ig9MH5QA8Ljr+PPf+P17OxhNrp+7XvEwcCd+1/4Uv3udScamCSukcx1PhWZUSwBgPW7j9+6M37lkc/Bvt4RkzJoAwGbsCChk55wVAAAgJWEFAABISVgBAAAyuhVWAACAdMrmun+1fe4FAABAG1RWAACAbO6OspiFldZONwUAAFjR3RlAs7Dy7EmmAAAAm6SyAgAAZPNnMxdW/nJ7AACATGZh5cZdAQAAkrjbWCysAAAA2dzlk8HsRU3Hw6lbBAAAbNtgNLnLKfPnrKiuAAAA2/bt0Pr5sGJ9MQAAsG3fcsl8WPnTbQEAALbs26ZilRUAACCTb21gg/kXZcgeAADYopvBaPJq9o//173XcenOAAAAW/JdHrkfVv5wVwAAgC35bo5eZQUAAMjiuzwyuP+ipuPh/zZNs+N2AQAAG3Q9GE1ez//j7ldWinN3BAAA2LAfurweCivmVgAAgE37/f4/74c2sEYrGAAAsFnfrSyeeaiy0mgFAwAANujB/PFYWNEKBgAAbMoPLWDNY21gzd+tYF+bptl1ewAAgDX6YQvYzGOVleaxdAMAANCiR3PHU2HlzB0AAADW7NHc8WhYGYwmNwbtAQCANTobjCa3j/3tn6qsFJ/dGQAAYE2ezBuPDtjPGLQHAADW4HIwmhw89bd9rrJSfHRnAACAlj2bM56trDSqKwAAQLseXVc8b5HKSqO6AgAAtGih2fiFKiuN6goAANCOhaoqzRKVlUZ1BQAAaMHxon+LhSsrzd/VlaumafbcIQAA4AWe3QA2b5nKSrNMCgIAAFglTywVVgajyaVT7QEAgBcop9VfL/M/W7ay0kQaevRIfAAAgHtuX9KltXRYGYwmN4uuGgMAACjLugajydIFj6UG7OcZtgcAABaw1FD9vJe0gc0cuTMAAMATblfJDS8OKzEc4+wVAADgMR9jjORFXtwGNqMdDAAAeMCL279mVmkDmzmyHQwAAJizUvvXzMphJdrBHBYJAADMHK3S/jXTRmWlBJazcshLG38vAACg0z4NRpNWDpJvJayEUl1Z6kRKAACgV8qcSmtdV62FlTjk5Y35FQAAqNJN5IHWtFlZmZ1uv9LEPwAA0Dl3hYuXnFL/lFbDSvPPwL0DIwEAoB5HkQNa1XpYaf4ZuLchDAAA+u+orYH6+9YSVpq/A8snG8IAAKDXjqNQsRYrn2D/nOl4eNo0zVs/owAA0Ctng9FkreMfaw8rjcACAAB9s/ag0mwqrDQCCwAA9MVGgkqzybDSCCwAANB1GwsqzToH7B8Sb8zQPQAAdM/xJoNKs+nKysx0PCzVldNt/LMBAIClHa1z69djthJWmn8Cy0nTNDvbeg0AAMCTZifTX27jMm0trDR/B5a9pmkuBBYAAEjnJoJK6yfTL2qrYaX5O7DsRGDZ2/ZrAQAA7lxGULnd5uXYeliZmY6HpSXsXY5XAwAA1fo4GE0+ZHjzacJK83dgOYzBe21hAACwWVudT3nIRlcXP2cwmpw3TfM6yk4AAMBmlO/hrzIFlSZbZWXedDwsLWHvVVkAAGBtbqPt61PGS5w2rDR/B5bdaAvbT/ByAACgTy7j/JSbrO8pdViZcSYLAAC05jZCynn2S5pqZuUxcVrmq6ZpUpanAACgIz7GbEr6oNJ0pbIyT2sYAAAsrYST48wtXw/pXFiZmY6H+zGAL7QAAMDDLmOAvpPbdjsbVmaEFgAA+EGnQ8pM58PKTISW35qmOczxigAAYOPKrPfnwWhy3YdL35uwMhMzLSW0vLU9DACACpTtXp9LUOnaTMpzehdW5sXK41+1iAEA0ENlaP6P2JzbS70OKzNRbTmM4LKX41UBAMDSSnvX7yWo9K2K8pAqwsq8ueDyi4oLAAAdUCoof9YSUOZVF1bmTcfDnQgsP8dfVV0AANi2y6ig/NmVwxvXpeqw8pDYKlb+/NQ0za4AAwDAGl3Hn7/KX7u+arhtwsoCpuPhXmwWm7WN/Rx/3RFmAAB4wnVs62qilauJysltX9YLr5OwsgYxF7PbuzcGAMBjSlXk1tVpUdM0/wepnMc0zFEZrgAAAABJRU5ErkJggg==;container=0;" vertex="1" parent="RUeICIOoqXqwJl9Cc2NJ-143">
          <mxGeometry x="124.89999999999998" y="19.760000000000048" width="30.1" height="24.64" as="geometry" />
        </mxCell>
        <mxCell id="PHb3LdSxm_V6ggQVDF2g-21" value="" style="group" vertex="1" connectable="0" parent="1">
          <mxGeometry x="750" y="440" width="166" height="118.4" as="geometry" />
        </mxCell>
        <mxCell id="PHb3LdSxm_V6ggQVDF2g-22" value="k3s server" style="rounded=1;whiteSpace=wrap;html=1;verticalAlign=top;labelPosition=center;verticalLabelPosition=middle;align=center;fontStyle=1" vertex="1" parent="PHb3LdSxm_V6ggQVDF2g-21">
          <mxGeometry x="16" y="18.4" width="150" height="100" as="geometry" />
        </mxCell>
        <mxCell id="PHb3LdSxm_V6ggQVDF2g-23" value="control plane" style="sketch=0;html=1;dashed=0;whitespace=wrap;fillColor=#2875E2;strokeColor=#ffffff;points=[[0.005,0.63,0],[0.1,0.2,0],[0.9,0.2,0],[0.5,0,0],[0.995,0.63,0],[0.72,0.99,0],[0.5,1,0],[0.28,0.99,0]];verticalLabelPosition=bottom;align=center;verticalAlign=top;shape=mxgraph.kubernetes.icon;prIcon=master" vertex="1" parent="PHb3LdSxm_V6ggQVDF2g-21">
          <mxGeometry x="40" y="44.4" width="50" height="48" as="geometry" />
        </mxCell>
        <mxCell id="PHb3LdSxm_V6ggQVDF2g-24" value="etcd" style="sketch=0;html=1;dashed=0;whitespace=wrap;fillColor=#2875E2;strokeColor=#ffffff;points=[[0.005,0.63,0],[0.1,0.2,0],[0.9,0.2,0],[0.5,0,0],[0.995,0.63,0],[0.72,0.99,0],[0.5,1,0],[0.28,0.99,0]];verticalLabelPosition=bottom;align=center;verticalAlign=top;shape=mxgraph.kubernetes.icon;prIcon=etcd" vertex="1" parent="PHb3LdSxm_V6ggQVDF2g-21">
          <mxGeometry x="105" y="44.4" width="50" height="48" as="geometry" />
        </mxCell>
        <mxCell id="PHb3LdSxm_V6ggQVDF2g-25" value="" style="image;sketch=0;aspect=fixed;html=1;points=[];align=center;fontSize=12;image=img/lib/mscae/Kubernetes.svg;" vertex="1" parent="PHb3LdSxm_V6ggQVDF2g-21">
          <mxGeometry width="40" height="38.4" as="geometry" />
        </mxCell>
        <mxCell id="PHb3LdSxm_V6ggQVDF2g-26" value="" style="shape=image;verticalLabelPosition=bottom;labelBackgroundColor=default;verticalAlign=top;aspect=fixed;imageAspect=0;image=data:image/png,iVBORw0KGgoAAAANSUhEUgAAAysAAAKYCAYAAABzfmczAAAACXBIWXMAAC4jAAAuIwF4pT92AAAgAElEQVR4nO3dTXIbV5Y24ERFzT/2HBFFrcDUFBOTKzC1AosrsLgCSSugtALSKxC9AtITTEmvQKwIzJvfCtBx6QMZovgDEAngZN7niVC4uqPKBjJpEG+enztoWMh0PNxrmmanaZr9+O//FP93E3/dcyUBAAiXcxfipmma/879/28Ho8m1C/U8YeWe6Xi4G8Gj/Pm5aZrd+AMAAG0qIaaElr/ir9eD0eTGFf5H9WElKib7EUz2BBMAALboJqovf5a/1h5eqgwr0/HwsGmaXyKkCCcAAGRVwsp5CS+D0eS8trtUTViZjodvI6AcJng5AACwrNsILn/UElx6HVam42GpnPwaAWVngf8JAAB0wSy4fO7zsH7vwsp0PNyJcPJeixcAABUoYeVzCS+D0eS2T2+3N2Eltnj91jTNW1UUAAAqdBuh5VNfQkvnw0qElPcRUgAAgKY5a5rmY9e3iXU2rAgpAADwrE6Hls6FlZhJORFSAABgYR+72B7WqbAyHQ8/xFyKmRQAAFhOCSrHg9HkrCvXrRNhJVYQn9ruBQAAK7uO0HKZ/VKmDitavgAAYG0+xTxL2tawtGFlOh4eRjVFyxcAAKxHGbw/ylplSRdWVFMAAGDjUlZZUoWV6Xi41zTNF7MpAACwcddRZbnOcun/leA13JmOh++aprkSVAAAYCtK4eBiOh6m6XDaemVF2xcAAKRzNhhNjrb9orYaVuIU+i+R4gAAgDxKO9jBNudYthZWYj7lwrYvAABIq2wLe7OtOZatzKxEH5ygAgAAue3GHMv+Nl7lxisrEVRON/3PBQAAVlI2hZ1t8hJutLISG78EFQAA6J7TTW8K21hlZToentr4BQAAnbexCstGwoqgAgAAvbKRwLL2NrDpePhBUAEAgF7ZSEvYWisrhukBAKDX1lphWVtYEVQAAKAK5RyW83W80bWEldjDfLGOvzcAAJDKbZx03/rBka2HFSfTAwBAdUpgeTUYTW7bfOOtDthPx8MSUL4IKgAAUJWdOOm+1RzQ9jawL3EkPwAAUJfSYXXS5jtuLazEiuL9tv5+AABA57ydjofv2nrRrcysTMfDw6iqAAAAvG5j4H7lsBJ9aV/NqQAAAOEmAstKA/dttIEZqAcAAObttnHm4kphJfrRzKkAAAD3Hca4yIu9uA1sOh6WtHSlqgIAADxipfNXVqmsnAoqAADAE3ZWaQd7UVjR/gUAACzoxe1gS7eB2f4FAAAs6UXbwV5SWTkRVAAAgCWUefelD4tcqrIyHQ/3YqgeAABgWWXY/mbR/82ylZUTtwMAAHihpfLEwpWV6XhYBuov3BUAAGAFB4PR5HKR//kylZWVT6AEAACq937RC7BQWJmOh29jKAYAAGAV+9G19axFKysLpx8AAIA28sWzYSUOcFFVAQAA2rJQdWWRyspvbgkAANCyZ3PGk9vAbAADAADW6MlzV56rrPzqzgAAAGvyZHXl0crKdDzcaZrmf90VAABgTW6junL70N/+qcrKW3cEAABYo1IgOXzsb/9UWDFYDwAArNujoycPtoFNx8O9pmmu3BYAAGADHhy0f6yyYrAeAADYlAdHUB4LK+ZVAACATXmwWPJDWImzVXbcFgAAYEN2YxTlOw9VVn5xRwAAgA3bv/+PeyisPLo6DAAAYE1+aAX7bhuYLWAAAMAW/c/8AZH3Kys/lF4AAAA25Lsur/th5Wd3AQAA2JLv8ojKCgAAkMV3eeRbWIl5FSuLAQCAbSkrjHdn/+z5yoqqCgAAsG3fzluZDys/uS0AAMCWPRhWfjgxEgAAYMO+DdkLKwAAQCbfV1ZiuB4AAGDbdqbj4U4zV1nZdUsAAIAk7oops7CisgIAAGTxXVj5j9sCAAAkoQ0MAABI6W4jmLACAACkJKwAAADZfDezAgAAkMXfMyvOWAEAADL61yy1AAAAZDEdD3f/7W4AsILLJ/6nu2YiAViBsALAQkoouW6a5q+maW4Go8lTIeU70/FwJwYly5+fmqbZF2IAWISwAsBDbpqmOW+a5s/BaHK+yhUajCa3EXa+BZxS2o/Q8kvTNIfuAAAPGUzHw/LL4sLVAaBpmrOmaX5fpnKyqqi8lMDy22xVJQA0TXMgrABQKh+fm6b5FFWQrYnfSb+ptgBQwoo2MIB6pQkpM1HRuYw2sdNoFQOgUsIKQJ1Ku9dxlpBy32A0KTMzB1FpOTWQD1AnJ9gD1OUuBAxGk6OsQWVeqbQMRpNXTdN8zPOqANgUYQWgHqWa8nqTw/NtGYwmH8prj/XJAFRCWAHov1JBOepKNeUxg9GkBJWDCF0AVMDMCkC/3UbbVy8qEhG2jqbjYTmc8iTBSwJgjVRWAPqrBJRXfQkq8wajyacSWvK8IgDWQVgB6KfrqKh0tu3rOYPR5ExgAeg3YQWgf3ofVGYEFoB+E1YA+qWaoDIjsAD0l7AC0B+zrV/VBJWZCCzHOV4NAG0RVgD6400fh+kXFUP31hoD9IiwAtAPH7t42OMaHDs4EqA/hBWA7ruME96rNzuHpfbrANAXwgpAt/lyfk+0wn1M9aIAeBFhBaDbPg9Gkxv38HtRadIOBtBxwgpAd91o/3qS7WAAHSesAHSX9q8nxMKB87QvEIBnCSsA3XRp+9dCVFcAOkxYAegmA+QLiHkeZ68AdJSwAtA916oqS/ncodcKwBxhBaB7fPleQqwyFu4AOkhYAeiWW0PjL/J7B18zQPWEFYBuOY9T2lmOgAfQQcIKQLf84X4tLwKewALQMcIKQHfcDkYTX7hfTtAD6BhhBaA7DImvRtAD6BhhBaA7/nSvXi5awa67+voBaiSsAHSHL9qrU50C6BBhBaAjHATZir968B4AqiGsAHSDqko7bvrwJgBqIawAdIMv2S1QnQLoFmEFoBu0LwFQHWEFgNqorgB0hLAC0A1mVgCojrAC0A237hMAtRFWAACAlIQVAAAgJWEFAABISVgBAABSElYAAICUhBUAACAlYQUAAEhJWAEAAFISVgAAgJSEFQAAICVhBQAASElYAQAAUhJWAACAlIQVAAAgJWEFAABISVgBAABSElYAAICUhBUAACAlYQUAAEhJWAEAAFISVgAAgJSEFQAAICVhBQAASElYAQAAUhJWAACAlIQVAAAgJWEFAABISVgBAABSElYAAICUhBUAACAlYQUAAEhJWAEAAFISVgAAgJSEFYAOGIwml+4TALURVgAAgJSEFQAAICVhBQAASElYAQAAUhJWAACAlIQVAAAgJWEFAABISVgBAABSElYAAICUhBUAACAlYQUAAEhJWAEAAFISVgAAgJSEFQAAICVhBQAASElYAQAAUhJWAACAlIQVAAAgJWEFgNrsueMA3SCsAFCbHXccoBuEFQAAICVhBQAASElYAQAAUhJWAACAlIQVAAAgJWEFAABISVgBAABSElYAAICUhBUAACAlYQUAAEhJWAEAAFISVgAAgJSEFQAAICVhBQAASElYAQAAUhJWAACAlIQVAAAgJWEFAABISVgBAABSElYAAICUhBUAACAlYQUAAEhJWAEAAFISVgAAgJSEFQAAICVhBQAASElYAQAAUhJWAACAlIQVAAAgJWEFAABISVgBAABSElYAAICUhBUAACAlYQUAAEhJWAEAAFISVgAAgJSEFYD8btwjAGokrADkJ6wAUCVhBQAASElYAQAAUhJWAACAlIQVAAAgJWEFAABISVgBAABSElYAAICUhBUAACAlYQUAAEhJWAEAAFISVgAAgJSEFQAAICVhBQAASElYAQAAUhJWAACAlIQVAAAgJWEFAABISVgBoBrT8XDH3QboDmEFgJrsudsA3SGsAAAAKQkrAABASsIKAACQkrACAACkJKwAAAApCSsAAEBKwgoAAJCSsAIAAKQkrAAAACkJKwAAQErCCgAAkJKwAgAApCSsAAAAKQkrAABASsIKAACQkrACAACkJKwAAAApCSsAAEBKwgoAAJCSsAIAAKQkrAAAACkJKwAAQErCCgAAkJKwAgAApCSsAAAAKQkrAABASsIKAACQkrACAACkJKwAAAApCSsAAEBKwgoAAJCSsAIAAKQkrAAAACkJKwAAQErCCgAAkJKwAgAApCSsAAAAKQkrAPn96R4BUCNhBQAASElYAQAAUhJWAACAlIQVAAAgJWEFAABISVgBAABSElYAAICUhBUAACAlYQUAAEhJWAEAAFISVgAAgJSEFQAAICVhBQAASElYAQAAUhJWAACAlIQVAAAgJWEFAABISVgBAABSElYAqMmeuw3QHcIKADXZcbcBukNYAQAAUhJWAACAlIQVAAAgJWEFAABISVgBAABSElYAAICUhBUAACAlYQUAAEhJWAEAAFISVgAAgJSEFQAAICVhBQAASElYAQAAUhJWAACAlIQVAAAgJWEFIL+f3aPW/Kcn7wOgCsIKADXZdbcBukNYAchvzz1qjbAC0CHCCkB+O9PxcMd9aoWwAtAhwgpAN6iurGg6Hu53+g0AVEhYAegGX7RXJ/ABdIywAtANP7lPK3MNATpGWAHoBpWV1bmGAB0jrAB0Qxmy18b0QnHtDNcDdIywAtAdv7pXL+baAXSQsALQHYfu1Yu5dgAdJKwAdMeu9bvL0wIG0F3CCkC3aGda3m9de8EA/E1YAeiWt9PxUJVgQXHy/9tOvFgAfiCsAHSPSsHi3nXlhQLwI2EFoHveRsWAJ8Q1EuwAOkxYAeie8iX8xH171ru4VgB0lLAC0E1vHRL5uJjreZ/19QGwGGEFoLtUVx53mvWFAbA4YQWgu/an46EB8num42E5ANJ5NAA9IKwAdNt7q4z/EddCVQWgJ4QVgG4rA+Rf3MNvTg3VA/SHsALQfXvT8bD6asJ0PDzR/gXQL8IKQD+U7WDVntQe7938DkDPCCsA/XFaY2CZjof75lQA+klYAeiXk5rOX4n3amYHoKeEFYB+KcPlF1Ft6LUIKhcG6gH6S1gB6J9ZYOltS1i8N0EFoOeEFYD+Ou3joZERVKwoBqjAv91kgF4rMyw/NU1zPBhNbrv8RqfjYQknZT1xtVvPAGqjsgLQf+XL/VWXB+/n5lMEFYCKCCsAddiNwPKha+82XvNVOfwywcsBYIOEFYC6vJ+Oh1+7sC2svMbyWstrTvByANgCYQWgPruxLSzliuMIKRfR9rWb4CUBsCXCCkC99udCy+G2r8K9kNL7c2IAeJ5tYACUYFCCwk3TNL83TXM2GE1uNnFVpuNhqZyUoPSbKgoA9w2iBeDClQFgznXTNH80TXM+GE2u27wwsdmr/O751dA8AE84EFYAeM5thJc/m6a5iT/Xz53bEuei7EXFpPz5Of5vhzkCsIgDbWAAPGdn1io2/9+bjoez/3gdgaaJ/65qCQCtEFYAWJVwAsBa2AYGAACkJKwAAAApCSsAAEBKwgoAAJCSsAIAAKQkrAAAACkJKwAAQErCCgAAkJKwAgAApCSsAAAAKQkrAABASsIKAACQkrACAACkJKwAAAApCSsAAEBKwgoAAJCSsAIAAKQkrAAAACkJKwAAQErCCgAAkJKwAgAApCSsAAAAKQkrAABASsIKAACQkrACAACkJKwAAAApCSsAAEBKwgoAAJCSsAIAAKQkrAAAACkJKwAAQErCCgAAkJKwAgAApCSsAAAAKQkrAABASsIKAACQkrACAACkJKwAAAApCSsAAEBKwgoAAJCSsAIAAKQkrAAAACkJKwAAQErCCgAAkJKwAgAApCSsAAAAKQkrAABASsIKAACQkrACAACkJKwAAAApCSsAAEBKwgoAAJCSsAIAAKQkrAAAACkJKwAAQErCCgAAkJKwAgAApCSsAAAAKf3bbQEqczn3dv+c+8//aZpmN/7z7tx/BgC2RFgB+uo2gkkJJNflz2A0uV3mvU7Hw70ILeWvPzdNs++nhZaUn8mbpmn+iv9cfjZvB6PJ9f2/ffwc7sSfvQjWe/EHoNcG0/Gw/PK9cJuBHihf9H4vIeWhL31tmI6Hh03T/NI0zWF8eYRFlGByHuH5ctng/Jj4Hf5LBGnhBeibA2EF6Lrype+shJR1BZTHRHD5NYIL3HcT4flsMJrcbODnsVQB38bPpDZGoA+EFaCzype/j+VpdVtPqV8qviS+jy+KUNoPPw9Gk/Mt/kzux8+k1kWgy4QVoHNKMDkejCZn2V640FK9Ek4+brrC9xQ/k0DHCStAp5RKyqdtV1KeE18QTz3VrsZlhJTLrG9YpQXoKGEF6ITyJfBoE33/bYqZllOD+L11GyHlU1fe4HQ8fBuhxUwL0AUHDoUEMru5e6oymhx0LagUMbPw+t7ZLvRDuaevuxRUmr9/Js/iZ/JjhC2A1FRWgIw698T6OdPx8EM80ab7jvvwsxntiie22QGJqawA6ZQnv6/6FFSav59ol7By5Gl2p91Gpa8XP5ulWjkYTd6U9xRnFAGkI6wAWczaao6yD9C/VLTgHAgsnXQdQaV3LX3lPQ1Gk9fCNJCRsAJs200Mzx9kWvm6LvEeBZZumQWVXv98Rph+FfMsACkIK8A2fYxqSrozU9ZJYOmUWVCp4l6V9xkti68shgAyEFaAbTiPuZQPtXwJvG8usJBXVUFlXsyzHMTPaOc28QH9IawAmzT78vemi6uI2xaB5ahf76o3bqM9serqV8yzlCrLsUogsA3CCrAJt7Hu9XUfB5RXES1wvdp81hNvapihWlRsQHvlZxXYNGEFWLdPfVxF3KbBaHJsPiCVY6H6RzHPcuygU2CThBVgXWariI9rb6VZkLWxOVwK1k8rFaeYZ3ljngVYN2EFaNtNtNBUsYq4LTHDY2Xsdt3GF3AWMBhNzmOe5aOgDayLsAK0pXxZ+Vi+vJQvMa7q8uKJvvaa7VEFfIFYdVxaw6paQQ5shrACtOEsWr4+uJorO+746++qy9rO+2lTrDo+ilXHAjfQGmEFWMVsFfGRVcTtiNY5X5o3TwteC2LV8UHMYPlMAFYmrAAvMTuDwiri9fDFebPO/By3K6pUr/0sA6sSVoBlzVYRe/q/JlGlcn03xxfqNYhVxx/ifBZzbMCLCCvAoi4jpBhC3gxfoDfjXAvjesU8y5uYZ7EhEFiKsAI85ybmUg58qducuNaeRq/f576/wSxinuW1M4WAZQgrwGPmVxHr59+O32t80xt042d786KF9FW0lAI8SVgBHnIWLV9WEW9RnFfjCfT6qKpsScyzHEdoERiBRwkrwLzLuVXEviTnoBVsfVzbLYt5loOYZ9FmCvxAWAGa+JJwFHMpnnLm8kftF2BNrs1g5RHzLK/iUFQPSoBvhBXgY5w+b1VuTsLjegiBCQ1Gk0/RGubzCLgjrEC9zmdzKVq+8op7I7C0zzVNKuZZjuJQSfcJKiesQH1mq4jfaIPpDGdTtEy7Y36D0eQ65lnemGeBegkrUI/yhP7YKuJO+rP2C9AyP/8dElvxXkfLqiowVEZYgTrMVhE716CbPFVul0pVx0Rr2IcILeZZoCLCCvTbZQzPW0XcYaUdpvZr0LL/36t3U5FYdXwUq45VyKACwgr0U3kS/yZWEfui2w+qK+3xJbfjYtVxCSxHWsOg34QV6JfbuVXEDrzrF2EF7omV66/icw/oIWEF+uM8QopVxPAECyb6ZW6e5VV8DgI9IqxA911bRQzULuZZ3sQ8i/ZX6AlhBbprtor4tSfFVRBEYQExz1K2hh2bZ4HuE1agmz5ZRVwdX7pgCfH5+Co+L4GOElagWy4jpBybS6nOXu0XAJYV8yzHEVpUoKGDhBXohvlVxNqBAJYQ8ywHMc/iMxQ6RFiB3O5WEQ9Gk1dWEQOsJuZZZquOVaehA4QVyOtstorYPaJpml0XoR3T8XC/D++Dl5tbdXzmMkJuwgrkcxmriI+0fDFHWIEWxTxLOQH/tXkWyEtYgTxKS8JRzKX4xck30/FQUGmXZQV8MxhNrmOe5cg8C+QjrEAOH2PLl5YEHiKstOs/fXoztCM+f1+bZ4FchBXYrtkq4g9WEfMEMxbtUlnhQdEa9iFCi4dHkICwAttxE3MpVhGziJ9dpVYJfzwpVh0fxarja1cLtkdYgc2aX0VsLoVFqQS0bDoeuqY8K1Ydv455FtVv2AJhBTbnbNby5ZqzqFizu+OCtU51hYXFPMvsfBZgg4QVWL/LOC/lyFwKL/CLi7YWritLmZtnKaHFIb2wIcIKrM/N3CpiPc+81KErtxb70/FQxYqlxTzLm5hnMXMIayaswHp8jGqKbTK8WMxVWFu8PoIgLxbzLKXKcmyeBdZHWIF2nVtFTIt+czHXyvVlZYPR5FO0hn1yNaF9wgq04zpWEb+xipg2RIuSJ//rtWcrGG2IeZbjOJ/FpkdokbACqynVk+Oy2tIqYlr2zhawjVBdoTVlPrHMKTZN88Y8C7RDWIGX+xQtX0r/tCqqKr5Eb8bb6XhoLohWDUaT85hn+WieBVYjrMDyZquIj82lsCaqKpv1vqY3y+bMrTq2bAVeaBAHjl24gPCsm2j5sl+ftYmqyldhZeNemTdjneL71nsHksJSDlRW4Hm3c6uIBRXW7b2gshUnFb5nNihWHZd5liPzLLA4YQWedhYhxSpi1i6evL5zpbfiMK4/rFWcv/XaPAssRliBh81WER9pDWGDPN3frlOn2rMJser4Q4QWFXt4grAC3ytPuY6sImbTpuNhCSrO/NiuXcP2bFJ5GFbO5yoPx+IhGXCPsAL/mK0itrWFjZqOh4fav9J4F/cDNibmWV7HPIvWMJgjrMDfq4hfWUXMNsQJ6qcufiqnTrZnG+Jh2ex8FqheI6xQuTKL8qZsZzGXwjbEfMQX27/S2TG/wrbMzbO8iodpUDVhhRrdrSIupwtbRcy2xBfhi5iTIJ9SWbkQWNiWmGc5iHkWD9SolrBCbc6i5euDO8+2zAUVrUa5CSxsXcyzlCrLsXkWaiSsUIvLuVXEPuzZGkGlcwQWUhiMJp+iNcwSGKoirNB3s1XEB1YRs20xtC2odI/AQgoxz3IU57P4nUYVhBX67KNVxGQRp6MLKt01CyzuH1s3GE2uY57ljXkW+k5YoY/OZ3MpWr7IYDoefoig4sl8t80Ci3NYSKEsiYl5lo/mWeirwdzTPui6m2j5Uhonhel4uBtnqOy7I73zKbYK+oJICvF5875pmrfuCD1yoLJCH5QvC8exilhQIYWoplwJKr31rtzfeOAHWxerjo9i1bHfhfSGygpddxZBxdNNUojP1FPnp1TlLKosZgdIYzoevo1Ki88iuuxAWKGrLiOkXLuDZKDlq3rlgcnn0h7m4QlZxAa7dxFaoIuEFTrnJp5g2vBFCvFl4H18IYCbeJByXv2VII14mHLSNI3lEHSNmRU64za2nbwWVMgi2iy+CirMKV8Kv0zHQ2uOSSPmWd7EPIuOBDpFZYUuOI8nlfrBSSE+N0+cmcICzNWRTjxoObFOnQ5QWSG167texdHkjaBCBqWVYjoenjrckSXcVd9iOxykEB0Kr2IFN6SmskJGtzGX4kOUFOaGVH/zJJIVOAuKdCwHITmVFdL5FKfPCyqkEKeVX8UQvaDCKnbjBPyL+IIIWxfzLAcxz6KLgXRUVsjiMp44+qAkhRiOPvG0kTVyCj7pRMuiKjJZqKywdSWclJmUA0GFDErL13Q8PHH6PBvwLuZZ3rrYZDEYTT7EPIvNm6QgrLAts7mUV84jIIvpePjOKmI2rDy9Pp2Oh1fR6QBbV6p9g9HkqBwXEJ0PsDXawNiGswgqKimkYBUxiVjVTjoxu3cSc1ewSU6wZ6Ou45ewpzSk4FRnEiuH4H4yz0IWtiKyJcIKG3EbIUX/KynM/dJ9746Q2E1UoX12kkY85HkfZwjBuhmwZ+0+xipiv2xJIYaZrwQVOmA35lkuzLOQRaw6PopVxzolWDuVFdbFKmJSsYqYHjDvRzrxAOhEaxhrorJC627u+gutIiaJWEV8ahUxPXBXFYxzMCCF6Jx4FZ0U0DqVFdpS5lI+x352SCFWETt5nj66iVlAq99Jw9IS1sCAPa04i1+attaQQnyunVqzSQUu4/P32s0mC+vgaZGwwkqsIiaVeKp3qt2LCnloRDqq27TAzAovVoY8XwsqZBBzKR/i9HlBhRqVeZav8eUQUhiMJp/iFHyVP15MWGFZtzFAbzaFFGITzVeriOHu6fXJdDz8atUxWcSq49cG8HkpYYVlXMeZKaopbF35MlbOn4i2Ly0G8I/SDnkR57OY2yKFeMj5Jh56wsKEFRZ1Fm1fPmTYqvLlK1YRX2j5giftR2vYh9Iq6VKxbbG97kBgYRnCCos4i9NqYatiLuUq+vOBxbyP0OLfG7YuNteZY2FhwgrPEVTYuul4eFj68G2VgRcr/96cTsfDK/MsbFscGn0gsLAIYYWnCCpsVbR8lXavL85MgVbsxTzLF/MsbFO0lWsJ41nCCo85F1TYllhFfGIVMaxNOWH8yjwL2ySwsAhhhYeUsqygwlbMrSJ2XgSs1060Vl6ZZ2FbYobFdw4eJaxwX3m6cWTrF5sWq4ivrCKGjduNeZYL8yxsQ2wJcw4LDxJWuO8onnLARsRcypdYRbznqsPW7Mc8y6nWMDYtzmFxjhs/EFaYdx5PN2DtYi5ltor40BWHNN7OzmdxS9iwI/Mr3CesMHOrZ5RNKauII6RYRQw53c2zlJXh8e8rrF2sNNYOxneEFWaOzamwbtPxcM8qYuiU8u/pl5hn8e8sazcYTT45f4V5wgrF9WA0OXMlWJdo+TqNaooBXuie/WgNOzHPwgYcu8jMCCs0PhRYp+l4+C5WEVuNCt33LkKL1eKszWA0uTRsz4ywwmV8KECrYhVxCSkn5lKgV8q/zycxz6JSyrqYXeGOsMLn6q8Arbq3iliPO/TXbqw6/mKehbaprjAjrNTtxqpi2jK3ivirVcRQlcPZqmPzLLTMA1WElcr5EKAV0/Hw7dwqYqBO7yO0mE+jFfFA9eQWZDEAAAyGSURBVMbVrJuwUjdVFVYScyml3etUyxcQ8yzlBPwr8yy05HcXsm7CSr3O4/AlWNrcKuILq4iBB+zFPMupeRZW5GiFygkr9fqz9gvAy8zNpWj1AJ5z1yJqnoWXigerDomsmLBSLy1gLGVuFfF7q4iBJezE58aVeRZeyFawigkrdbrRAsaiYhXxhVXEwIp2Y56ltIftuZgs4Q8Xq17CSp08oeBZMZdyEi1f5lKAtuxHleVUaxiLcHh13YSVOplX4UnRqlFCyjtXCliTt7PzWVxgFmBupVLCSp20gPGgmEu5ilXEnngC63Y3z1Lm4aw65hnCSqWElQopp3JfzKXMVhHrJQc2bTdWHV9Ydcwj/uvC1ElYqc9t7ReA70ULxpVVxEAC+9EadmKehXs8aK2UsFIfZVTuTMfDQ6uIgaTeRWgxNweVE1agMmVlaKwi/mIVMZBYeYhSKixX5lnwsLVewkp9tIFVam4V8ZVVxECH7MU8yxfzLPUajCa+v1RKWKnPX7VfgBpFK4VVxECXHc5WHZtngXoIK9Bjc6uIT8ylAD3xPkKLpSBQAWEFeihWEX+xihjoqfLw5TRWHWtrhR4TVurz/2q/AH0WcymzVcSHtV8PoPf2Y57l1DwL9JOwUh9P2XsqWiKurCIGKnT3+WeeBfpHWIGOm1tFfGoVMVCxnXhYU0KLynLPaPerl7BSH19meyJavk6tIgb4Tvk99yXmWXQTQMcJK/URVnpgbhWxbTgAD9uPKsup1rBeEDwrJaxUyJOm7opVxF+tIgZY2NtYdeycqW77T+0XoFbCSp1UVzomVhFfxCpi9w9gOeXhzkl52GP2obM8aK2UsFKnn2u/AF0xt4r4q7kUgJXtxqrjC6uOO8fvwEoJK3XyL3wHxCrir7HdBoD27Edr2Il5lvy0r9dNWKnTng/nvGIuZbaK2H0CWJ93EVosK8nNQ9aKCSv18i9+MnOriC/cH4CNKQ+FysawK/Msaf1S+wWombBSL//iJzI3l+LpHsB27MU8yxfzLHlEJ4gQWTFhpV5O902gnLIcq4jfa/kCSOEwWsM+aJlOwfeVygkr9drRo7s9c6uIv1hFDJDS+zhU0u/K7fqt5jePsFK7X2u/AJsWcyknVhEDdMJuzLNcmGfZvNgCZhNY5YSVuu1bB7g5c6uInaIM0C37Mc9yqjVso1RVEFbwQbBusYr4yipigM57O5tncSvXK5YcaMFDWKF5a+vJesRcypdYRayCBdAP5aHT+7IcpSxJcU/XxoHI3BFWKE5chfbEXEp56nZliwlAb5UHfV9insUDqRapqjBPWKE4NDjYjnjKdmUVMUA19mNr2Il5ltZ4iMo3wgozPhhWUJ6qWUUMULV3Mc9iicoK4uGprgS+EVaY2TMwuLy5VcRXVhEDVK9UVk5insXvhCVFZeq0Uy+atRNWmPde3+3i4umZVcQA3Lcbq44vLLFZynvdCdwnrHCfHfLPiFXEX6N1zrUC4DH7s1XHfrc+LWY+PfzjB8IK9+0pwT7s3ipiT34AWNT7CC02XD0gujp89+BBwgoPOTS/8o+5VcRfDf0B8EI70b1wZZ7lH3NzKipPPEhY4THvPQG6+xB9O7eKGABWtRfzLF9qn2eJoOLgZJ4krPCU01oDy9wq4lMtXwCswWGcz1LzPMupoMJzhBWeU1VgiZavU6uIAdiAnajcX1X6u1ZrNc8SVlhEFYFlbi6l+vY3ADZqN37XXvT9CIG51i+/a1mIsMKiTuPww96ZW0X83oAfAFu0H1WWXh4jEDM6ZlRYirDCMt7FQGAvPkBjFfGFVcQAJPN2dj5LX25MnKNyJaiwLGGFZc0GAjs7z3FvFbG5FAAy2onNnF/ji35nRWfGF90LvISwwkvsxtrFk65VWWL25qtVxAB0RPmd+yXmWTrVBRBt1ldOpmcVwgqreNeVDSZzH5gOngKgi/ajNSz9g8K5bV/mU1jZINp5LlxKVnTZNM3HwWhymelCxlOoE+sRAeiR26ZpPjdN82kwmtxmeVsRosqDzN88GKQlB8IKbSth5ffBaHK2zSsbP9e/CSkA9NgstJwNRpObbb3NeDD4WywGEFJok7DC2pQPzfPyIbqpD9B4olM+KH9VdgagMuUh4R+D0eR8U287Bv9/9WCQNRJW2IjrqLj80XabWByeVX6Gf7HZCwDuqi0lsPxRfve22SYWFZTyu/bnCCiqKKybsMJWXEaA+SsqMNeLfJjGz+pOVE1+ig9MH5QA8Ljr+PPf+P17OxhNrp+7XvEwcCd+1/4Uv3udScamCSukcx1PhWZUSwBgPW7j9+6M37lkc/Bvt4RkzJoAwGbsCChk55wVAAAgJWEFAABISVgBAAAyuhVWAACAdMrmun+1fe4FAABAG1RWAACAbO6OspiFldZONwUAAFjR3RlAs7Dy7EmmAAAAm6SyAgAAZPNnMxdW/nJ7AACATGZh5cZdAQAAkrjbWCysAAAA2dzlk8HsRU3Hw6lbBAAAbNtgNLnLKfPnrKiuAAAA2/bt0Pr5sGJ9MQAAsG3fcsl8WPnTbQEAALbs26ZilRUAACCTb21gg/kXZcgeAADYopvBaPJq9o//173XcenOAAAAW/JdHrkfVv5wVwAAgC35bo5eZQUAAMjiuzwyuP+ipuPh/zZNs+N2AQAAG3Q9GE1ez//j7ldWinN3BAAA2LAfurweCivmVgAAgE37/f4/74c2sEYrGAAAsFnfrSyeeaiy0mgFAwAANujB/PFYWNEKBgAAbMoPLWDNY21gzd+tYF+bptl1ewAAgDX6YQvYzGOVleaxdAMAANCiR3PHU2HlzB0AAADW7NHc8WhYGYwmNwbtAQCANTobjCa3j/3tn6qsFJ/dGQAAYE2ezBuPDtjPGLQHAADW4HIwmhw89bd9rrJSfHRnAACAlj2bM56trDSqKwAAQLseXVc8b5HKSqO6AgAAtGih2fiFKiuN6goAANCOhaoqzRKVlUZ1BQAAaMHxon+LhSsrzd/VlaumafbcIQAA4AWe3QA2b5nKSrNMCgIAAFglTywVVgajyaVT7QEAgBcop9VfL/M/W7ay0kQaevRIfAAAgHtuX9KltXRYGYwmN4uuGgMAACjLugajydIFj6UG7OcZtgcAABaw1FD9vJe0gc0cuTMAAMATblfJDS8OKzEc4+wVAADgMR9jjORFXtwGNqMdDAAAeMCL279mVmkDmzmyHQwAAJizUvvXzMphJdrBHBYJAADMHK3S/jXTRmWlBJazcshLG38vAACg0z4NRpNWDpJvJayEUl1Z6kRKAACgV8qcSmtdV62FlTjk5Y35FQAAqNJN5IHWtFlZmZ1uv9LEPwAA0Dl3hYuXnFL/lFbDSvPPwL0DIwEAoB5HkQNa1XpYaf4ZuLchDAAA+u+orYH6+9YSVpq/A8snG8IAAKDXjqNQsRYrn2D/nOl4eNo0zVs/owAA0Ctng9FkreMfaw8rjcACAAB9s/ag0mwqrDQCCwAA9MVGgkqzybDSCCwAANB1GwsqzToH7B8Sb8zQPQAAdM/xJoNKs+nKysx0PCzVldNt/LMBAIClHa1z69djthJWmn8Cy0nTNDvbeg0AAMCTZifTX27jMm0trDR/B5a9pmkuBBYAAEjnJoJK6yfTL2qrYaX5O7DsRGDZ2/ZrAQAA7lxGULnd5uXYeliZmY6HpSXsXY5XAwAA1fo4GE0+ZHjzacJK83dgOYzBe21hAACwWVudT3nIRlcXP2cwmpw3TfM6yk4AAMBmlO/hrzIFlSZbZWXedDwsLWHvVVkAAGBtbqPt61PGS5w2rDR/B5bdaAvbT/ByAACgTy7j/JSbrO8pdViZcSYLAAC05jZCynn2S5pqZuUxcVrmq6ZpUpanAACgIz7GbEr6oNJ0pbIyT2sYAAAsrYST48wtXw/pXFiZmY6H+zGAL7QAAMDDLmOAvpPbdjsbVmaEFgAA+EGnQ8pM58PKTISW35qmOczxigAAYOPKrPfnwWhy3YdL35uwMhMzLSW0vLU9DACACpTtXp9LUOnaTMpzehdW5sXK41+1iAEA0ENlaP6P2JzbS70OKzNRbTmM4LKX41UBAMDSSnvX7yWo9K2K8pAqwsq8ueDyi4oLAAAdUCoof9YSUOZVF1bmTcfDnQgsP8dfVV0AANi2y6ig/NmVwxvXpeqw8pDYKlb+/NQ0za4AAwDAGl3Hn7/KX7u+arhtwsoCpuPhXmwWm7WN/Rx/3RFmAAB4wnVs62qilauJysltX9YLr5OwsgYxF7PbuzcGAMBjSlXk1tVpUdM0/wepnMc0zFEZrgAAAABJRU5ErkJggg==;container=0;" vertex="1" parent="PHb3LdSxm_V6ggQVDF2g-21">
          <mxGeometry x="124.89999999999998" y="19.760000000000048" width="30.1" height="24.64" as="geometry" />
        </mxCell>
        <mxCell id="PHb3LdSxm_V6ggQVDF2g-27" value="" style="group" vertex="1" connectable="0" parent="1">
          <mxGeometry x="750" y="580" width="166" height="118.4" as="geometry" />
        </mxCell>
        <mxCell id="PHb3LdSxm_V6ggQVDF2g-28" value="k3s server" style="rounded=1;whiteSpace=wrap;html=1;verticalAlign=top;labelPosition=center;verticalLabelPosition=middle;align=center;fontStyle=1" vertex="1" parent="PHb3LdSxm_V6ggQVDF2g-27">
          <mxGeometry x="16" y="18.4" width="150" height="100" as="geometry" />
        </mxCell>
        <mxCell id="PHb3LdSxm_V6ggQVDF2g-29" value="control plane" style="sketch=0;html=1;dashed=0;whitespace=wrap;fillColor=#2875E2;strokeColor=#ffffff;points=[[0.005,0.63,0],[0.1,0.2,0],[0.9,0.2,0],[0.5,0,0],[0.995,0.63,0],[0.72,0.99,0],[0.5,1,0],[0.28,0.99,0]];verticalLabelPosition=bottom;align=center;verticalAlign=top;shape=mxgraph.kubernetes.icon;prIcon=master" vertex="1" parent="PHb3LdSxm_V6ggQVDF2g-27">
          <mxGeometry x="40" y="44.4" width="50" height="48" as="geometry" />
        </mxCell>
        <mxCell id="PHb3LdSxm_V6ggQVDF2g-30" value="etcd" style="sketch=0;html=1;dashed=0;whitespace=wrap;fillColor=#2875E2;strokeColor=#ffffff;points=[[0.005,0.63,0],[0.1,0.2,0],[0.9,0.2,0],[0.5,0,0],[0.995,0.63,0],[0.72,0.99,0],[0.5,1,0],[0.28,0.99,0]];verticalLabelPosition=bottom;align=center;verticalAlign=top;shape=mxgraph.kubernetes.icon;prIcon=etcd" vertex="1" parent="PHb3LdSxm_V6ggQVDF2g-27">
          <mxGeometry x="105" y="44.4" width="50" height="48" as="geometry" />
        </mxCell>
        <mxCell id="PHb3LdSxm_V6ggQVDF2g-31" value="" style="image;sketch=0;aspect=fixed;html=1;points=[];align=center;fontSize=12;image=img/lib/mscae/Kubernetes.svg;" vertex="1" parent="PHb3LdSxm_V6ggQVDF2g-27">
          <mxGeometry width="40" height="38.4" as="geometry" />
        </mxCell>
        <mxCell id="PHb3LdSxm_V6ggQVDF2g-32" value="" style="shape=image;verticalLabelPosition=bottom;labelBackgroundColor=default;verticalAlign=top;aspect=fixed;imageAspect=0;image=data:image/png,iVBORw0KGgoAAAANSUhEUgAAAysAAAKYCAYAAABzfmczAAAACXBIWXMAAC4jAAAuIwF4pT92AAAgAElEQVR4nO3dTXIbV5Y24ERFzT/2HBFFrcDUFBOTKzC1AosrsLgCSSugtALSKxC9AtITTEmvQKwIzJvfCtBx6QMZovgDEAngZN7niVC4uqPKBjJpEG+enztoWMh0PNxrmmanaZr9+O//FP93E3/dcyUBAAiXcxfipmma/879/28Ho8m1C/U8YeWe6Xi4G8Gj/Pm5aZrd+AMAAG0qIaaElr/ir9eD0eTGFf5H9WElKib7EUz2BBMAALboJqovf5a/1h5eqgwr0/HwsGmaXyKkCCcAAGRVwsp5CS+D0eS8trtUTViZjodvI6AcJng5AACwrNsILn/UElx6HVam42GpnPwaAWVngf8JAAB0wSy4fO7zsH7vwsp0PNyJcPJeixcAABUoYeVzCS+D0eS2T2+3N2Eltnj91jTNW1UUAAAqdBuh5VNfQkvnw0qElPcRUgAAgKY5a5rmY9e3iXU2rAgpAADwrE6Hls6FlZhJORFSAABgYR+72B7WqbAyHQ8/xFyKmRQAAFhOCSrHg9HkrCvXrRNhJVYQn9ruBQAAK7uO0HKZ/VKmDitavgAAYG0+xTxL2tawtGFlOh4eRjVFyxcAAKxHGbw/ylplSRdWVFMAAGDjUlZZUoWV6Xi41zTNF7MpAACwcddRZbnOcun/leA13JmOh++aprkSVAAAYCtK4eBiOh6m6XDaemVF2xcAAKRzNhhNjrb9orYaVuIU+i+R4gAAgDxKO9jBNudYthZWYj7lwrYvAABIq2wLe7OtOZatzKxEH5ygAgAAue3GHMv+Nl7lxisrEVRON/3PBQAAVlI2hZ1t8hJutLISG78EFQAA6J7TTW8K21hlZToentr4BQAAnbexCstGwoqgAgAAvbKRwLL2NrDpePhBUAEAgF7ZSEvYWisrhukBAKDX1lphWVtYEVQAAKAK5RyW83W80bWEldjDfLGOvzcAAJDKbZx03/rBka2HFSfTAwBAdUpgeTUYTW7bfOOtDthPx8MSUL4IKgAAUJWdOOm+1RzQ9jawL3EkPwAAUJfSYXXS5jtuLazEiuL9tv5+AABA57ydjofv2nrRrcysTMfDw6iqAAAAvG5j4H7lsBJ9aV/NqQAAAOEmAstKA/dttIEZqAcAAObttnHm4kphJfrRzKkAAAD3Hca4yIu9uA1sOh6WtHSlqgIAADxipfNXVqmsnAoqAADAE3ZWaQd7UVjR/gUAACzoxe1gS7eB2f4FAAAs6UXbwV5SWTkRVAAAgCWUefelD4tcqrIyHQ/3YqgeAABgWWXY/mbR/82ylZUTtwMAAHihpfLEwpWV6XhYBuov3BUAAGAFB4PR5HKR//kylZWVT6AEAACq937RC7BQWJmOh29jKAYAAGAV+9G19axFKysLpx8AAIA28sWzYSUOcFFVAQAA2rJQdWWRyspvbgkAANCyZ3PGk9vAbAADAADW6MlzV56rrPzqzgAAAGvyZHXl0crKdDzcaZrmf90VAABgTW6junL70N/+qcrKW3cEAABYo1IgOXzsb/9UWDFYDwAArNujoycPtoFNx8O9pmmu3BYAAGADHhy0f6yyYrAeAADYlAdHUB4LK+ZVAACATXmwWPJDWImzVXbcFgAAYEN2YxTlOw9VVn5xRwAAgA3bv/+PeyisPLo6DAAAYE1+aAX7bhuYLWAAAMAW/c/8AZH3Kys/lF4AAAA25Lsur/th5Wd3AQAA2JLv8ojKCgAAkMV3eeRbWIl5FSuLAQCAbSkrjHdn/+z5yoqqCgAAsG3fzluZDys/uS0AAMCWPRhWfjgxEgAAYMO+DdkLKwAAQCbfV1ZiuB4AAGDbdqbj4U4zV1nZdUsAAIAk7oops7CisgIAAGTxXVj5j9sCAAAkoQ0MAABI6W4jmLACAACkJKwAAADZfDezAgAAkMXfMyvOWAEAADL61yy1AAAAZDEdD3f/7W4AsILLJ/6nu2YiAViBsALAQkoouW6a5q+maW4Go8lTIeU70/FwJwYly5+fmqbZF2IAWISwAsBDbpqmOW+a5s/BaHK+yhUajCa3EXa+BZxS2o/Q8kvTNIfuAAAPGUzHw/LL4sLVAaBpmrOmaX5fpnKyqqi8lMDy22xVJQA0TXMgrABQKh+fm6b5FFWQrYnfSb+ptgBQwoo2MIB6pQkpM1HRuYw2sdNoFQOgUsIKQJ1Ku9dxlpBy32A0KTMzB1FpOTWQD1AnJ9gD1OUuBAxGk6OsQWVeqbQMRpNXTdN8zPOqANgUYQWgHqWa8nqTw/NtGYwmH8prj/XJAFRCWAHov1JBOepKNeUxg9GkBJWDCF0AVMDMCkC/3UbbVy8qEhG2jqbjYTmc8iTBSwJgjVRWAPqrBJRXfQkq8wajyacSWvK8IgDWQVgB6KfrqKh0tu3rOYPR5ExgAeg3YQWgf3ofVGYEFoB+E1YA+qWaoDIjsAD0l7AC0B+zrV/VBJWZCCzHOV4NAG0RVgD6400fh+kXFUP31hoD9IiwAtAPH7t42OMaHDs4EqA/hBWA7ruME96rNzuHpfbrANAXwgpAt/lyfk+0wn1M9aIAeBFhBaDbPg9Gkxv38HtRadIOBtBxwgpAd91o/3qS7WAAHSesAHSX9q8nxMKB87QvEIBnCSsA3XRp+9dCVFcAOkxYAegmA+QLiHkeZ68AdJSwAtA916oqS/ncodcKwBxhBaB7fPleQqwyFu4AOkhYAeiWW0PjL/J7B18zQPWEFYBuOY9T2lmOgAfQQcIKQLf84X4tLwKewALQMcIKQHfcDkYTX7hfTtAD6BhhBaA7DImvRtAD6BhhBaA7/nSvXi5awa67+voBaiSsAHSHL9qrU50C6BBhBaAjHATZir968B4AqiGsAHSDqko7bvrwJgBqIawAdIMv2S1QnQLoFmEFoBu0LwFQHWEFgNqorgB0hLAC0A1mVgCojrAC0A237hMAtRFWAACAlIQVAAAgJWEFAABISVgBAABSElYAAICUhBUAACAlYQUAAEhJWAEAAFISVgAAgJSEFQAAICVhBQAASElYAQAAUhJWAACAlIQVAAAgJWEFAABISVgBAABSElYAAICUhBUAACAlYQUAAEhJWAEAAFISVgAAgJSEFQAAICVhBQAASElYAQAAUhJWAACAlIQVAAAgJWEFAABISVgBAABSElYAAICUhBUAACAlYQUAAEhJWAEAAFISVgAAgJSEFYAOGIwml+4TALURVgAAgJSEFQAAICVhBQAASElYAQAAUhJWAACAlIQVAAAgJWEFAABISVgBAABSElYAAICUhBUAACAlYQUAAEhJWAEAAFISVgAAgJSEFQAAICVhBQAASElYAQAAUhJWAACAlIQVAAAgJWEFgNrsueMA3SCsAFCbHXccoBuEFQAAICVhBQAASElYAQAAUhJWAACAlIQVAAAgJWEFAABISVgBAABSElYAAICUhBUAACAlYQUAAEhJWAEAAFISVgAAgJSEFQAAICVhBQAASElYAQAAUhJWAACAlIQVAAAgJWEFAABISVgBAABSElYAAICUhBUAACAlYQUAAEhJWAEAAFISVgAAgJSEFQAAICVhBQAASElYAQAAUhJWAACAlIQVAAAgJWEFAABISVgBAABSElYAAICUhBUAACAlYQUAAEhJWAEAAFISVgAAgJSEFYD8btwjAGokrADkJ6wAUCVhBQAASElYAQAAUhJWAACAlIQVAAAgJWEFAABISVgBAABSElYAAICUhBUAACAlYQUAAEhJWAEAAFISVgAAgJSEFQAAICVhBQAASElYAQAAUhJWAACAlIQVAAAgJWEFAABISVgBoBrT8XDH3QboDmEFgJrsudsA3SGsAAAAKQkrAABASsIKAACQkrACAACkJKwAAAApCSsAAEBKwgoAAJCSsAIAAKQkrAAAACkJKwAAQErCCgAAkJKwAgAApCSsAAAAKQkrAABASsIKAACQkrACAACkJKwAAAApCSsAAEBKwgoAAJCSsAIAAKQkrAAAACkJKwAAQErCCgAAkJKwAgAApCSsAAAAKQkrAABASsIKAACQkrACAACkJKwAAAApCSsAAEBKwgoAAJCSsAIAAKQkrAAAACkJKwAAQErCCgAAkJKwAgAApCSsAAAAKQkrAPn96R4BUCNhBQAASElYAQAAUhJWAACAlIQVAAAgJWEFAABISVgBAABSElYAAICUhBUAACAlYQUAAEhJWAEAAFISVgAAgJSEFQAAICVhBQAASElYAQAAUhJWAACAlIQVAAAgJWEFAABISVgBAABSElYAqMmeuw3QHcIKADXZcbcBukNYAQAAUhJWAACAlIQVAAAgJWEFAABISVgBAABSElYAAICUhBUAACAlYQUAAEhJWAEAAFISVgAAgJSEFQAAICVhBQAASElYAQAAUhJWAACAlIQVAAAgJWEFIL+f3aPW/Kcn7wOgCsIKADXZdbcBukNYAchvzz1qjbAC0CHCCkB+O9PxcMd9aoWwAtAhwgpAN6iurGg6Hu53+g0AVEhYAegGX7RXJ/ABdIywAtANP7lPK3MNATpGWAHoBpWV1bmGAB0jrAB0Qxmy18b0QnHtDNcDdIywAtAdv7pXL+baAXSQsALQHYfu1Yu5dgAdJKwAdMeu9bvL0wIG0F3CCkC3aGda3m9de8EA/E1YAeiWt9PxUJVgQXHy/9tOvFgAfiCsAHSPSsHi3nXlhQLwI2EFoHveRsWAJ8Q1EuwAOkxYAeie8iX8xH171ru4VgB0lLAC0E1vHRL5uJjreZ/19QGwGGEFoLtUVx53mvWFAbA4YQWgu/an46EB8num42E5ANJ5NAA9IKwAdNt7q4z/EddCVQWgJ4QVgG4rA+Rf3MNvTg3VA/SHsALQfXvT8bD6asJ0PDzR/gXQL8IKQD+U7WDVntQe7938DkDPCCsA/XFaY2CZjof75lQA+klYAeiXk5rOX4n3amYHoKeEFYB+KcPlF1Ft6LUIKhcG6gH6S1gB6J9ZYOltS1i8N0EFoOeEFYD+Ou3joZERVKwoBqjAv91kgF4rMyw/NU1zPBhNbrv8RqfjYQknZT1xtVvPAGqjsgLQf+XL/VWXB+/n5lMEFYCKCCsAddiNwPKha+82XvNVOfwywcsBYIOEFYC6vJ+Oh1+7sC2svMbyWstrTvByANgCYQWgPruxLSzliuMIKRfR9rWb4CUBsCXCCkC99udCy+G2r8K9kNL7c2IAeJ5tYACUYFCCwk3TNL83TXM2GE1uNnFVpuNhqZyUoPSbKgoA9w2iBeDClQFgznXTNH80TXM+GE2u27wwsdmr/O751dA8AE84EFYAeM5thJc/m6a5iT/Xz53bEuei7EXFpPz5Of5vhzkCsIgDbWAAPGdn1io2/9+bjoez/3gdgaaJ/65qCQCtEFYAWJVwAsBa2AYGAACkJKwAAAApCSsAAEBKwgoAAJCSsAIAAKQkrAAAACkJKwAAQErCCgAAkJKwAgAApCSsAAAAKQkrAABASsIKAACQkrACAACkJKwAAAApCSsAAEBKwgoAAJCSsAIAAKQkrAAAACkJKwAAQErCCgAAkJKwAgAApCSsAAAAKQkrAABASsIKAACQkrACAACkJKwAAAApCSsAAEBKwgoAAJCSsAIAAKQkrAAAACkJKwAAQErCCgAAkJKwAgAApCSsAAAAKQkrAABASsIKAACQkrACAACkJKwAAAApCSsAAEBKwgoAAJCSsAIAAKQkrAAAACkJKwAAQErCCgAAkJKwAgAApCSsAAAAKQkrAABASsIKAACQkrACAACkJKwAAAApCSsAAEBKwgoAAJCSsAIAAKQkrAAAACkJKwAAQErCCgAAkJKwAgAApCSsAAAAKf3bbQEqczn3dv+c+8//aZpmN/7z7tx/BgC2RFgB+uo2gkkJJNflz2A0uV3mvU7Hw70ILeWvPzdNs++nhZaUn8mbpmn+iv9cfjZvB6PJ9f2/ffwc7sSfvQjWe/EHoNcG0/Gw/PK9cJuBHihf9H4vIeWhL31tmI6Hh03T/NI0zWF8eYRFlGByHuH5ctng/Jj4Hf5LBGnhBeibA2EF6Lrype+shJR1BZTHRHD5NYIL3HcT4flsMJrcbODnsVQB38bPpDZGoA+EFaCzype/j+VpdVtPqV8qviS+jy+KUNoPPw9Gk/Mt/kzux8+k1kWgy4QVoHNKMDkejCZn2V640FK9Ek4+brrC9xQ/k0DHCStAp5RKyqdtV1KeE18QTz3VrsZlhJTLrG9YpQXoKGEF6ITyJfBoE33/bYqZllOD+L11GyHlU1fe4HQ8fBuhxUwL0AUHDoUEMru5e6oymhx0LagUMbPw+t7ZLvRDuaevuxRUmr9/Js/iZ/JjhC2A1FRWgIw698T6OdPx8EM80ab7jvvwsxntiie22QGJqawA6ZQnv6/6FFSav59ol7By5Gl2p91Gpa8XP5ulWjkYTd6U9xRnFAGkI6wAWczaao6yD9C/VLTgHAgsnXQdQaV3LX3lPQ1Gk9fCNJCRsAJs200Mzx9kWvm6LvEeBZZumQWVXv98Rph+FfMsACkIK8A2fYxqSrozU9ZJYOmUWVCp4l6V9xkti68shgAyEFaAbTiPuZQPtXwJvG8usJBXVUFlXsyzHMTPaOc28QH9IawAmzT78vemi6uI2xaB5ahf76o3bqM9serqV8yzlCrLsUogsA3CCrAJt7Hu9XUfB5RXES1wvdp81hNvapihWlRsQHvlZxXYNGEFWLdPfVxF3KbBaHJsPiCVY6H6RzHPcuygU2CThBVgXWariI9rb6VZkLWxOVwK1k8rFaeYZ3ljngVYN2EFaNtNtNBUsYq4LTHDY2Xsdt3GF3AWMBhNzmOe5aOgDayLsAK0pXxZ+Vi+vJQvMa7q8uKJvvaa7VEFfIFYdVxaw6paQQ5shrACtOEsWr4+uJorO+746++qy9rO+2lTrDo+ilXHAjfQGmEFWMVsFfGRVcTtiNY5X5o3TwteC2LV8UHMYPlMAFYmrAAvMTuDwiri9fDFebPO/By3K6pUr/0sA6sSVoBlzVYRe/q/JlGlcn03xxfqNYhVxx/ifBZzbMCLCCvAoi4jpBhC3gxfoDfjXAvjesU8y5uYZ7EhEFiKsAI85ybmUg58qducuNaeRq/f576/wSxinuW1M4WAZQgrwGPmVxHr59+O32t80xt042d786KF9FW0lAI8SVgBHnIWLV9WEW9RnFfjCfT6qKpsScyzHEdoERiBRwkrwLzLuVXEviTnoBVsfVzbLYt5loOYZ9FmCvxAWAGa+JJwFHMpnnLm8kftF2BNrs1g5RHzLK/iUFQPSoBvhBXgY5w+b1VuTsLjegiBCQ1Gk0/RGubzCLgjrEC9zmdzKVq+8op7I7C0zzVNKuZZjuJQSfcJKiesQH1mq4jfaIPpDGdTtEy7Y36D0eQ65lnemGeBegkrUI/yhP7YKuJO+rP2C9AyP/8dElvxXkfLqiowVEZYgTrMVhE716CbPFVul0pVx0Rr2IcILeZZoCLCCvTbZQzPW0XcYaUdpvZr0LL/36t3U5FYdXwUq45VyKACwgr0U3kS/yZWEfui2w+qK+3xJbfjYtVxCSxHWsOg34QV6JfbuVXEDrzrF2EF7omV66/icw/oIWEF+uM8QopVxPAECyb6ZW6e5VV8DgI9IqxA911bRQzULuZZ3sQ8i/ZX6AlhBbprtor4tSfFVRBEYQExz1K2hh2bZ4HuE1agmz5ZRVwdX7pgCfH5+Co+L4GOElagWy4jpBybS6nOXu0XAJYV8yzHEVpUoKGDhBXohvlVxNqBAJYQ8ywHMc/iMxQ6RFiB3O5WEQ9Gk1dWEQOsJuZZZquOVaehA4QVyOtstorYPaJpml0XoR3T8XC/D++Dl5tbdXzmMkJuwgrkcxmriI+0fDFHWIEWxTxLOQH/tXkWyEtYgTxKS8JRzKX4xck30/FQUGmXZQV8MxhNrmOe5cg8C+QjrEAOH2PLl5YEHiKstOs/fXoztCM+f1+bZ4FchBXYrtkq4g9WEfMEMxbtUlnhQdEa9iFCi4dHkICwAttxE3MpVhGziJ9dpVYJfzwpVh0fxarja1cLtkdYgc2aX0VsLoVFqQS0bDoeuqY8K1Ydv455FtVv2AJhBTbnbNby5ZqzqFizu+OCtU51hYXFPMvsfBZgg4QVWL/LOC/lyFwKL/CLi7YWritLmZtnKaHFIb2wIcIKrM/N3CpiPc+81KErtxb70/FQxYqlxTzLm5hnMXMIayaswHp8jGqKbTK8WMxVWFu8PoIgLxbzLKXKcmyeBdZHWIF2nVtFTIt+czHXyvVlZYPR5FO0hn1yNaF9wgq04zpWEb+xipg2RIuSJ//rtWcrGG2IeZbjOJ/FpkdokbACqynVk+Oy2tIqYlr2zhawjVBdoTVlPrHMKTZN88Y8C7RDWIGX+xQtX0r/tCqqKr5Eb8bb6XhoLohWDUaT85hn+WieBVYjrMDyZquIj82lsCaqKpv1vqY3y+bMrTq2bAVeaBAHjl24gPCsm2j5sl+ftYmqyldhZeNemTdjneL71nsHksJSDlRW4Hm3c6uIBRXW7b2gshUnFb5nNihWHZd5liPzLLA4YQWedhYhxSpi1i6evL5zpbfiMK4/rFWcv/XaPAssRliBh81WER9pDWGDPN3frlOn2rMJser4Q4QWFXt4grAC3ytPuY6sImbTpuNhCSrO/NiuXcP2bFJ5GFbO5yoPx+IhGXCPsAL/mK0itrWFjZqOh4fav9J4F/cDNibmWV7HPIvWMJgjrMDfq4hfWUXMNsQJ6qcufiqnTrZnG+Jh2ex8FqheI6xQuTKL8qZsZzGXwjbEfMQX27/S2TG/wrbMzbO8iodpUDVhhRrdrSIupwtbRcy2xBfhi5iTIJ9SWbkQWNiWmGc5iHkWD9SolrBCbc6i5euDO8+2zAUVrUa5CSxsXcyzlCrLsXkWaiSsUIvLuVXEPuzZGkGlcwQWUhiMJp+iNcwSGKoirNB3s1XEB1YRs20xtC2odI/AQgoxz3IU57P4nUYVhBX67KNVxGQRp6MLKt01CyzuH1s3GE2uY57ljXkW+k5YoY/OZ3MpWr7IYDoefoig4sl8t80Ci3NYSKEsiYl5lo/mWeirwdzTPui6m2j5Uhonhel4uBtnqOy7I73zKbYK+oJICvF5875pmrfuCD1yoLJCH5QvC8exilhQIYWoplwJKr31rtzfeOAHWxerjo9i1bHfhfSGygpddxZBxdNNUojP1FPnp1TlLKosZgdIYzoevo1Ki88iuuxAWKGrLiOkXLuDZKDlq3rlgcnn0h7m4QlZxAa7dxFaoIuEFTrnJp5g2vBFCvFl4H18IYCbeJByXv2VII14mHLSNI3lEHSNmRU64za2nbwWVMgi2iy+CirMKV8Kv0zHQ2uOSSPmWd7EPIuOBDpFZYUuOI8nlfrBSSE+N0+cmcICzNWRTjxoObFOnQ5QWSG167texdHkjaBCBqWVYjoenjrckSXcVd9iOxykEB0Kr2IFN6SmskJGtzGX4kOUFOaGVH/zJJIVOAuKdCwHITmVFdL5FKfPCyqkEKeVX8UQvaDCKnbjBPyL+IIIWxfzLAcxz6KLgXRUVsjiMp44+qAkhRiOPvG0kTVyCj7pRMuiKjJZqKywdSWclJmUA0GFDErL13Q8PHH6PBvwLuZZ3rrYZDEYTT7EPIvNm6QgrLAts7mUV84jIIvpePjOKmI2rDy9Pp2Oh1fR6QBbV6p9g9HkqBwXEJ0PsDXawNiGswgqKimkYBUxiVjVTjoxu3cSc1ewSU6wZ6Ou45ewpzSk4FRnEiuH4H4yz0IWtiKyJcIKG3EbIUX/KynM/dJ9746Q2E1UoX12kkY85HkfZwjBuhmwZ+0+xipiv2xJIYaZrwQVOmA35lkuzLOQRaw6PopVxzolWDuVFdbFKmJSsYqYHjDvRzrxAOhEaxhrorJC627u+gutIiaJWEV8ahUxPXBXFYxzMCCF6Jx4FZ0U0DqVFdpS5lI+x352SCFWETt5nj66iVlAq99Jw9IS1sCAPa04i1+attaQQnyunVqzSQUu4/P32s0mC+vgaZGwwkqsIiaVeKp3qt2LCnloRDqq27TAzAovVoY8XwsqZBBzKR/i9HlBhRqVeZav8eUQUhiMJp/iFHyVP15MWGFZtzFAbzaFFGITzVeriOHu6fXJdDz8atUxWcSq49cG8HkpYYVlXMeZKaopbF35MlbOn4i2Ly0G8I/SDnkR57OY2yKFeMj5Jh56wsKEFRZ1Fm1fPmTYqvLlK1YRX2j5giftR2vYh9Iq6VKxbbG97kBgYRnCCos4i9NqYatiLuUq+vOBxbyP0OLfG7YuNteZY2FhwgrPEVTYuul4eFj68G2VgRcr/96cTsfDK/MsbFscGn0gsLAIYYWnCCpsVbR8lXavL85MgVbsxTzLF/MsbFO0lWsJ41nCCo85F1TYllhFfGIVMaxNOWH8yjwL2ySwsAhhhYeUsqygwlbMrSJ2XgSs1060Vl6ZZ2FbYobFdw4eJaxwX3m6cWTrF5sWq4ivrCKGjduNeZYL8yxsQ2wJcw4LDxJWuO8onnLARsRcypdYRbznqsPW7Mc8y6nWMDYtzmFxjhs/EFaYdx5PN2DtYi5ltor40BWHNN7OzmdxS9iwI/Mr3CesMHOrZ5RNKauII6RYRQw53c2zlJXh8e8rrF2sNNYOxneEFWaOzamwbtPxcM8qYuiU8u/pl5hn8e8sazcYTT45f4V5wgrF9WA0OXMlWJdo+TqNaooBXuie/WgNOzHPwgYcu8jMCCs0PhRYp+l4+C5WEVuNCt33LkKL1eKszWA0uTRsz4ywwmV8KECrYhVxCSkn5lKgV8q/zycxz6JSyrqYXeGOsMLn6q8Arbq3iliPO/TXbqw6/mKehbaprjAjrNTtxqpi2jK3ivirVcRQlcPZqmPzLLTMA1WElcr5EKAV0/Hw7dwqYqBO7yO0mE+jFfFA9eQWZDEAAAyGSURBVMbVrJuwUjdVFVYScyml3etUyxcQ8yzlBPwr8yy05HcXsm7CSr3O4/AlWNrcKuILq4iBB+zFPMupeRZW5GiFygkr9fqz9gvAy8zNpWj1AJ5z1yJqnoWXigerDomsmLBSLy1gLGVuFfF7q4iBJezE58aVeRZeyFawigkrdbrRAsaiYhXxhVXEwIp2Y56ltIftuZgs4Q8Xq17CSp08oeBZMZdyEi1f5lKAtuxHleVUaxiLcHh13YSVOplX4UnRqlFCyjtXCliTt7PzWVxgFmBupVLCSp20gPGgmEu5ilXEnngC63Y3z1Lm4aw65hnCSqWElQopp3JfzKXMVhHrJQc2bTdWHV9Ydcwj/uvC1ElYqc9t7ReA70ULxpVVxEAC+9EadmKehXs8aK2UsFIfZVTuTMfDQ6uIgaTeRWgxNweVE1agMmVlaKwi/mIVMZBYeYhSKixX5lnwsLVewkp9tIFVam4V8ZVVxECH7MU8yxfzLPUajCa+v1RKWKnPX7VfgBpFK4VVxECXHc5WHZtngXoIK9Bjc6uIT8ylAD3xPkKLpSBQAWEFeihWEX+xihjoqfLw5TRWHWtrhR4TVurz/2q/AH0WcymzVcSHtV8PoPf2Y57l1DwL9JOwUh9P2XsqWiKurCIGKnT3+WeeBfpHWIGOm1tFfGoVMVCxnXhYU0KLynLPaPerl7BSH19meyJavk6tIgb4Tvk99yXmWXQTQMcJK/URVnpgbhWxbTgAD9uPKsup1rBeEDwrJaxUyJOm7opVxF+tIgZY2NtYdeycqW77T+0XoFbCSp1UVzomVhFfxCpi9w9gOeXhzkl52GP2obM8aK2UsFKnn2u/AF0xt4r4q7kUgJXtxqrjC6uOO8fvwEoJK3XyL3wHxCrir7HdBoD27Edr2Il5lvy0r9dNWKnTng/nvGIuZbaK2H0CWJ93EVosK8nNQ9aKCSv18i9+MnOriC/cH4CNKQ+FysawK/Msaf1S+wWombBSL//iJzI3l+LpHsB27MU8yxfzLHlEJ4gQWTFhpV5O902gnLIcq4jfa/kCSOEwWsM+aJlOwfeVygkr9drRo7s9c6uIv1hFDJDS+zhU0u/K7fqt5jePsFK7X2u/AJsWcyknVhEDdMJuzLNcmGfZvNgCZhNY5YSVuu1bB7g5c6uInaIM0C37Mc9yqjVso1RVEFbwQbBusYr4yipigM57O5tncSvXK5YcaMFDWKF5a+vJesRcypdYRayCBdAP5aHT+7IcpSxJcU/XxoHI3BFWKE5chfbEXEp56nZliwlAb5UHfV9insUDqRapqjBPWKE4NDjYjnjKdmUVMUA19mNr2Il5ltZ4iMo3wgozPhhWUJ6qWUUMULV3Mc9iicoK4uGprgS+EVaY2TMwuLy5VcRXVhEDVK9UVk5insXvhCVFZeq0Uy+atRNWmPde3+3i4umZVcQA3Lcbq44vLLFZynvdCdwnrHCfHfLPiFXEX6N1zrUC4DH7s1XHfrc+LWY+PfzjB8IK9+0pwT7s3ipiT34AWNT7CC02XD0gujp89+BBwgoPOTS/8o+5VcRfDf0B8EI70b1wZZ7lH3NzKipPPEhY4THvPQG6+xB9O7eKGABWtRfzLF9qn2eJoOLgZJ4krPCU01oDy9wq4lMtXwCswWGcz1LzPMupoMJzhBWeU1VgiZavU6uIAdiAnajcX1X6u1ZrNc8SVlhEFYFlbi6l+vY3ADZqN37XXvT9CIG51i+/a1mIsMKiTuPww96ZW0X83oAfAFu0H1WWXh4jEDM6ZlRYirDCMt7FQGAvPkBjFfGFVcQAJPN2dj5LX25MnKNyJaiwLGGFZc0GAjs7z3FvFbG5FAAy2onNnF/ji35nRWfGF90LvISwwkvsxtrFk65VWWL25qtVxAB0RPmd+yXmWTrVBRBt1ldOpmcVwgqreNeVDSZzH5gOngKgi/ajNSz9g8K5bV/mU1jZINp5LlxKVnTZNM3HwWhymelCxlOoE+sRAeiR26ZpPjdN82kwmtxmeVsRosqDzN88GKQlB8IKbSth5ffBaHK2zSsbP9e/CSkA9NgstJwNRpObbb3NeDD4WywGEFJok7DC2pQPzfPyIbqpD9B4olM+KH9VdgagMuUh4R+D0eR8U287Bv9/9WCQNRJW2IjrqLj80XabWByeVX6Gf7HZCwDuqi0lsPxRfve22SYWFZTyu/bnCCiqKKybsMJWXEaA+SsqMNeLfJjGz+pOVE1+ig9MH5QA8Ljr+PPf+P17OxhNrp+7XvEwcCd+1/4Uv3udScamCSukcx1PhWZUSwBgPW7j9+6M37lkc/Bvt4RkzJoAwGbsCChk55wVAAAgJWEFAABISVgBAAAyuhVWAACAdMrmun+1fe4FAABAG1RWAACAbO6OspiFldZONwUAAFjR3RlAs7Dy7EmmAAAAm6SyAgAAZPNnMxdW/nJ7AACATGZh5cZdAQAAkrjbWCysAAAA2dzlk8HsRU3Hw6lbBAAAbNtgNLnLKfPnrKiuAAAA2/bt0Pr5sGJ9MQAAsG3fcsl8WPnTbQEAALbs26ZilRUAACCTb21gg/kXZcgeAADYopvBaPJq9o//173XcenOAAAAW/JdHrkfVv5wVwAAgC35bo5eZQUAAMjiuzwyuP+ipuPh/zZNs+N2AQAAG3Q9GE1ez//j7ldWinN3BAAA2LAfurweCivmVgAAgE37/f4/74c2sEYrGAAAsFnfrSyeeaiy0mgFAwAANujB/PFYWNEKBgAAbMoPLWDNY21gzd+tYF+bptl1ewAAgDX6YQvYzGOVleaxdAMAANCiR3PHU2HlzB0AAADW7NHc8WhYGYwmNwbtAQCANTobjCa3j/3tn6qsFJ/dGQAAYE2ezBuPDtjPGLQHAADW4HIwmhw89bd9rrJSfHRnAACAlj2bM56trDSqKwAAQLseXVc8b5HKSqO6AgAAtGih2fiFKiuN6goAANCOhaoqzRKVlUZ1BQAAaMHxon+LhSsrzd/VlaumafbcIQAA4AWe3QA2b5nKSrNMCgIAAFglTywVVgajyaVT7QEAgBcop9VfL/M/W7ay0kQaevRIfAAAgHtuX9KltXRYGYwmN4uuGgMAACjLugajydIFj6UG7OcZtgcAABaw1FD9vJe0gc0cuTMAAMATblfJDS8OKzEc4+wVAADgMR9jjORFXtwGNqMdDAAAeMCL279mVmkDmzmyHQwAAJizUvvXzMphJdrBHBYJAADMHK3S/jXTRmWlBJazcshLG38vAACg0z4NRpNWDpJvJayEUl1Z6kRKAACgV8qcSmtdV62FlTjk5Y35FQAAqNJN5IHWtFlZmZ1uv9LEPwAA0Dl3hYuXnFL/lFbDSvPPwL0DIwEAoB5HkQNa1XpYaf4ZuLchDAAA+u+orYH6+9YSVpq/A8snG8IAAKDXjqNQsRYrn2D/nOl4eNo0zVs/owAA0Ctng9FkreMfaw8rjcACAAB9s/ag0mwqrDQCCwAA9MVGgkqzybDSCCwAANB1GwsqzToH7B8Sb8zQPQAAdM/xJoNKs+nKysx0PCzVldNt/LMBAIClHa1z69djthJWmn8Cy0nTNDvbeg0AAMCTZifTX27jMm0trDR/B5a9pmkuBBYAAEjnJoJK6yfTL2qrYaX5O7DsRGDZ2/ZrAQAA7lxGULnd5uXYeliZmY6HpSXsXY5XAwAA1fo4GE0+ZHjzacJK83dgOYzBe21hAACwWVudT3nIRlcXP2cwmpw3TfM6yk4AAMBmlO/hrzIFlSZbZWXedDwsLWHvVVkAAGBtbqPt61PGS5w2rDR/B5bdaAvbT/ByAACgTy7j/JSbrO8pdViZcSYLAAC05jZCynn2S5pqZuUxcVrmq6ZpUpanAACgIz7GbEr6oNJ0pbIyT2sYAAAsrYST48wtXw/pXFiZmY6H+zGAL7QAAMDDLmOAvpPbdjsbVmaEFgAA+EGnQ8pM58PKTISW35qmOczxigAAYOPKrPfnwWhy3YdL35uwMhMzLSW0vLU9DACACpTtXp9LUOnaTMpzehdW5sXK41+1iAEA0ENlaP6P2JzbS70OKzNRbTmM4LKX41UBAMDSSnvX7yWo9K2K8pAqwsq8ueDyi4oLAAAdUCoof9YSUOZVF1bmTcfDnQgsP8dfVV0AANi2y6ig/NmVwxvXpeqw8pDYKlb+/NQ0za4AAwDAGl3Hn7/KX7u+arhtwsoCpuPhXmwWm7WN/Rx/3RFmAAB4wnVs62qilauJysltX9YLr5OwsgYxF7PbuzcGAMBjSlXk1tVpUdM0/wepnMc0zFEZrgAAAABJRU5ErkJggg==;container=0;" vertex="1" parent="PHb3LdSxm_V6ggQVDF2g-27">
          <mxGeometry x="124.89999999999998" y="19.760000000000048" width="30.1" height="24.64" as="geometry" />
        </mxCell>
      </root>
    </mxGraphModel>
  </diagram>
  <diagram id="fkJn4pK5SBywjeg0eGFG" name="Single master">
    <mxGraphModel dx="865" dy="625" grid="1" gridSize="10" guides="1" tooltips="1" connect="1" arrows="1" fold="1" page="1" pageScale="1" pageWidth="1169" pageHeight="827" math="1" shadow="0">
      <root>
        <mxCell id="0" />
        <mxCell id="1" parent="0" />
        <mxCell id="eyW_zcaQJhJMko1jQgtX-19" style="rounded=0;orthogonalLoop=1;jettySize=auto;html=1;entryX=0;entryY=0.5;entryDx=0;entryDy=0;exitX=1;exitY=0.5;exitDx=0;exitDy=0;" edge="1" parent="1" source="eyW_zcaQJhJMko1jQgtX-15">
          <mxGeometry relative="1" as="geometry">
            <mxPoint x="480" y="505" as="targetPoint" />
          </mxGeometry>
        </mxCell>
        <mxCell id="eyW_zcaQJhJMko1jQgtX-20" style="edgeStyle=orthogonalEdgeStyle;rounded=0;orthogonalLoop=1;jettySize=auto;html=1;exitX=1;exitY=0.5;exitDx=0;exitDy=0;entryX=0;entryY=0.5;entryDx=0;entryDy=0;" edge="1" parent="1">
          <mxGeometry relative="1" as="geometry">
            <mxPoint x="356" y="504.20000000000005" as="sourcePoint" />
            <mxPoint x="480" y="505" as="targetPoint" />
          </mxGeometry>
        </mxCell>
        <mxCell id="eyW_zcaQJhJMko1jQgtX-21" style="rounded=0;orthogonalLoop=1;jettySize=auto;html=1;exitX=1;exitY=0.5;exitDx=0;exitDy=0;entryX=0;entryY=0.5;entryDx=0;entryDy=0;" edge="1" parent="1">
          <mxGeometry relative="1" as="geometry">
            <mxPoint x="356" y="658.4000000000001" as="sourcePoint" />
            <mxPoint x="480" y="505" as="targetPoint" />
          </mxGeometry>
        </mxCell>
        <mxCell id="eyW_zcaQJhJMko1jQgtX-24" value="master node" style="text;html=1;strokeColor=none;fillColor=none;align=center;verticalAlign=middle;whiteSpace=wrap;rounded=0;fontSize=16;" vertex="1" parent="1">
          <mxGeometry x="630" y="490" width="60" height="30" as="geometry" />
        </mxCell>
        <mxCell id="eyW_zcaQJhJMko1jQgtX-26" value="worker node" style="text;html=1;strokeColor=none;fillColor=none;align=center;verticalAlign=middle;whiteSpace=wrap;rounded=0;fontSize=16;" vertex="1" parent="1">
          <mxGeometry x="110" y="341.8" width="60" height="30" as="geometry" />
        </mxCell>
        <mxCell id="eyW_zcaQJhJMko1jQgtX-27" value="worker node" style="text;html=1;strokeColor=none;fillColor=none;align=center;verticalAlign=middle;whiteSpace=wrap;rounded=0;fontSize=16;" vertex="1" parent="1">
          <mxGeometry x="110" y="480.40000000000003" width="60" height="30" as="geometry" />
        </mxCell>
        <mxCell id="eyW_zcaQJhJMko1jQgtX-28" value="worker node" style="text;html=1;strokeColor=none;fillColor=none;align=center;verticalAlign=middle;whiteSpace=wrap;rounded=0;fontSize=16;" vertex="1" parent="1">
          <mxGeometry x="110" y="632" width="60" height="30" as="geometry" />
        </mxCell>
        <mxCell id="eyW_zcaQJhJMko1jQgtX-41" value="" style="group" vertex="1" connectable="0" parent="1">
          <mxGeometry x="460" y="440" width="166" height="118.4" as="geometry" />
        </mxCell>
        <mxCell id="eyW_zcaQJhJMko1jQgtX-42" value="k3s server" style="rounded=1;whiteSpace=wrap;html=1;verticalAlign=top;labelPosition=center;verticalLabelPosition=middle;align=center;fontStyle=1" vertex="1" parent="eyW_zcaQJhJMko1jQgtX-41">
          <mxGeometry x="16" y="18.4" width="150" height="100" as="geometry" />
        </mxCell>
        <mxCell id="eyW_zcaQJhJMko1jQgtX-43" value="control plane" style="sketch=0;html=1;dashed=0;whitespace=wrap;fillColor=#2875E2;strokeColor=#ffffff;points=[[0.005,0.63,0],[0.1,0.2,0],[0.9,0.2,0],[0.5,0,0],[0.995,0.63,0],[0.72,0.99,0],[0.5,1,0],[0.28,0.99,0]];verticalLabelPosition=bottom;align=center;verticalAlign=top;shape=mxgraph.kubernetes.icon;prIcon=master" vertex="1" parent="eyW_zcaQJhJMko1jQgtX-41">
          <mxGeometry x="40" y="44.4" width="50" height="48" as="geometry" />
        </mxCell>
        <mxCell id="eyW_zcaQJhJMko1jQgtX-44" value="sqllite" style="sketch=0;html=1;dashed=0;whitespace=wrap;fillColor=#2875E2;strokeColor=#ffffff;points=[[0.005,0.63,0],[0.1,0.2,0],[0.9,0.2,0],[0.5,0,0],[0.995,0.63,0],[0.72,0.99,0],[0.5,1,0],[0.28,0.99,0]];verticalLabelPosition=bottom;align=center;verticalAlign=top;shape=mxgraph.kubernetes.icon;prIcon=etcd" vertex="1" parent="eyW_zcaQJhJMko1jQgtX-41">
          <mxGeometry x="110" y="40" width="45" height="54.4" as="geometry" />
        </mxCell>
        <mxCell id="eyW_zcaQJhJMko1jQgtX-45" value="" style="image;sketch=0;aspect=fixed;html=1;points=[];align=center;fontSize=12;image=img/lib/mscae/Kubernetes.svg;" vertex="1" parent="eyW_zcaQJhJMko1jQgtX-41">
          <mxGeometry width="40" height="38.4" as="geometry" />
        </mxCell>
        <mxCell id="H5LyelW8MneRmdd9rbQy-16" value="" style="shape=image;verticalLabelPosition=bottom;labelBackgroundColor=default;verticalAlign=top;aspect=fixed;imageAspect=0;image=data:image/png,iVBORw0KGgoAAAANSUhEUgAAAysAAAKYCAYAAABzfmczAAAACXBIWXMAAC4jAAAuIwF4pT92AAAgAElEQVR4nO3dTXIbV5Y24ERFzT/2HBFFrcDUFBOTKzC1AosrsLgCSSugtALSKxC9AtITTEmvQKwIzJvfCtBx6QMZovgDEAngZN7niVC4uqPKBjJpEG+enztoWMh0PNxrmmanaZr9+O//FP93E3/dcyUBAAiXcxfipmma/879/28Ho8m1C/U8YeWe6Xi4G8Gj/Pm5aZrd+AMAAG0qIaaElr/ir9eD0eTGFf5H9WElKib7EUz2BBMAALboJqovf5a/1h5eqgwr0/HwsGmaXyKkCCcAAGRVwsp5CS+D0eS8trtUTViZjodvI6AcJng5AACwrNsILn/UElx6HVam42GpnPwaAWVngf8JAAB0wSy4fO7zsH7vwsp0PNyJcPJeixcAABUoYeVzCS+D0eS2T2+3N2Eltnj91jTNW1UUAAAqdBuh5VNfQkvnw0qElPcRUgAAgKY5a5rmY9e3iXU2rAgpAADwrE6Hls6FlZhJORFSAABgYR+72B7WqbAyHQ8/xFyKmRQAAFhOCSrHg9HkrCvXrRNhJVYQn9ruBQAAK7uO0HKZ/VKmDitavgAAYG0+xTxL2tawtGFlOh4eRjVFyxcAAKxHGbw/ylplSRdWVFMAAGDjUlZZUoWV6Xi41zTNF7MpAACwcddRZbnOcun/leA13JmOh++aprkSVAAAYCtK4eBiOh6m6XDaemVF2xcAAKRzNhhNjrb9orYaVuIU+i+R4gAAgDxKO9jBNudYthZWYj7lwrYvAABIq2wLe7OtOZatzKxEH5ygAgAAue3GHMv+Nl7lxisrEVRON/3PBQAAVlI2hZ1t8hJutLISG78EFQAA6J7TTW8K21hlZToentr4BQAAnbexCstGwoqgAgAAvbKRwLL2NrDpePhBUAEAgF7ZSEvYWisrhukBAKDX1lphWVtYEVQAAKAK5RyW83W80bWEldjDfLGOvzcAAJDKbZx03/rBka2HFSfTAwBAdUpgeTUYTW7bfOOtDthPx8MSUL4IKgAAUJWdOOm+1RzQ9jawL3EkPwAAUJfSYXXS5jtuLazEiuL9tv5+AABA57ydjofv2nrRrcysTMfDw6iqAAAAvG5j4H7lsBJ9aV/NqQAAAOEmAstKA/dttIEZqAcAAObttnHm4kphJfrRzKkAAAD3Hca4yIu9uA1sOh6WtHSlqgIAADxipfNXVqmsnAoqAADAE3ZWaQd7UVjR/gUAACzoxe1gS7eB2f4FAAAs6UXbwV5SWTkRVAAAgCWUefelD4tcqrIyHQ/3YqgeAABgWWXY/mbR/82ylZUTtwMAAHihpfLEwpWV6XhYBuov3BUAAGAFB4PR5HKR//kylZWVT6AEAACq937RC7BQWJmOh29jKAYAAGAV+9G19axFKysLpx8AAIA28sWzYSUOcFFVAQAA2rJQdWWRyspvbgkAANCyZ3PGk9vAbAADAADW6MlzV56rrPzqzgAAAGvyZHXl0crKdDzcaZrmf90VAABgTW6junL70N/+qcrKW3cEAABYo1IgOXzsb/9UWDFYDwAArNujoycPtoFNx8O9pmmu3BYAAGADHhy0f6yyYrAeAADYlAdHUB4LK+ZVAACATXmwWPJDWImzVXbcFgAAYEN2YxTlOw9VVn5xRwAAgA3bv/+PeyisPLo6DAAAYE1+aAX7bhuYLWAAAMAW/c/8AZH3Kys/lF4AAAA25Lsur/th5Wd3AQAA2JLv8ojKCgAAkMV3eeRbWIl5FSuLAQCAbSkrjHdn/+z5yoqqCgAAsG3fzluZDys/uS0AAMCWPRhWfjgxEgAAYMO+DdkLKwAAQCbfV1ZiuB4AAGDbdqbj4U4zV1nZdUsAAIAk7oops7CisgIAAGTxXVj5j9sCAAAkoQ0MAABI6W4jmLACAACkJKwAAADZfDezAgAAkMXfMyvOWAEAADL61yy1AAAAZDEdD3f/7W4AsILLJ/6nu2YiAViBsALAQkoouW6a5q+maW4Go8lTIeU70/FwJwYly5+fmqbZF2IAWISwAsBDbpqmOW+a5s/BaHK+yhUajCa3EXa+BZxS2o/Q8kvTNIfuAAAPGUzHw/LL4sLVAaBpmrOmaX5fpnKyqqi8lMDy22xVJQA0TXMgrABQKh+fm6b5FFWQrYnfSb+ptgBQwoo2MIB6pQkpM1HRuYw2sdNoFQOgUsIKQJ1Ku9dxlpBy32A0KTMzB1FpOTWQD1AnJ9gD1OUuBAxGk6OsQWVeqbQMRpNXTdN8zPOqANgUYQWgHqWa8nqTw/NtGYwmH8prj/XJAFRCWAHov1JBOepKNeUxg9GkBJWDCF0AVMDMCkC/3UbbVy8qEhG2jqbjYTmc8iTBSwJgjVRWAPqrBJRXfQkq8wajyacSWvK8IgDWQVgB6KfrqKh0tu3rOYPR5ExgAeg3YQWgf3ofVGYEFoB+E1YA+qWaoDIjsAD0l7AC0B+zrV/VBJWZCCzHOV4NAG0RVgD6400fh+kXFUP31hoD9IiwAtAPH7t42OMaHDs4EqA/hBWA7ruME96rNzuHpfbrANAXwgpAt/lyfk+0wn1M9aIAeBFhBaDbPg9Gkxv38HtRadIOBtBxwgpAd91o/3qS7WAAHSesAHSX9q8nxMKB87QvEIBnCSsA3XRp+9dCVFcAOkxYAegmA+QLiHkeZ68AdJSwAtA916oqS/ncodcKwBxhBaB7fPleQqwyFu4AOkhYAeiWW0PjL/J7B18zQPWEFYBuOY9T2lmOgAfQQcIKQLf84X4tLwKewALQMcIKQHfcDkYTX7hfTtAD6BhhBaA7DImvRtAD6BhhBaA7/nSvXi5awa67+voBaiSsAHSHL9qrU50C6BBhBaAjHATZir968B4AqiGsAHSDqko7bvrwJgBqIawAdIMv2S1QnQLoFmEFoBu0LwFQHWEFgNqorgB0hLAC0A1mVgCojrAC0A237hMAtRFWAACAlIQVAAAgJWEFAABISVgBAABSElYAAICUhBUAACAlYQUAAEhJWAEAAFISVgAAgJSEFQAAICVhBQAASElYAQAAUhJWAACAlIQVAAAgJWEFAABISVgBAABSElYAAICUhBUAACAlYQUAAEhJWAEAAFISVgAAgJSEFQAAICVhBQAASElYAQAAUhJWAACAlIQVAAAgJWEFAABISVgBAABSElYAAICUhBUAACAlYQUAAEhJWAEAAFISVgAAgJSEFYAOGIwml+4TALURVgAAgJSEFQAAICVhBQAASElYAQAAUhJWAACAlIQVAAAgJWEFAABISVgBAABSElYAAICUhBUAACAlYQUAAEhJWAEAAFISVgAAgJSEFQAAICVhBQAASElYAQAAUhJWAACAlIQVAAAgJWEFgNrsueMA3SCsAFCbHXccoBuEFQAAICVhBQAASElYAQAAUhJWAACAlIQVAAAgJWEFAABISVgBAABSElYAAICUhBUAACAlYQUAAEhJWAEAAFISVgAAgJSEFQAAICVhBQAASElYAQAAUhJWAACAlIQVAAAgJWEFAABISVgBAABSElYAAICUhBUAACAlYQUAAEhJWAEAAFISVgAAgJSEFQAAICVhBQAASElYAQAAUhJWAACAlIQVAAAgJWEFAABISVgBAABSElYAAICUhBUAACAlYQUAAEhJWAEAAFISVgAAgJSEFYD8btwjAGokrADkJ6wAUCVhBQAASElYAQAAUhJWAACAlIQVAAAgJWEFAABISVgBAABSElYAAICUhBUAACAlYQUAAEhJWAEAAFISVgAAgJSEFQAAICVhBQAASElYAQAAUhJWAACAlIQVAAAgJWEFAABISVgBoBrT8XDH3QboDmEFgJrsudsA3SGsAAAAKQkrAABASsIKAACQkrACAACkJKwAAAApCSsAAEBKwgoAAJCSsAIAAKQkrAAAACkJKwAAQErCCgAAkJKwAgAApCSsAAAAKQkrAABASsIKAACQkrACAACkJKwAAAApCSsAAEBKwgoAAJCSsAIAAKQkrAAAACkJKwAAQErCCgAAkJKwAgAApCSsAAAAKQkrAABASsIKAACQkrACAACkJKwAAAApCSsAAEBKwgoAAJCSsAIAAKQkrAAAACkJKwAAQErCCgAAkJKwAgAApCSsAAAAKQkrAPn96R4BUCNhBQAASElYAQAAUhJWAACAlIQVAAAgJWEFAABISVgBAABSElYAAICUhBUAACAlYQUAAEhJWAEAAFISVgAAgJSEFQAAICVhBQAASElYAQAAUhJWAACAlIQVAAAgJWEFAABISVgBAABSElYAqMmeuw3QHcIKADXZcbcBukNYAQAAUhJWAACAlIQVAAAgJWEFAABISVgBAABSElYAAICUhBUAACAlYQUAAEhJWAEAAFISVgAAgJSEFQAAICVhBQAASElYAQAAUhJWAACAlIQVAAAgJWEFIL+f3aPW/Kcn7wOgCsIKADXZdbcBukNYAchvzz1qjbAC0CHCCkB+O9PxcMd9aoWwAtAhwgpAN6iurGg6Hu53+g0AVEhYAegGX7RXJ/ABdIywAtANP7lPK3MNATpGWAHoBpWV1bmGAB0jrAB0Qxmy18b0QnHtDNcDdIywAtAdv7pXL+baAXSQsALQHYfu1Yu5dgAdJKwAdMeu9bvL0wIG0F3CCkC3aGda3m9de8EA/E1YAeiWt9PxUJVgQXHy/9tOvFgAfiCsAHSPSsHi3nXlhQLwI2EFoHveRsWAJ8Q1EuwAOkxYAeie8iX8xH171ru4VgB0lLAC0E1vHRL5uJjreZ/19QGwGGEFoLtUVx53mvWFAbA4YQWgu/an46EB8num42E5ANJ5NAA9IKwAdNt7q4z/EddCVQWgJ4QVgG4rA+Rf3MNvTg3VA/SHsALQfXvT8bD6asJ0PDzR/gXQL8IKQD+U7WDVntQe7938DkDPCCsA/XFaY2CZjof75lQA+klYAeiXk5rOX4n3amYHoKeEFYB+KcPlF1Ft6LUIKhcG6gH6S1gB6J9ZYOltS1i8N0EFoOeEFYD+Ou3joZERVKwoBqjAv91kgF4rMyw/NU1zPBhNbrv8RqfjYQknZT1xtVvPAGqjsgLQf+XL/VWXB+/n5lMEFYCKCCsAddiNwPKha+82XvNVOfwywcsBYIOEFYC6vJ+Oh1+7sC2svMbyWstrTvByANgCYQWgPruxLSzliuMIKRfR9rWb4CUBsCXCCkC99udCy+G2r8K9kNL7c2IAeJ5tYACUYFCCwk3TNL83TXM2GE1uNnFVpuNhqZyUoPSbKgoA9w2iBeDClQFgznXTNH80TXM+GE2u27wwsdmr/O751dA8AE84EFYAeM5thJc/m6a5iT/Xz53bEuei7EXFpPz5Of5vhzkCsIgDbWAAPGdn1io2/9+bjoez/3gdgaaJ/65qCQCtEFYAWJVwAsBa2AYGAACkJKwAAAApCSsAAEBKwgoAAJCSsAIAAKQkrAAAACkJKwAAQErCCgAAkJKwAgAApCSsAAAAKQkrAABASsIKAACQkrACAACkJKwAAAApCSsAAEBKwgoAAJCSsAIAAKQkrAAAACkJKwAAQErCCgAAkJKwAgAApCSsAAAAKQkrAABASsIKAACQkrACAACkJKwAAAApCSsAAEBKwgoAAJCSsAIAAKQkrAAAACkJKwAAQErCCgAAkJKwAgAApCSsAAAAKQkrAABASsIKAACQkrACAACkJKwAAAApCSsAAEBKwgoAAJCSsAIAAKQkrAAAACkJKwAAQErCCgAAkJKwAgAApCSsAAAAKQkrAABASsIKAACQkrACAACkJKwAAAApCSsAAEBKwgoAAJCSsAIAAKQkrAAAACkJKwAAQErCCgAAkJKwAgAApCSsAAAAKf3bbQEqczn3dv+c+8//aZpmN/7z7tx/BgC2RFgB+uo2gkkJJNflz2A0uV3mvU7Hw70ILeWvPzdNs++nhZaUn8mbpmn+iv9cfjZvB6PJ9f2/ffwc7sSfvQjWe/EHoNcG0/Gw/PK9cJuBHihf9H4vIeWhL31tmI6Hh03T/NI0zWF8eYRFlGByHuH5ctng/Jj4Hf5LBGnhBeibA2EF6Lrype+shJR1BZTHRHD5NYIL3HcT4flsMJrcbODnsVQB38bPpDZGoA+EFaCzype/j+VpdVtPqV8qviS+jy+KUNoPPw9Gk/Mt/kzux8+k1kWgy4QVoHNKMDkejCZn2V640FK9Ek4+brrC9xQ/k0DHCStAp5RKyqdtV1KeE18QTz3VrsZlhJTLrG9YpQXoKGEF6ITyJfBoE33/bYqZllOD+L11GyHlU1fe4HQ8fBuhxUwL0AUHDoUEMru5e6oymhx0LagUMbPw+t7ZLvRDuaevuxRUmr9/Js/iZ/JjhC2A1FRWgIw698T6OdPx8EM80ab7jvvwsxntiie22QGJqawA6ZQnv6/6FFSav59ol7By5Gl2p91Gpa8XP5ulWjkYTd6U9xRnFAGkI6wAWczaao6yD9C/VLTgHAgsnXQdQaV3LX3lPQ1Gk9fCNJCRsAJs200Mzx9kWvm6LvEeBZZumQWVXv98Rph+FfMsACkIK8A2fYxqSrozU9ZJYOmUWVCp4l6V9xkti68shgAyEFaAbTiPuZQPtXwJvG8usJBXVUFlXsyzHMTPaOc28QH9IawAmzT78vemi6uI2xaB5ahf76o3bqM9serqV8yzlCrLsUogsA3CCrAJt7Hu9XUfB5RXES1wvdp81hNvapihWlRsQHvlZxXYNGEFWLdPfVxF3KbBaHJsPiCVY6H6RzHPcuygU2CThBVgXWariI9rb6VZkLWxOVwK1k8rFaeYZ3ljngVYN2EFaNtNtNBUsYq4LTHDY2Xsdt3GF3AWMBhNzmOe5aOgDayLsAK0pXxZ+Vi+vJQvMa7q8uKJvvaa7VEFfIFYdVxaw6paQQ5shrACtOEsWr4+uJorO+746++qy9rO+2lTrDo+ilXHAjfQGmEFWMVsFfGRVcTtiNY5X5o3TwteC2LV8UHMYPlMAFYmrAAvMTuDwiri9fDFebPO/By3K6pUr/0sA6sSVoBlzVYRe/q/JlGlcn03xxfqNYhVxx/ifBZzbMCLCCvAoi4jpBhC3gxfoDfjXAvjesU8y5uYZ7EhEFiKsAI85ybmUg58qducuNaeRq/f576/wSxinuW1M4WAZQgrwGPmVxHr59+O32t80xt042d786KF9FW0lAI8SVgBHnIWLV9WEW9RnFfjCfT6qKpsScyzHEdoERiBRwkrwLzLuVXEviTnoBVsfVzbLYt5loOYZ9FmCvxAWAGa+JJwFHMpnnLm8kftF2BNrs1g5RHzLK/iUFQPSoBvhBXgY5w+b1VuTsLjegiBCQ1Gk0/RGubzCLgjrEC9zmdzKVq+8op7I7C0zzVNKuZZjuJQSfcJKiesQH1mq4jfaIPpDGdTtEy7Y36D0eQ65lnemGeBegkrUI/yhP7YKuJO+rP2C9AyP/8dElvxXkfLqiowVEZYgTrMVhE716CbPFVul0pVx0Rr2IcILeZZoCLCCvTbZQzPW0XcYaUdpvZr0LL/36t3U5FYdXwUq45VyKACwgr0U3kS/yZWEfui2w+qK+3xJbfjYtVxCSxHWsOg34QV6JfbuVXEDrzrF2EF7omV66/icw/oIWEF+uM8QopVxPAECyb6ZW6e5VV8DgI9IqxA911bRQzULuZZ3sQ8i/ZX6AlhBbprtor4tSfFVRBEYQExz1K2hh2bZ4HuE1agmz5ZRVwdX7pgCfH5+Co+L4GOElagWy4jpBybS6nOXu0XAJYV8yzHEVpUoKGDhBXohvlVxNqBAJYQ8ywHMc/iMxQ6RFiB3O5WEQ9Gk1dWEQOsJuZZZquOVaehA4QVyOtstorYPaJpml0XoR3T8XC/D++Dl5tbdXzmMkJuwgrkcxmriI+0fDFHWIEWxTxLOQH/tXkWyEtYgTxKS8JRzKX4xck30/FQUGmXZQV8MxhNrmOe5cg8C+QjrEAOH2PLl5YEHiKstOs/fXoztCM+f1+bZ4FchBXYrtkq4g9WEfMEMxbtUlnhQdEa9iFCi4dHkICwAttxE3MpVhGziJ9dpVYJfzwpVh0fxarja1cLtkdYgc2aX0VsLoVFqQS0bDoeuqY8K1Ydv455FtVv2AJhBTbnbNby5ZqzqFizu+OCtU51hYXFPMvsfBZgg4QVWL/LOC/lyFwKL/CLi7YWritLmZtnKaHFIb2wIcIKrM/N3CpiPc+81KErtxb70/FQxYqlxTzLm5hnMXMIayaswHp8jGqKbTK8WMxVWFu8PoIgLxbzLKXKcmyeBdZHWIF2nVtFTIt+czHXyvVlZYPR5FO0hn1yNaF9wgq04zpWEb+xipg2RIuSJ//rtWcrGG2IeZbjOJ/FpkdokbACqynVk+Oy2tIqYlr2zhawjVBdoTVlPrHMKTZN88Y8C7RDWIGX+xQtX0r/tCqqKr5Eb8bb6XhoLohWDUaT85hn+WieBVYjrMDyZquIj82lsCaqKpv1vqY3y+bMrTq2bAVeaBAHjl24gPCsm2j5sl+ftYmqyldhZeNemTdjneL71nsHksJSDlRW4Hm3c6uIBRXW7b2gshUnFb5nNihWHZd5liPzLLA4YQWedhYhxSpi1i6evL5zpbfiMK4/rFWcv/XaPAssRliBh81WER9pDWGDPN3frlOn2rMJser4Q4QWFXt4grAC3ytPuY6sImbTpuNhCSrO/NiuXcP2bFJ5GFbO5yoPx+IhGXCPsAL/mK0itrWFjZqOh4fav9J4F/cDNibmWV7HPIvWMJgjrMDfq4hfWUXMNsQJ6qcufiqnTrZnG+Jh2ex8FqheI6xQuTKL8qZsZzGXwjbEfMQX27/S2TG/wrbMzbO8iodpUDVhhRrdrSIupwtbRcy2xBfhi5iTIJ9SWbkQWNiWmGc5iHkWD9SolrBCbc6i5euDO8+2zAUVrUa5CSxsXcyzlCrLsXkWaiSsUIvLuVXEPuzZGkGlcwQWUhiMJp+iNcwSGKoirNB3s1XEB1YRs20xtC2odI/AQgoxz3IU57P4nUYVhBX67KNVxGQRp6MLKt01CyzuH1s3GE2uY57ljXkW+k5YoY/OZ3MpWr7IYDoefoig4sl8t80Ci3NYSKEsiYl5lo/mWeirwdzTPui6m2j5Uhonhel4uBtnqOy7I73zKbYK+oJICvF5875pmrfuCD1yoLJCH5QvC8exilhQIYWoplwJKr31rtzfeOAHWxerjo9i1bHfhfSGygpddxZBxdNNUojP1FPnp1TlLKosZgdIYzoevo1Ki88iuuxAWKGrLiOkXLuDZKDlq3rlgcnn0h7m4QlZxAa7dxFaoIuEFTrnJp5g2vBFCvFl4H18IYCbeJByXv2VII14mHLSNI3lEHSNmRU64za2nbwWVMgi2iy+CirMKV8Kv0zHQ2uOSSPmWd7EPIuOBDpFZYUuOI8nlfrBSSE+N0+cmcICzNWRTjxoObFOnQ5QWSG167texdHkjaBCBqWVYjoenjrckSXcVd9iOxykEB0Kr2IFN6SmskJGtzGX4kOUFOaGVH/zJJIVOAuKdCwHITmVFdL5FKfPCyqkEKeVX8UQvaDCKnbjBPyL+IIIWxfzLAcxz6KLgXRUVsjiMp44+qAkhRiOPvG0kTVyCj7pRMuiKjJZqKywdSWclJmUA0GFDErL13Q8PHH6PBvwLuZZ3rrYZDEYTT7EPIvNm6QgrLAts7mUV84jIIvpePjOKmI2rDy9Pp2Oh1fR6QBbV6p9g9HkqBwXEJ0PsDXawNiGswgqKimkYBUxiVjVTjoxu3cSc1ewSU6wZ6Ou45ewpzSk4FRnEiuH4H4yz0IWtiKyJcIKG3EbIUX/KynM/dJ9746Q2E1UoX12kkY85HkfZwjBuhmwZ+0+xipiv2xJIYaZrwQVOmA35lkuzLOQRaw6PopVxzolWDuVFdbFKmJSsYqYHjDvRzrxAOhEaxhrorJC627u+gutIiaJWEV8ahUxPXBXFYxzMCCF6Jx4FZ0U0DqVFdpS5lI+x352SCFWETt5nj66iVlAq99Jw9IS1sCAPa04i1+attaQQnyunVqzSQUu4/P32s0mC+vgaZGwwkqsIiaVeKp3qt2LCnloRDqq27TAzAovVoY8XwsqZBBzKR/i9HlBhRqVeZav8eUQUhiMJp/iFHyVP15MWGFZtzFAbzaFFGITzVeriOHu6fXJdDz8atUxWcSq49cG8HkpYYVlXMeZKaopbF35MlbOn4i2Ly0G8I/SDnkR57OY2yKFeMj5Jh56wsKEFRZ1Fm1fPmTYqvLlK1YRX2j5giftR2vYh9Iq6VKxbbG97kBgYRnCCos4i9NqYatiLuUq+vOBxbyP0OLfG7YuNteZY2FhwgrPEVTYuul4eFj68G2VgRcr/96cTsfDK/MsbFscGn0gsLAIYYWnCCpsVbR8lXavL85MgVbsxTzLF/MsbFO0lWsJ41nCCo85F1TYllhFfGIVMaxNOWH8yjwL2ySwsAhhhYeUsqygwlbMrSJ2XgSs1060Vl6ZZ2FbYobFdw4eJaxwX3m6cWTrF5sWq4ivrCKGjduNeZYL8yxsQ2wJcw4LDxJWuO8onnLARsRcypdYRbznqsPW7Mc8y6nWMDYtzmFxjhs/EFaYdx5PN2DtYi5ltor40BWHNN7OzmdxS9iwI/Mr3CesMHOrZ5RNKauII6RYRQw53c2zlJXh8e8rrF2sNNYOxneEFWaOzamwbtPxcM8qYuiU8u/pl5hn8e8sazcYTT45f4V5wgrF9WA0OXMlWJdo+TqNaooBXuie/WgNOzHPwgYcu8jMCCs0PhRYp+l4+C5WEVuNCt33LkKL1eKszWA0uTRsz4ywwmV8KECrYhVxCSkn5lKgV8q/zycxz6JSyrqYXeGOsMLn6q8Arbq3iliPO/TXbqw6/mKehbaprjAjrNTtxqpi2jK3ivirVcRQlcPZqmPzLLTMA1WElcr5EKAV0/Hw7dwqYqBO7yO0mE+jFfFA9eQWZDEAAAyGSURBVMbVrJuwUjdVFVYScyml3etUyxcQ8yzlBPwr8yy05HcXsm7CSr3O4/AlWNrcKuILq4iBB+zFPMupeRZW5GiFygkr9fqz9gvAy8zNpWj1AJ5z1yJqnoWXigerDomsmLBSLy1gLGVuFfF7q4iBJezE58aVeRZeyFawigkrdbrRAsaiYhXxhVXEwIp2Y56ltIftuZgs4Q8Xq17CSp08oeBZMZdyEi1f5lKAtuxHleVUaxiLcHh13YSVOplX4UnRqlFCyjtXCliTt7PzWVxgFmBupVLCSp20gPGgmEu5ilXEnngC63Y3z1Lm4aw65hnCSqWElQopp3JfzKXMVhHrJQc2bTdWHV9Ydcwj/uvC1ElYqc9t7ReA70ULxpVVxEAC+9EadmKehXs8aK2UsFIfZVTuTMfDQ6uIgaTeRWgxNweVE1agMmVlaKwi/mIVMZBYeYhSKixX5lnwsLVewkp9tIFVam4V8ZVVxECH7MU8yxfzLPUajCa+v1RKWKnPX7VfgBpFK4VVxECXHc5WHZtngXoIK9Bjc6uIT8ylAD3xPkKLpSBQAWEFeihWEX+xihjoqfLw5TRWHWtrhR4TVurz/2q/AH0WcymzVcSHtV8PoPf2Y57l1DwL9JOwUh9P2XsqWiKurCIGKnT3+WeeBfpHWIGOm1tFfGoVMVCxnXhYU0KLynLPaPerl7BSH19meyJavk6tIgb4Tvk99yXmWXQTQMcJK/URVnpgbhWxbTgAD9uPKsup1rBeEDwrJaxUyJOm7opVxF+tIgZY2NtYdeycqW77T+0XoFbCSp1UVzomVhFfxCpi9w9gOeXhzkl52GP2obM8aK2UsFKnn2u/AF0xt4r4q7kUgJXtxqrjC6uOO8fvwEoJK3XyL3wHxCrir7HdBoD27Edr2Il5lvy0r9dNWKnTng/nvGIuZbaK2H0CWJ93EVosK8nNQ9aKCSv18i9+MnOriC/cH4CNKQ+FysawK/Msaf1S+wWombBSL//iJzI3l+LpHsB27MU8yxfzLHlEJ4gQWTFhpV5O902gnLIcq4jfa/kCSOEwWsM+aJlOwfeVygkr9drRo7s9c6uIv1hFDJDS+zhU0u/K7fqt5jePsFK7X2u/AJsWcyknVhEDdMJuzLNcmGfZvNgCZhNY5YSVuu1bB7g5c6uInaIM0C37Mc9yqjVso1RVEFbwQbBusYr4yipigM57O5tncSvXK5YcaMFDWKF5a+vJesRcypdYRayCBdAP5aHT+7IcpSxJcU/XxoHI3BFWKE5chfbEXEp56nZliwlAb5UHfV9insUDqRapqjBPWKE4NDjYjnjKdmUVMUA19mNr2Il5ltZ4iMo3wgozPhhWUJ6qWUUMULV3Mc9iicoK4uGprgS+EVaY2TMwuLy5VcRXVhEDVK9UVk5insXvhCVFZeq0Uy+atRNWmPde3+3i4umZVcQA3Lcbq44vLLFZynvdCdwnrHCfHfLPiFXEX6N1zrUC4DH7s1XHfrc+LWY+PfzjB8IK9+0pwT7s3ipiT34AWNT7CC02XD0gujp89+BBwgoPOTS/8o+5VcRfDf0B8EI70b1wZZ7lH3NzKipPPEhY4THvPQG6+xB9O7eKGABWtRfzLF9qn2eJoOLgZJ4krPCU01oDy9wq4lMtXwCswWGcz1LzPMupoMJzhBWeU1VgiZavU6uIAdiAnajcX1X6u1ZrNc8SVlhEFYFlbi6l+vY3ADZqN37XXvT9CIG51i+/a1mIsMKiTuPww96ZW0X83oAfAFu0H1WWXh4jEDM6ZlRYirDCMt7FQGAvPkBjFfGFVcQAJPN2dj5LX25MnKNyJaiwLGGFZc0GAjs7z3FvFbG5FAAy2onNnF/ji35nRWfGF90LvISwwkvsxtrFk65VWWL25qtVxAB0RPmd+yXmWTrVBRBt1ldOpmcVwgqreNeVDSZzH5gOngKgi/ajNSz9g8K5bV/mU1jZINp5LlxKVnTZNM3HwWhymelCxlOoE+sRAeiR26ZpPjdN82kwmtxmeVsRosqDzN88GKQlB8IKbSth5ffBaHK2zSsbP9e/CSkA9NgstJwNRpObbb3NeDD4WywGEFJok7DC2pQPzfPyIbqpD9B4olM+KH9VdgagMuUh4R+D0eR8U287Bv9/9WCQNRJW2IjrqLj80XabWByeVX6Gf7HZCwDuqi0lsPxRfve22SYWFZTyu/bnCCiqKKybsMJWXEaA+SsqMNeLfJjGz+pOVE1+ig9MH5QA8Ljr+PPf+P17OxhNrp+7XvEwcCd+1/4Uv3udScamCSukcx1PhWZUSwBgPW7j9+6M37lkc/Bvt4RkzJoAwGbsCChk55wVAAAgJWEFAABISVgBAAAyuhVWAACAdMrmun+1fe4FAABAG1RWAACAbO6OspiFldZONwUAAFjR3RlAs7Dy7EmmAAAAm6SyAgAAZPNnMxdW/nJ7AACATGZh5cZdAQAAkrjbWCysAAAA2dzlk8HsRU3Hw6lbBAAAbNtgNLnLKfPnrKiuAAAA2/bt0Pr5sGJ9MQAAsG3fcsl8WPnTbQEAALbs26ZilRUAACCTb21gg/kXZcgeAADYopvBaPJq9o//173XcenOAAAAW/JdHrkfVv5wVwAAgC35bo5eZQUAAMjiuzwyuP+ipuPh/zZNs+N2AQAAG3Q9GE1ez//j7ldWinN3BAAA2LAfurweCivmVgAAgE37/f4/74c2sEYrGAAAsFnfrSyeeaiy0mgFAwAANujB/PFYWNEKBgAAbMoPLWDNY21gzd+tYF+bptl1ewAAgDX6YQvYzGOVleaxdAMAANCiR3PHU2HlzB0AAADW7NHc8WhYGYwmNwbtAQCANTobjCa3j/3tn6qsFJ/dGQAAYE2ezBuPDtjPGLQHAADW4HIwmhw89bd9rrJSfHRnAACAlj2bM56trDSqKwAAQLseXVc8b5HKSqO6AgAAtGih2fiFKiuN6goAANCOhaoqzRKVlUZ1BQAAaMHxon+LhSsrzd/VlaumafbcIQAA4AWe3QA2b5nKSrNMCgIAAFglTywVVgajyaVT7QEAgBcop9VfL/M/W7ay0kQaevRIfAAAgHtuX9KltXRYGYwmN4uuGgMAACjLugajydIFj6UG7OcZtgcAABaw1FD9vJe0gc0cuTMAAMATblfJDS8OKzEc4+wVAADgMR9jjORFXtwGNqMdDAAAeMCL279mVmkDmzmyHQwAAJizUvvXzMphJdrBHBYJAADMHK3S/jXTRmWlBJazcshLG38vAACg0z4NRpNWDpJvJayEUl1Z6kRKAACgV8qcSmtdV62FlTjk5Y35FQAAqNJN5IHWtFlZmZ1uv9LEPwAA0Dl3hYuXnFL/lFbDSvPPwL0DIwEAoB5HkQNa1XpYaf4ZuLchDAAA+u+orYH6+9YSVpq/A8snG8IAAKDXjqNQsRYrn2D/nOl4eNo0zVs/owAA0Ctng9FkreMfaw8rjcACAAB9s/ag0mwqrDQCCwAA9MVGgkqzybDSCCwAANB1GwsqzToH7B8Sb8zQPQAAdM/xJoNKs+nKysx0PCzVldNt/LMBAIClHa1z69djthJWmn8Cy0nTNDvbeg0AAMCTZifTX27jMm0trDR/B5a9pmkuBBYAAEjnJoJK6yfTL2qrYaX5O7DsRGDZ2/ZrAQAA7lxGULnd5uXYeliZmY6HpSXsXY5XAwAA1fo4GE0+ZHjzacJK83dgOYzBe21hAACwWVudT3nIRlcXP2cwmpw3TfM6yk4AAMBmlO/hrzIFlSZbZWXedDwsLWHvVVkAAGBtbqPt61PGS5w2rDR/B5bdaAvbT/ByAACgTy7j/JSbrO8pdViZcSYLAAC05jZCynn2S5pqZuUxcVrmq6ZpUpanAACgIz7GbEr6oNJ0pbIyT2sYAAAsrYST48wtXw/pXFiZmY6H+zGAL7QAAMDDLmOAvpPbdjsbVmaEFgAA+EGnQ8pM58PKTISW35qmOczxigAAYOPKrPfnwWhy3YdL35uwMhMzLSW0vLU9DACACpTtXp9LUOnaTMpzehdW5sXK41+1iAEA0ENlaP6P2JzbS70OKzNRbTmM4LKX41UBAMDSSnvX7yWo9K2K8pAqwsq8ueDyi4oLAAAdUCoof9YSUOZVF1bmTcfDnQgsP8dfVV0AANi2y6ig/NmVwxvXpeqw8pDYKlb+/NQ0za4AAwDAGl3Hn7/KX7u+arhtwsoCpuPhXmwWm7WN/Rx/3RFmAAB4wnVs62qilauJysltX9YLr5OwsgYxF7PbuzcGAMBjSlXk1tVpUdM0/wepnMc0zFEZrgAAAABJRU5ErkJggg==;container=0;" vertex="1" parent="eyW_zcaQJhJMko1jQgtX-41">
          <mxGeometry x="124.89999999999998" y="20" width="30.1" height="24.64" as="geometry" />
        </mxCell>
        <mxCell id="xYn-PXcGyZTG0eCd45p5-1" style="edgeStyle=orthogonalEdgeStyle;rounded=0;orthogonalLoop=1;jettySize=auto;html=1;" edge="1" parent="1" source="xYn-PXcGyZTG0eCd45p5-2" target="eyW_zcaQJhJMko1jQgtX-42">
          <mxGeometry relative="1" as="geometry">
            <mxPoint x="540" y="565" as="targetPoint" />
          </mxGeometry>
        </mxCell>
        <mxCell id="xYn-PXcGyZTG0eCd45p5-2" value="K3S User" style="shape=actor;whiteSpace=wrap;html=1;labelPosition=center;verticalLabelPosition=bottom;align=center;verticalAlign=top;" vertex="1" parent="1">
          <mxGeometry x="531" y="642.6" width="40" height="60" as="geometry" />
        </mxCell>
        <mxCell id="xYn-PXcGyZTG0eCd45p5-3" value="kubectl commands" style="text;html=1;strokeColor=none;fillColor=none;align=center;verticalAlign=middle;whiteSpace=wrap;rounded=0;fontSize=16;fontStyle=2" vertex="1" parent="1">
          <mxGeometry x="550" y="588" width="120" height="30" as="geometry" />
        </mxCell>
        <mxCell id="eyW_zcaQJhJMko1jQgtX-15" value="k3s agent" style="rounded=1;whiteSpace=wrap;html=1;verticalAlign=top;labelPosition=center;verticalLabelPosition=middle;align=center;fontStyle=1" vertex="1" parent="1">
          <mxGeometry x="204.2" y="313.6" width="150" height="100" as="geometry" />
        </mxCell>
        <mxCell id="eyW_zcaQJhJMko1jQgtX-16" value="" style="image;sketch=0;aspect=fixed;html=1;points=[];align=center;fontSize=12;image=img/lib/mscae/Kubernetes.svg;direction=south;" vertex="1" parent="1">
          <mxGeometry x="189" y="294.40000000000003" width="38.4" height="40" as="geometry" />
        </mxCell>
        <mxCell id="eyW_zcaQJhJMko1jQgtX-17" value="kubelet/kubeproxy" style="sketch=0;html=1;dashed=0;whitespace=wrap;fillColor=#2875E2;strokeColor=#ffffff;points=[[0.005,0.63,0],[0.1,0.2,0],[0.9,0.2,0],[0.5,0,0],[0.995,0.63,0],[0.72,0.99,0],[0.5,1,0],[0.28,0.99,0]];verticalLabelPosition=bottom;align=center;verticalAlign=top;shape=mxgraph.kubernetes.icon;prIcon=node" vertex="1" parent="1">
          <mxGeometry x="254.2" y="339.6" width="50" height="48" as="geometry" />
        </mxCell>
        <mxCell id="H5LyelW8MneRmdd9rbQy-7" value="" style="shape=image;verticalLabelPosition=bottom;labelBackgroundColor=default;verticalAlign=top;aspect=fixed;imageAspect=0;image=data:image/png,iVBORw0KGgoAAAANSUhEUgAAAysAAAKYCAYAAABzfmczAAAACXBIWXMAAC4jAAAuIwF4pT92AAAgAElEQVR4nO3dTXIbV5Y24ERFzT/2HBFFrcDUFBOTKzC1AosrsLgCSSugtALSKxC9AtITTEmvQKwIzJvfCtBx6QMZovgDEAngZN7niVC4uqPKBjJpEG+enztoWMh0PNxrmmanaZr9+O//FP93E3/dcyUBAAiXcxfipmma/879/28Ho8m1C/U8YeWe6Xi4G8Gj/Pm5aZrd+AMAAG0qIaaElr/ir9eD0eTGFf5H9WElKib7EUz2BBMAALboJqovf5a/1h5eqgwr0/HwsGmaXyKkCCcAAGRVwsp5CS+D0eS8trtUTViZjodvI6AcJng5AACwrNsILn/UElx6HVam42GpnPwaAWVngf8JAAB0wSy4fO7zsH7vwsp0PNyJcPJeixcAABUoYeVzCS+D0eS2T2+3N2Eltnj91jTNW1UUAAAqdBuh5VNfQkvnw0qElPcRUgAAgKY5a5rmY9e3iXU2rAgpAADwrE6Hls6FlZhJORFSAABgYR+72B7WqbAyHQ8/xFyKmRQAAFhOCSrHg9HkrCvXrRNhJVYQn9ruBQAAK7uO0HKZ/VKmDitavgAAYG0+xTxL2tawtGFlOh4eRjVFyxcAAKxHGbw/ylplSRdWVFMAAGDjUlZZUoWV6Xi41zTNF7MpAACwcddRZbnOcun/leA13JmOh++aprkSVAAAYCtK4eBiOh6m6XDaemVF2xcAAKRzNhhNjrb9orYaVuIU+i+R4gAAgDxKO9jBNudYthZWYj7lwrYvAABIq2wLe7OtOZatzKxEH5ygAgAAue3GHMv+Nl7lxisrEVRON/3PBQAAVlI2hZ1t8hJutLISG78EFQAA6J7TTW8K21hlZToentr4BQAAnbexCstGwoqgAgAAvbKRwLL2NrDpePhBUAEAgF7ZSEvYWisrhukBAKDX1lphWVtYEVQAAKAK5RyW83W80bWEldjDfLGOvzcAAJDKbZx03/rBka2HFSfTAwBAdUpgeTUYTW7bfOOtDthPx8MSUL4IKgAAUJWdOOm+1RzQ9jawL3EkPwAAUJfSYXXS5jtuLazEiuL9tv5+AABA57ydjofv2nrRrcysTMfDw6iqAAAAvG5j4H7lsBJ9aV/NqQAAAOEmAstKA/dttIEZqAcAAObttnHm4kphJfrRzKkAAAD3Hca4yIu9uA1sOh6WtHSlqgIAADxipfNXVqmsnAoqAADAE3ZWaQd7UVjR/gUAACzoxe1gS7eB2f4FAAAs6UXbwV5SWTkRVAAAgCWUefelD4tcqrIyHQ/3YqgeAABgWWXY/mbR/82ylZUTtwMAAHihpfLEwpWV6XhYBuov3BUAAGAFB4PR5HKR//kylZWVT6AEAACq937RC7BQWJmOh29jKAYAAGAV+9G19axFKysLpx8AAIA28sWzYSUOcFFVAQAA2rJQdWWRyspvbgkAANCyZ3PGk9vAbAADAADW6MlzV56rrPzqzgAAAGvyZHXl0crKdDzcaZrmf90VAABgTW6junL70N/+qcrKW3cEAABYo1IgOXzsb/9UWDFYDwAArNujoycPtoFNx8O9pmmu3BYAAGADHhy0f6yyYrAeAADYlAdHUB4LK+ZVAACATXmwWPJDWImzVXbcFgAAYEN2YxTlOw9VVn5xRwAAgA3bv/+PeyisPLo6DAAAYE1+aAX7bhuYLWAAAMAW/c/8AZH3Kys/lF4AAAA25Lsur/th5Wd3AQAA2JLv8ojKCgAAkMV3eeRbWIl5FSuLAQCAbSkrjHdn/+z5yoqqCgAAsG3fzluZDys/uS0AAMCWPRhWfjgxEgAAYMO+DdkLKwAAQCbfV1ZiuB4AAGDbdqbj4U4zV1nZdUsAAIAk7oops7CisgIAAGTxXVj5j9sCAAAkoQ0MAABI6W4jmLACAACkJKwAAADZfDezAgAAkMXfMyvOWAEAADL61yy1AAAAZDEdD3f/7W4AsILLJ/6nu2YiAViBsALAQkoouW6a5q+maW4Go8lTIeU70/FwJwYly5+fmqbZF2IAWISwAsBDbpqmOW+a5s/BaHK+yhUajCa3EXa+BZxS2o/Q8kvTNIfuAAAPGUzHw/LL4sLVAaBpmrOmaX5fpnKyqqi8lMDy22xVJQA0TXMgrABQKh+fm6b5FFWQrYnfSb+ptgBQwoo2MIB6pQkpM1HRuYw2sdNoFQOgUsIKQJ1Ku9dxlpBy32A0KTMzB1FpOTWQD1AnJ9gD1OUuBAxGk6OsQWVeqbQMRpNXTdN8zPOqANgUYQWgHqWa8nqTw/NtGYwmH8prj/XJAFRCWAHov1JBOepKNeUxg9GkBJWDCF0AVMDMCkC/3UbbVy8qEhG2jqbjYTmc8iTBSwJgjVRWAPqrBJRXfQkq8wajyacSWvK8IgDWQVgB6KfrqKh0tu3rOYPR5ExgAeg3YQWgf3ofVGYEFoB+E1YA+qWaoDIjsAD0l7AC0B+zrV/VBJWZCCzHOV4NAG0RVgD6400fh+kXFUP31hoD9IiwAtAPH7t42OMaHDs4EqA/hBWA7ruME96rNzuHpfbrANAXwgpAt/lyfk+0wn1M9aIAeBFhBaDbPg9Gkxv38HtRadIOBtBxwgpAd91o/3qS7WAAHSesAHSX9q8nxMKB87QvEIBnCSsA3XRp+9dCVFcAOkxYAegmA+QLiHkeZ68AdJSwAtA916oqS/ncodcKwBxhBaB7fPleQqwyFu4AOkhYAeiWW0PjL/J7B18zQPWEFYBuOY9T2lmOgAfQQcIKQLf84X4tLwKewALQMcIKQHfcDkYTX7hfTtAD6BhhBaA7DImvRtAD6BhhBaA7/nSvXi5awa67+voBaiSsAHSHL9qrU50C6BBhBaAjHATZir968B4AqiGsAHSDqko7bvrwJgBqIawAdIMv2S1QnQLoFmEFoBu0LwFQHWEFgNqorgB0hLAC0A1mVgCojrAC0A237hMAtRFWAACAlIQVAAAgJWEFAABISVgBAABSElYAAICUhBUAACAlYQUAAEhJWAEAAFISVgAAgJSEFQAAICVhBQAASElYAQAAUhJWAACAlIQVAAAgJWEFAABISVgBAABSElYAAICUhBUAACAlYQUAAEhJWAEAAFISVgAAgJSEFQAAICVhBQAASElYAQAAUhJWAACAlIQVAAAgJWEFAABISVgBAABSElYAAICUhBUAACAlYQUAAEhJWAEAAFISVgAAgJSEFYAOGIwml+4TALURVgAAgJSEFQAAICVhBQAASElYAQAAUhJWAACAlIQVAAAgJWEFAABISVgBAABSElYAAICUhBUAACAlYQUAAEhJWAEAAFISVgAAgJSEFQAAICVhBQAASElYAQAAUhJWAACAlIQVAAAgJWEFgNrsueMA3SCsAFCbHXccoBuEFQAAICVhBQAASElYAQAAUhJWAACAlIQVAAAgJWEFAABISVgBAABSElYAAICUhBUAACAlYQUAAEhJWAEAAFISVgAAgJSEFQAAICVhBQAASElYAQAAUhJWAACAlIQVAAAgJWEFAABISVgBAABSElYAAICUhBUAACAlYQUAAEhJWAEAAFISVgAAgJSEFQAAICVhBQAASElYAQAAUhJWAACAlIQVAAAgJWEFAABISVgBAABSElYAAICUhBUAACAlYQUAAEhJWAEAAFISVgAAgJSEFYD8btwjAGokrADkJ6wAUCVhBQAASElYAQAAUhJWAACAlIQVAAAgJWEFAABISVgBAABSElYAAICUhBUAACAlYQUAAEhJWAEAAFISVgAAgJSEFQAAICVhBQAASElYAQAAUhJWAACAlIQVAAAgJWEFAABISVgBoBrT8XDH3QboDmEFgJrsudsA3SGsAAAAKQkrAABASsIKAACQkrACAACkJKwAAAApCSsAAEBKwgoAAJCSsAIAAKQkrAAAACkJKwAAQErCCgAAkJKwAgAApCSsAAAAKQkrAABASsIKAACQkrACAACkJKwAAAApCSsAAEBKwgoAAJCSsAIAAKQkrAAAACkJKwAAQErCCgAAkJKwAgAApCSsAAAAKQkrAABASsIKAACQkrACAACkJKwAAAApCSsAAEBKwgoAAJCSsAIAAKQkrAAAACkJKwAAQErCCgAAkJKwAgAApCSsAAAAKQkrAPn96R4BUCNhBQAASElYAQAAUhJWAACAlIQVAAAgJWEFAABISVgBAABSElYAAICUhBUAACAlYQUAAEhJWAEAAFISVgAAgJSEFQAAICVhBQAASElYAQAAUhJWAACAlIQVAAAgJWEFAABISVgBAABSElYAqMmeuw3QHcIKADXZcbcBukNYAQAAUhJWAACAlIQVAAAgJWEFAABISVgBAABSElYAAICUhBUAACAlYQUAAEhJWAEAAFISVgAAgJSEFQAAICVhBQAASElYAQAAUhJWAACAlIQVAAAgJWEFIL+f3aPW/Kcn7wOgCsIKADXZdbcBukNYAchvzz1qjbAC0CHCCkB+O9PxcMd9aoWwAtAhwgpAN6iurGg6Hu53+g0AVEhYAegGX7RXJ/ABdIywAtANP7lPK3MNATpGWAHoBpWV1bmGAB0jrAB0Qxmy18b0QnHtDNcDdIywAtAdv7pXL+baAXSQsALQHYfu1Yu5dgAdJKwAdMeu9bvL0wIG0F3CCkC3aGda3m9de8EA/E1YAeiWt9PxUJVgQXHy/9tOvFgAfiCsAHSPSsHi3nXlhQLwI2EFoHveRsWAJ8Q1EuwAOkxYAeie8iX8xH171ru4VgB0lLAC0E1vHRL5uJjreZ/19QGwGGEFoLtUVx53mvWFAbA4YQWgu/an46EB8num42E5ANJ5NAA9IKwAdNt7q4z/EddCVQWgJ4QVgG4rA+Rf3MNvTg3VA/SHsALQfXvT8bD6asJ0PDzR/gXQL8IKQD+U7WDVntQe7938DkDPCCsA/XFaY2CZjof75lQA+klYAeiXk5rOX4n3amYHoKeEFYB+KcPlF1Ft6LUIKhcG6gH6S1gB6J9ZYOltS1i8N0EFoOeEFYD+Ou3joZERVKwoBqjAv91kgF4rMyw/NU1zPBhNbrv8RqfjYQknZT1xtVvPAGqjsgLQf+XL/VWXB+/n5lMEFYCKCCsAddiNwPKha+82XvNVOfwywcsBYIOEFYC6vJ+Oh1+7sC2svMbyWstrTvByANgCYQWgPruxLSzliuMIKRfR9rWb4CUBsCXCCkC99udCy+G2r8K9kNL7c2IAeJ5tYACUYFCCwk3TNL83TXM2GE1uNnFVpuNhqZyUoPSbKgoA9w2iBeDClQFgznXTNH80TXM+GE2u27wwsdmr/O751dA8AE84EFYAeM5thJc/m6a5iT/Xz53bEuei7EXFpPz5Of5vhzkCsIgDbWAAPGdn1io2/9+bjoez/3gdgaaJ/65qCQCtEFYAWJVwAsBa2AYGAACkJKwAAAApCSsAAEBKwgoAAJCSsAIAAKQkrAAAACkJKwAAQErCCgAAkJKwAgAApCSsAAAAKQkrAABASsIKAACQkrACAACkJKwAAAApCSsAAEBKwgoAAJCSsAIAAKQkrAAAACkJKwAAQErCCgAAkJKwAgAApCSsAAAAKQkrAABASsIKAACQkrACAACkJKwAAAApCSsAAEBKwgoAAJCSsAIAAKQkrAAAACkJKwAAQErCCgAAkJKwAgAApCSsAAAAKQkrAABASsIKAACQkrACAACkJKwAAAApCSsAAEBKwgoAAJCSsAIAAKQkrAAAACkJKwAAQErCCgAAkJKwAgAApCSsAAAAKQkrAABASsIKAACQkrACAACkJKwAAAApCSsAAEBKwgoAAJCSsAIAAKQkrAAAACkJKwAAQErCCgAAkJKwAgAApCSsAAAAKf3bbQEqczn3dv+c+8//aZpmN/7z7tx/BgC2RFgB+uo2gkkJJNflz2A0uV3mvU7Hw70ILeWvPzdNs++nhZaUn8mbpmn+iv9cfjZvB6PJ9f2/ffwc7sSfvQjWe/EHoNcG0/Gw/PK9cJuBHihf9H4vIeWhL31tmI6Hh03T/NI0zWF8eYRFlGByHuH5ctng/Jj4Hf5LBGnhBeibA2EF6Lrype+shJR1BZTHRHD5NYIL3HcT4flsMJrcbODnsVQB38bPpDZGoA+EFaCzype/j+VpdVtPqV8qviS+jy+KUNoPPw9Gk/Mt/kzux8+k1kWgy4QVoHNKMDkejCZn2V640FK9Ek4+brrC9xQ/k0DHCStAp5RKyqdtV1KeE18QTz3VrsZlhJTLrG9YpQXoKGEF6ITyJfBoE33/bYqZllOD+L11GyHlU1fe4HQ8fBuhxUwL0AUHDoUEMru5e6oymhx0LagUMbPw+t7ZLvRDuaevuxRUmr9/Js/iZ/JjhC2A1FRWgIw698T6OdPx8EM80ab7jvvwsxntiie22QGJqawA6ZQnv6/6FFSav59ol7By5Gl2p91Gpa8XP5ulWjkYTd6U9xRnFAGkI6wAWczaao6yD9C/VLTgHAgsnXQdQaV3LX3lPQ1Gk9fCNJCRsAJs200Mzx9kWvm6LvEeBZZumQWVXv98Rph+FfMsACkIK8A2fYxqSrozU9ZJYOmUWVCp4l6V9xkti68shgAyEFaAbTiPuZQPtXwJvG8usJBXVUFlXsyzHMTPaOc28QH9IawAmzT78vemi6uI2xaB5ahf76o3bqM9serqV8yzlCrLsUogsA3CCrAJt7Hu9XUfB5RXES1wvdp81hNvapihWlRsQHvlZxXYNGEFWLdPfVxF3KbBaHJsPiCVY6H6RzHPcuygU2CThBVgXWariI9rb6VZkLWxOVwK1k8rFaeYZ3ljngVYN2EFaNtNtNBUsYq4LTHDY2Xsdt3GF3AWMBhNzmOe5aOgDayLsAK0pXxZ+Vi+vJQvMa7q8uKJvvaa7VEFfIFYdVxaw6paQQ5shrACtOEsWr4+uJorO+746++qy9rO+2lTrDo+ilXHAjfQGmEFWMVsFfGRVcTtiNY5X5o3TwteC2LV8UHMYPlMAFYmrAAvMTuDwiri9fDFebPO/By3K6pUr/0sA6sSVoBlzVYRe/q/JlGlcn03xxfqNYhVxx/ifBZzbMCLCCvAoi4jpBhC3gxfoDfjXAvjesU8y5uYZ7EhEFiKsAI85ybmUg58qducuNaeRq/f576/wSxinuW1M4WAZQgrwGPmVxHr59+O32t80xt042d786KF9FW0lAI8SVgBHnIWLV9WEW9RnFfjCfT6qKpsScyzHEdoERiBRwkrwLzLuVXEviTnoBVsfVzbLYt5loOYZ9FmCvxAWAGa+JJwFHMpnnLm8kftF2BNrs1g5RHzLK/iUFQPSoBvhBXgY5w+b1VuTsLjegiBCQ1Gk0/RGubzCLgjrEC9zmdzKVq+8op7I7C0zzVNKuZZjuJQSfcJKiesQH1mq4jfaIPpDGdTtEy7Y36D0eQ65lnemGeBegkrUI/yhP7YKuJO+rP2C9AyP/8dElvxXkfLqiowVEZYgTrMVhE716CbPFVul0pVx0Rr2IcILeZZoCLCCvTbZQzPW0XcYaUdpvZr0LL/36t3U5FYdXwUq45VyKACwgr0U3kS/yZWEfui2w+qK+3xJbfjYtVxCSxHWsOg34QV6JfbuVXEDrzrF2EF7omV66/icw/oIWEF+uM8QopVxPAECyb6ZW6e5VV8DgI9IqxA911bRQzULuZZ3sQ8i/ZX6AlhBbprtor4tSfFVRBEYQExz1K2hh2bZ4HuE1agmz5ZRVwdX7pgCfH5+Co+L4GOElagWy4jpBybS6nOXu0XAJYV8yzHEVpUoKGDhBXohvlVxNqBAJYQ8ywHMc/iMxQ6RFiB3O5WEQ9Gk1dWEQOsJuZZZquOVaehA4QVyOtstorYPaJpml0XoR3T8XC/D++Dl5tbdXzmMkJuwgrkcxmriI+0fDFHWIEWxTxLOQH/tXkWyEtYgTxKS8JRzKX4xck30/FQUGmXZQV8MxhNrmOe5cg8C+QjrEAOH2PLl5YEHiKstOs/fXoztCM+f1+bZ4FchBXYrtkq4g9WEfMEMxbtUlnhQdEa9iFCi4dHkICwAttxE3MpVhGziJ9dpVYJfzwpVh0fxarja1cLtkdYgc2aX0VsLoVFqQS0bDoeuqY8K1Ydv455FtVv2AJhBTbnbNby5ZqzqFizu+OCtU51hYXFPMvsfBZgg4QVWL/LOC/lyFwKL/CLi7YWritLmZtnKaHFIb2wIcIKrM/N3CpiPc+81KErtxb70/FQxYqlxTzLm5hnMXMIayaswHp8jGqKbTK8WMxVWFu8PoIgLxbzLKXKcmyeBdZHWIF2nVtFTIt+czHXyvVlZYPR5FO0hn1yNaF9wgq04zpWEb+xipg2RIuSJ//rtWcrGG2IeZbjOJ/FpkdokbACqynVk+Oy2tIqYlr2zhawjVBdoTVlPrHMKTZN88Y8C7RDWIGX+xQtX0r/tCqqKr5Eb8bb6XhoLohWDUaT85hn+WieBVYjrMDyZquIj82lsCaqKpv1vqY3y+bMrTq2bAVeaBAHjl24gPCsm2j5sl+ftYmqyldhZeNemTdjneL71nsHksJSDlRW4Hm3c6uIBRXW7b2gshUnFb5nNihWHZd5liPzLLA4YQWedhYhxSpi1i6evL5zpbfiMK4/rFWcv/XaPAssRliBh81WER9pDWGDPN3frlOn2rMJser4Q4QWFXt4grAC3ytPuY6sImbTpuNhCSrO/NiuXcP2bFJ5GFbO5yoPx+IhGXCPsAL/mK0itrWFjZqOh4fav9J4F/cDNibmWV7HPIvWMJgjrMDfq4hfWUXMNsQJ6qcufiqnTrZnG+Jh2ex8FqheI6xQuTKL8qZsZzGXwjbEfMQX27/S2TG/wrbMzbO8iodpUDVhhRrdrSIupwtbRcy2xBfhi5iTIJ9SWbkQWNiWmGc5iHkWD9SolrBCbc6i5euDO8+2zAUVrUa5CSxsXcyzlCrLsXkWaiSsUIvLuVXEPuzZGkGlcwQWUhiMJp+iNcwSGKoirNB3s1XEB1YRs20xtC2odI/AQgoxz3IU57P4nUYVhBX67KNVxGQRp6MLKt01CyzuH1s3GE2uY57ljXkW+k5YoY/OZ3MpWr7IYDoefoig4sl8t80Ci3NYSKEsiYl5lo/mWeirwdzTPui6m2j5Uhonhel4uBtnqOy7I73zKbYK+oJICvF5875pmrfuCD1yoLJCH5QvC8exilhQIYWoplwJKr31rtzfeOAHWxerjo9i1bHfhfSGygpddxZBxdNNUojP1FPnp1TlLKosZgdIYzoevo1Ki88iuuxAWKGrLiOkXLuDZKDlq3rlgcnn0h7m4QlZxAa7dxFaoIuEFTrnJp5g2vBFCvFl4H18IYCbeJByXv2VII14mHLSNI3lEHSNmRU64za2nbwWVMgi2iy+CirMKV8Kv0zHQ2uOSSPmWd7EPIuOBDpFZYUuOI8nlfrBSSE+N0+cmcICzNWRTjxoObFOnQ5QWSG167texdHkjaBCBqWVYjoenjrckSXcVd9iOxykEB0Kr2IFN6SmskJGtzGX4kOUFOaGVH/zJJIVOAuKdCwHITmVFdL5FKfPCyqkEKeVX8UQvaDCKnbjBPyL+IIIWxfzLAcxz6KLgXRUVsjiMp44+qAkhRiOPvG0kTVyCj7pRMuiKjJZqKywdSWclJmUA0GFDErL13Q8PHH6PBvwLuZZ3rrYZDEYTT7EPIvNm6QgrLAts7mUV84jIIvpePjOKmI2rDy9Pp2Oh1fR6QBbV6p9g9HkqBwXEJ0PsDXawNiGswgqKimkYBUxiVjVTjoxu3cSc1ewSU6wZ6Ou45ewpzSk4FRnEiuH4H4yz0IWtiKyJcIKG3EbIUX/KynM/dJ9746Q2E1UoX12kkY85HkfZwjBuhmwZ+0+xipiv2xJIYaZrwQVOmA35lkuzLOQRaw6PopVxzolWDuVFdbFKmJSsYqYHjDvRzrxAOhEaxhrorJC627u+gutIiaJWEV8ahUxPXBXFYxzMCCF6Jx4FZ0U0DqVFdpS5lI+x352SCFWETt5nj66iVlAq99Jw9IS1sCAPa04i1+attaQQnyunVqzSQUu4/P32s0mC+vgaZGwwkqsIiaVeKp3qt2LCnloRDqq27TAzAovVoY8XwsqZBBzKR/i9HlBhRqVeZav8eUQUhiMJp/iFHyVP15MWGFZtzFAbzaFFGITzVeriOHu6fXJdDz8atUxWcSq49cG8HkpYYVlXMeZKaopbF35MlbOn4i2Ly0G8I/SDnkR57OY2yKFeMj5Jh56wsKEFRZ1Fm1fPmTYqvLlK1YRX2j5giftR2vYh9Iq6VKxbbG97kBgYRnCCos4i9NqYatiLuUq+vOBxbyP0OLfG7YuNteZY2FhwgrPEVTYuul4eFj68G2VgRcr/96cTsfDK/MsbFscGn0gsLAIYYWnCCpsVbR8lXavL85MgVbsxTzLF/MsbFO0lWsJ41nCCo85F1TYllhFfGIVMaxNOWH8yjwL2ySwsAhhhYeUsqygwlbMrSJ2XgSs1060Vl6ZZ2FbYobFdw4eJaxwX3m6cWTrF5sWq4ivrCKGjduNeZYL8yxsQ2wJcw4LDxJWuO8onnLARsRcypdYRbznqsPW7Mc8y6nWMDYtzmFxjhs/EFaYdx5PN2DtYi5ltor40BWHNN7OzmdxS9iwI/Mr3CesMHOrZ5RNKauII6RYRQw53c2zlJXh8e8rrF2sNNYOxneEFWaOzamwbtPxcM8qYuiU8u/pl5hn8e8sazcYTT45f4V5wgrF9WA0OXMlWJdo+TqNaooBXuie/WgNOzHPwgYcu8jMCCs0PhRYp+l4+C5WEVuNCt33LkKL1eKszWA0uTRsz4ywwmV8KECrYhVxCSkn5lKgV8q/zycxz6JSyrqYXeGOsMLn6q8Arbq3iliPO/TXbqw6/mKehbaprjAjrNTtxqpi2jK3ivirVcRQlcPZqmPzLLTMA1WElcr5EKAV0/Hw7dwqYqBO7yO0mE+jFfFA9eQWZDEAAAyGSURBVMbVrJuwUjdVFVYScyml3etUyxcQ8yzlBPwr8yy05HcXsm7CSr3O4/AlWNrcKuILq4iBB+zFPMupeRZW5GiFygkr9fqz9gvAy8zNpWj1AJ5z1yJqnoWXigerDomsmLBSLy1gLGVuFfF7q4iBJezE58aVeRZeyFawigkrdbrRAsaiYhXxhVXEwIp2Y56ltIftuZgs4Q8Xq17CSp08oeBZMZdyEi1f5lKAtuxHleVUaxiLcHh13YSVOplX4UnRqlFCyjtXCliTt7PzWVxgFmBupVLCSp20gPGgmEu5ilXEnngC63Y3z1Lm4aw65hnCSqWElQopp3JfzKXMVhHrJQc2bTdWHV9Ydcwj/uvC1ElYqc9t7ReA70ULxpVVxEAC+9EadmKehXs8aK2UsFIfZVTuTMfDQ6uIgaTeRWgxNweVE1agMmVlaKwi/mIVMZBYeYhSKixX5lnwsLVewkp9tIFVam4V8ZVVxECH7MU8yxfzLPUajCa+v1RKWKnPX7VfgBpFK4VVxECXHc5WHZtngXoIK9Bjc6uIT8ylAD3xPkKLpSBQAWEFeihWEX+xihjoqfLw5TRWHWtrhR4TVurz/2q/AH0WcymzVcSHtV8PoPf2Y57l1DwL9JOwUh9P2XsqWiKurCIGKnT3+WeeBfpHWIGOm1tFfGoVMVCxnXhYU0KLynLPaPerl7BSH19meyJavk6tIgb4Tvk99yXmWXQTQMcJK/URVnpgbhWxbTgAD9uPKsup1rBeEDwrJaxUyJOm7opVxF+tIgZY2NtYdeycqW77T+0XoFbCSp1UVzomVhFfxCpi9w9gOeXhzkl52GP2obM8aK2UsFKnn2u/AF0xt4r4q7kUgJXtxqrjC6uOO8fvwEoJK3XyL3wHxCrir7HdBoD27Edr2Il5lvy0r9dNWKnTng/nvGIuZbaK2H0CWJ93EVosK8nNQ9aKCSv18i9+MnOriC/cH4CNKQ+FysawK/Msaf1S+wWombBSL//iJzI3l+LpHsB27MU8yxfzLHlEJ4gQWTFhpV5O902gnLIcq4jfa/kCSOEwWsM+aJlOwfeVygkr9drRo7s9c6uIv1hFDJDS+zhU0u/K7fqt5jePsFK7X2u/AJsWcyknVhEDdMJuzLNcmGfZvNgCZhNY5YSVuu1bB7g5c6uInaIM0C37Mc9yqjVso1RVEFbwQbBusYr4yipigM57O5tncSvXK5YcaMFDWKF5a+vJesRcypdYRayCBdAP5aHT+7IcpSxJcU/XxoHI3BFWKE5chfbEXEp56nZliwlAb5UHfV9insUDqRapqjBPWKE4NDjYjnjKdmUVMUA19mNr2Il5ltZ4iMo3wgozPhhWUJ6qWUUMULV3Mc9iicoK4uGprgS+EVaY2TMwuLy5VcRXVhEDVK9UVk5insXvhCVFZeq0Uy+atRNWmPde3+3i4umZVcQA3Lcbq44vLLFZynvdCdwnrHCfHfLPiFXEX6N1zrUC4DH7s1XHfrc+LWY+PfzjB8IK9+0pwT7s3ipiT34AWNT7CC02XD0gujp89+BBwgoPOTS/8o+5VcRfDf0B8EI70b1wZZ7lH3NzKipPPEhY4THvPQG6+xB9O7eKGABWtRfzLF9qn2eJoOLgZJ4krPCU01oDy9wq4lMtXwCswWGcz1LzPMupoMJzhBWeU1VgiZavU6uIAdiAnajcX1X6u1ZrNc8SVlhEFYFlbi6l+vY3ADZqN37XXvT9CIG51i+/a1mIsMKiTuPww96ZW0X83oAfAFu0H1WWXh4jEDM6ZlRYirDCMt7FQGAvPkBjFfGFVcQAJPN2dj5LX25MnKNyJaiwLGGFZc0GAjs7z3FvFbG5FAAy2onNnF/ji35nRWfGF90LvISwwkvsxtrFk65VWWL25qtVxAB0RPmd+yXmWTrVBRBt1ldOpmcVwgqreNeVDSZzH5gOngKgi/ajNSz9g8K5bV/mU1jZINp5LlxKVnTZNM3HwWhymelCxlOoE+sRAeiR26ZpPjdN82kwmtxmeVsRosqDzN88GKQlB8IKbSth5ffBaHK2zSsbP9e/CSkA9NgstJwNRpObbb3NeDD4WywGEFJok7DC2pQPzfPyIbqpD9B4olM+KH9VdgagMuUh4R+D0eR8U287Bv9/9WCQNRJW2IjrqLj80XabWByeVX6Gf7HZCwDuqi0lsPxRfve22SYWFZTyu/bnCCiqKKybsMJWXEaA+SsqMNeLfJjGz+pOVE1+ig9MH5QA8Ljr+PPf+P17OxhNrp+7XvEwcCd+1/4Uv3udScamCSukcx1PhWZUSwBgPW7j9+6M37lkc/Bvt4RkzJoAwGbsCChk55wVAAAgJWEFAABISVgBAAAyuhVWAACAdMrmun+1fe4FAABAG1RWAACAbO6OspiFldZONwUAAFjR3RlAs7Dy7EmmAAAAm6SyAgAAZPNnMxdW/nJ7AACATGZh5cZdAQAAkrjbWCysAAAA2dzlk8HsRU3Hw6lbBAAAbNtgNLnLKfPnrKiuAAAA2/bt0Pr5sGJ9MQAAsG3fcsl8WPnTbQEAALbs26ZilRUAACCTb21gg/kXZcgeAADYopvBaPJq9o//173XcenOAAAAW/JdHrkfVv5wVwAAgC35bo5eZQUAAMjiuzwyuP+ipuPh/zZNs+N2AQAAG3Q9GE1ez//j7ldWinN3BAAA2LAfurweCivmVgAAgE37/f4/74c2sEYrGAAAsFnfrSyeeaiy0mgFAwAANujB/PFYWNEKBgAAbMoPLWDNY21gzd+tYF+bptl1ewAAgDX6YQvYzGOVleaxdAMAANCiR3PHU2HlzB0AAADW7NHc8WhYGYwmNwbtAQCANTobjCa3j/3tn6qsFJ/dGQAAYE2ezBuPDtjPGLQHAADW4HIwmhw89bd9rrJSfHRnAACAlj2bM56trDSqKwAAQLseXVc8b5HKSqO6AgAAtGih2fiFKiuN6goAANCOhaoqzRKVlUZ1BQAAaMHxon+LhSsrzd/VlaumafbcIQAA4AWe3QA2b5nKSrNMCgIAAFglTywVVgajyaVT7QEAgBcop9VfL/M/W7ay0kQaevRIfAAAgHtuX9KltXRYGYwmN4uuGgMAACjLugajydIFj6UG7OcZtgcAABaw1FD9vJe0gc0cuTMAAMATblfJDS8OKzEc4+wVAADgMR9jjORFXtwGNqMdDAAAeMCL279mVmkDmzmyHQwAAJizUvvXzMphJdrBHBYJAADMHK3S/jXTRmWlBJazcshLG38vAACg0z4NRpNWDpJvJayEUl1Z6kRKAACgV8qcSmtdV62FlTjk5Y35FQAAqNJN5IHWtFlZmZ1uv9LEPwAA0Dl3hYuXnFL/lFbDSvPPwL0DIwEAoB5HkQNa1XpYaf4ZuLchDAAA+u+orYH6+9YSVpq/A8snG8IAAKDXjqNQsRYrn2D/nOl4eNo0zVs/owAA0Ctng9FkreMfaw8rjcACAAB9s/ag0mwqrDQCCwAA9MVGgkqzybDSCCwAANB1GwsqzToH7B8Sb8zQPQAAdM/xJoNKs+nKysx0PCzVldNt/LMBAIClHa1z69djthJWmn8Cy0nTNDvbeg0AAMCTZifTX27jMm0trDR/B5a9pmkuBBYAAEjnJoJK6yfTL2qrYaX5O7DsRGDZ2/ZrAQAA7lxGULnd5uXYeliZmY6HpSXsXY5XAwAA1fo4GE0+ZHjzacJK83dgOYzBe21hAACwWVudT3nIRlcXP2cwmpw3TfM6yk4AAMBmlO/hrzIFlSZbZWXedDwsLWHvVVkAAGBtbqPt61PGS5w2rDR/B5bdaAvbT/ByAACgTy7j/JSbrO8pdViZcSYLAAC05jZCynn2S5pqZuUxcVrmq6ZpUpanAACgIz7GbEr6oNJ0pbIyT2sYAAAsrYST48wtXw/pXFiZmY6H+zGAL7QAAMDDLmOAvpPbdjsbVmaEFgAA+EGnQ8pM58PKTISW35qmOczxigAAYOPKrPfnwWhy3YdL35uwMhMzLSW0vLU9DACACpTtXp9LUOnaTMpzehdW5sXK41+1iAEA0ENlaP6P2JzbS70OKzNRbTmM4LKX41UBAMDSSnvX7yWo9K2K8pAqwsq8ueDyi4oLAAAdUCoof9YSUOZVF1bmTcfDnQgsP8dfVV0AANi2y6ig/NmVwxvXpeqw8pDYKlb+/NQ0za4AAwDAGl3Hn7/KX7u+arhtwsoCpuPhXmwWm7WN/Rx/3RFmAAB4wnVs62qilauJysltX9YLr5OwsgYxF7PbuzcGAMBjSlXk1tVpUdM0/wepnMc0zFEZrgAAAABJRU5ErkJggg==;container=0;" vertex="1" parent="1">
          <mxGeometry x="310" y="314.96000000000004" width="30.1" height="24.64" as="geometry" />
        </mxCell>
        <mxCell id="H5LyelW8MneRmdd9rbQy-8" value="k3s agent" style="rounded=1;whiteSpace=wrap;html=1;verticalAlign=top;labelPosition=center;verticalLabelPosition=middle;align=center;fontStyle=1" vertex="1" parent="1">
          <mxGeometry x="204.2" y="455" width="150" height="100" as="geometry" />
        </mxCell>
        <mxCell id="H5LyelW8MneRmdd9rbQy-9" value="" style="image;sketch=0;aspect=fixed;html=1;points=[];align=center;fontSize=12;image=img/lib/mscae/Kubernetes.svg;direction=south;" vertex="1" parent="1">
          <mxGeometry x="189" y="435.80000000000007" width="38.4" height="40" as="geometry" />
        </mxCell>
        <mxCell id="H5LyelW8MneRmdd9rbQy-10" value="kubelet/kubeproxy" style="sketch=0;html=1;dashed=0;whitespace=wrap;fillColor=#2875E2;strokeColor=#ffffff;points=[[0.005,0.63,0],[0.1,0.2,0],[0.9,0.2,0],[0.5,0,0],[0.995,0.63,0],[0.72,0.99,0],[0.5,1,0],[0.28,0.99,0]];verticalLabelPosition=bottom;align=center;verticalAlign=top;shape=mxgraph.kubernetes.icon;prIcon=node" vertex="1" parent="1">
          <mxGeometry x="254.2" y="481" width="50" height="48" as="geometry" />
        </mxCell>
        <mxCell id="H5LyelW8MneRmdd9rbQy-11" value="" style="shape=image;verticalLabelPosition=bottom;labelBackgroundColor=default;verticalAlign=top;aspect=fixed;imageAspect=0;image=data:image/png,iVBORw0KGgoAAAANSUhEUgAAAysAAAKYCAYAAABzfmczAAAACXBIWXMAAC4jAAAuIwF4pT92AAAgAElEQVR4nO3dTXIbV5Y24ERFzT/2HBFFrcDUFBOTKzC1AosrsLgCSSugtALSKxC9AtITTEmvQKwIzJvfCtBx6QMZovgDEAngZN7niVC4uqPKBjJpEG+enztoWMh0PNxrmmanaZr9+O//FP93E3/dcyUBAAiXcxfipmma/879/28Ho8m1C/U8YeWe6Xi4G8Gj/Pm5aZrd+AMAAG0qIaaElr/ir9eD0eTGFf5H9WElKib7EUz2BBMAALboJqovf5a/1h5eqgwr0/HwsGmaXyKkCCcAAGRVwsp5CS+D0eS8trtUTViZjodvI6AcJng5AACwrNsILn/UElx6HVam42GpnPwaAWVngf8JAAB0wSy4fO7zsH7vwsp0PNyJcPJeixcAABUoYeVzCS+D0eS2T2+3N2Eltnj91jTNW1UUAAAqdBuh5VNfQkvnw0qElPcRUgAAgKY5a5rmY9e3iXU2rAgpAADwrE6Hls6FlZhJORFSAABgYR+72B7WqbAyHQ8/xFyKmRQAAFhOCSrHg9HkrCvXrRNhJVYQn9ruBQAAK7uO0HKZ/VKmDitavgAAYG0+xTxL2tawtGFlOh4eRjVFyxcAAKxHGbw/ylplSRdWVFMAAGDjUlZZUoWV6Xi41zTNF7MpAACwcddRZbnOcun/leA13JmOh++aprkSVAAAYCtK4eBiOh6m6XDaemVF2xcAAKRzNhhNjrb9orYaVuIU+i+R4gAAgDxKO9jBNudYthZWYj7lwrYvAABIq2wLe7OtOZatzKxEH5ygAgAAue3GHMv+Nl7lxisrEVRON/3PBQAAVlI2hZ1t8hJutLISG78EFQAA6J7TTW8K21hlZToentr4BQAAnbexCstGwoqgAgAAvbKRwLL2NrDpePhBUAEAgF7ZSEvYWisrhukBAKDX1lphWVtYEVQAAKAK5RyW83W80bWEldjDfLGOvzcAAJDKbZx03/rBka2HFSfTAwBAdUpgeTUYTW7bfOOtDthPx8MSUL4IKgAAUJWdOOm+1RzQ9jawL3EkPwAAUJfSYXXS5jtuLazEiuL9tv5+AABA57ydjofv2nrRrcysTMfDw6iqAAAAvG5j4H7lsBJ9aV/NqQAAAOEmAstKA/dttIEZqAcAAObttnHm4kphJfrRzKkAAAD3Hca4yIu9uA1sOh6WtHSlqgIAADxipfNXVqmsnAoqAADAE3ZWaQd7UVjR/gUAACzoxe1gS7eB2f4FAAAs6UXbwV5SWTkRVAAAgCWUefelD4tcqrIyHQ/3YqgeAABgWWXY/mbR/82ylZUTtwMAAHihpfLEwpWV6XhYBuov3BUAAGAFB4PR5HKR//kylZWVT6AEAACq937RC7BQWJmOh29jKAYAAGAV+9G19axFKysLpx8AAIA28sWzYSUOcFFVAQAA2rJQdWWRyspvbgkAANCyZ3PGk9vAbAADAADW6MlzV56rrPzqzgAAAGvyZHXl0crKdDzcaZrmf90VAABgTW6junL70N/+qcrKW3cEAABYo1IgOXzsb/9UWDFYDwAArNujoycPtoFNx8O9pmmu3BYAAGADHhy0f6yyYrAeAADYlAdHUB4LK+ZVAACATXmwWPJDWImzVXbcFgAAYEN2YxTlOw9VVn5xRwAAgA3bv/+PeyisPLo6DAAAYE1+aAX7bhuYLWAAAMAW/c/8AZH3Kys/lF4AAAA25Lsur/th5Wd3AQAA2JLv8ojKCgAAkMV3eeRbWIl5FSuLAQCAbSkrjHdn/+z5yoqqCgAAsG3fzluZDys/uS0AAMCWPRhWfjgxEgAAYMO+DdkLKwAAQCbfV1ZiuB4AAGDbdqbj4U4zV1nZdUsAAIAk7oops7CisgIAAGTxXVj5j9sCAAAkoQ0MAABI6W4jmLACAACkJKwAAADZfDezAgAAkMXfMyvOWAEAADL61yy1AAAAZDEdD3f/7W4AsILLJ/6nu2YiAViBsALAQkoouW6a5q+maW4Go8lTIeU70/FwJwYly5+fmqbZF2IAWISwAsBDbpqmOW+a5s/BaHK+yhUajCa3EXa+BZxS2o/Q8kvTNIfuAAAPGUzHw/LL4sLVAaBpmrOmaX5fpnKyqqi8lMDy22xVJQA0TXMgrABQKh+fm6b5FFWQrYnfSb+ptgBQwoo2MIB6pQkpM1HRuYw2sdNoFQOgUsIKQJ1Ku9dxlpBy32A0KTMzB1FpOTWQD1AnJ9gD1OUuBAxGk6OsQWVeqbQMRpNXTdN8zPOqANgUYQWgHqWa8nqTw/NtGYwmH8prj/XJAFRCWAHov1JBOepKNeUxg9GkBJWDCF0AVMDMCkC/3UbbVy8qEhG2jqbjYTmc8iTBSwJgjVRWAPqrBJRXfQkq8wajyacSWvK8IgDWQVgB6KfrqKh0tu3rOYPR5ExgAeg3YQWgf3ofVGYEFoB+E1YA+qWaoDIjsAD0l7AC0B+zrV/VBJWZCCzHOV4NAG0RVgD6400fh+kXFUP31hoD9IiwAtAPH7t42OMaHDs4EqA/hBWA7ruME96rNzuHpfbrANAXwgpAt/lyfk+0wn1M9aIAeBFhBaDbPg9Gkxv38HtRadIOBtBxwgpAd91o/3qS7WAAHSesAHSX9q8nxMKB87QvEIBnCSsA3XRp+9dCVFcAOkxYAegmA+QLiHkeZ68AdJSwAtA916oqS/ncodcKwBxhBaB7fPleQqwyFu4AOkhYAeiWW0PjL/J7B18zQPWEFYBuOY9T2lmOgAfQQcIKQLf84X4tLwKewALQMcIKQHfcDkYTX7hfTtAD6BhhBaA7DImvRtAD6BhhBaA7/nSvXi5awa67+voBaiSsAHSHL9qrU50C6BBhBaAjHATZir968B4AqiGsAHSDqko7bvrwJgBqIawAdIMv2S1QnQLoFmEFoBu0LwFQHWEFgNqorgB0hLAC0A1mVgCojrAC0A237hMAtRFWAACAlIQVAAAgJWEFAABISVgBAABSElYAAICUhBUAACAlYQUAAEhJWAEAAFISVgAAgJSEFQAAICVhBQAASElYAQAAUhJWAACAlIQVAAAgJWEFAABISVgBAABSElYAAICUhBUAACAlYQUAAEhJWAEAAFISVgAAgJSEFQAAICVhBQAASElYAQAAUhJWAACAlIQVAAAgJWEFAABISVgBAABSElYAAICUhBUAACAlYQUAAEhJWAEAAFISVgAAgJSEFYAOGIwml+4TALURVgAAgJSEFQAAICVhBQAASElYAQAAUhJWAACAlIQVAAAgJWEFAABISVgBAABSElYAAICUhBUAACAlYQUAAEhJWAEAAFISVgAAgJSEFQAAICVhBQAASElYAQAAUhJWAACAlIQVAAAgJWEFgNrsueMA3SCsAFCbHXccoBuEFQAAICVhBQAASElYAQAAUhJWAACAlIQVAAAgJWEFAABISVgBAABSElYAAICUhBUAACAlYQUAAEhJWAEAAFISVgAAgJSEFQAAICVhBQAASElYAQAAUhJWAACAlIQVAAAgJWEFAABISVgBAABSElYAAICUhBUAACAlYQUAAEhJWAEAAFISVgAAgJSEFQAAICVhBQAASElYAQAAUhJWAACAlIQVAAAgJWEFAABISVgBAABSElYAAICUhBUAACAlYQUAAEhJWAEAAFISVgAAgJSEFYD8btwjAGokrADkJ6wAUCVhBQAASElYAQAAUhJWAACAlIQVAAAgJWEFAABISVgBAABSElYAAICUhBUAACAlYQUAAEhJWAEAAFISVgAAgJSEFQAAICVhBQAASElYAQAAUhJWAACAlIQVAAAgJWEFAABISVgBoBrT8XDH3QboDmEFgJrsudsA3SGsAAAAKQkrAABASsIKAACQkrACAACkJKwAAAApCSsAAEBKwgoAAJCSsAIAAKQkrAAAACkJKwAAQErCCgAAkJKwAgAApCSsAAAAKQkrAABASsIKAACQkrACAACkJKwAAAApCSsAAEBKwgoAAJCSsAIAAKQkrAAAACkJKwAAQErCCgAAkJKwAgAApCSsAAAAKQkrAABASsIKAACQkrACAACkJKwAAAApCSsAAEBKwgoAAJCSsAIAAKQkrAAAACkJKwAAQErCCgAAkJKwAgAApCSsAAAAKQkrAPn96R4BUCNhBQAASElYAQAAUhJWAACAlIQVAAAgJWEFAABISVgBAABSElYAAICUhBUAACAlYQUAAEhJWAEAAFISVgAAgJSEFQAAICVhBQAASElYAQAAUhJWAACAlIQVAAAgJWEFAABISVgBAABSElYAqMmeuw3QHcIKADXZcbcBukNYAQAAUhJWAACAlIQVAAAgJWEFAABISVgBAABSElYAAICUhBUAACAlYQUAAEhJWAEAAFISVgAAgJSEFQAAICVhBQAASElYAQAAUhJWAACAlIQVAAAgJWEFIL+f3aPW/Kcn7wOgCsIKADXZdbcBukNYAchvzz1qjbAC0CHCCkB+O9PxcMd9aoWwAtAhwgpAN6iurGg6Hu53+g0AVEhYAegGX7RXJ/ABdIywAtANP7lPK3MNATpGWAHoBpWV1bmGAB0jrAB0Qxmy18b0QnHtDNcDdIywAtAdv7pXL+baAXSQsALQHYfu1Yu5dgAdJKwAdMeu9bvL0wIG0F3CCkC3aGda3m9de8EA/E1YAeiWt9PxUJVgQXHy/9tOvFgAfiCsAHSPSsHi3nXlhQLwI2EFoHveRsWAJ8Q1EuwAOkxYAeie8iX8xH171ru4VgB0lLAC0E1vHRL5uJjreZ/19QGwGGEFoLtUVx53mvWFAbA4YQWgu/an46EB8num42E5ANJ5NAA9IKwAdNt7q4z/EddCVQWgJ4QVgG4rA+Rf3MNvTg3VA/SHsALQfXvT8bD6asJ0PDzR/gXQL8IKQD+U7WDVntQe7938DkDPCCsA/XFaY2CZjof75lQA+klYAeiXk5rOX4n3amYHoKeEFYB+KcPlF1Ft6LUIKhcG6gH6S1gB6J9ZYOltS1i8N0EFoOeEFYD+Ou3joZERVKwoBqjAv91kgF4rMyw/NU1zPBhNbrv8RqfjYQknZT1xtVvPAGqjsgLQf+XL/VWXB+/n5lMEFYCKCCsAddiNwPKha+82XvNVOfwywcsBYIOEFYC6vJ+Oh1+7sC2svMbyWstrTvByANgCYQWgPruxLSzliuMIKRfR9rWb4CUBsCXCCkC99udCy+G2r8K9kNL7c2IAeJ5tYACUYFCCwk3TNL83TXM2GE1uNnFVpuNhqZyUoPSbKgoA9w2iBeDClQFgznXTNH80TXM+GE2u27wwsdmr/O751dA8AE84EFYAeM5thJc/m6a5iT/Xz53bEuei7EXFpPz5Of5vhzkCsIgDbWAAPGdn1io2/9+bjoez/3gdgaaJ/65qCQCtEFYAWJVwAsBa2AYGAACkJKwAAAApCSsAAEBKwgoAAJCSsAIAAKQkrAAAACkJKwAAQErCCgAAkJKwAgAApCSsAAAAKQkrAABASsIKAACQkrACAACkJKwAAAApCSsAAEBKwgoAAJCSsAIAAKQkrAAAACkJKwAAQErCCgAAkJKwAgAApCSsAAAAKQkrAABASsIKAACQkrACAACkJKwAAAApCSsAAEBKwgoAAJCSsAIAAKQkrAAAACkJKwAAQErCCgAAkJKwAgAApCSsAAAAKQkrAABASsIKAACQkrACAACkJKwAAAApCSsAAEBKwgoAAJCSsAIAAKQkrAAAACkJKwAAQErCCgAAkJKwAgAApCSsAAAAKQkrAABASsIKAACQkrACAACkJKwAAAApCSsAAEBKwgoAAJCSsAIAAKQkrAAAACkJKwAAQErCCgAAkJKwAgAApCSsAAAAKf3bbQEqczn3dv+c+8//aZpmN/7z7tx/BgC2RFgB+uo2gkkJJNflz2A0uV3mvU7Hw70ILeWvPzdNs++nhZaUn8mbpmn+iv9cfjZvB6PJ9f2/ffwc7sSfvQjWe/EHoNcG0/Gw/PK9cJuBHihf9H4vIeWhL31tmI6Hh03T/NI0zWF8eYRFlGByHuH5ctng/Jj4Hf5LBGnhBeibA2EF6Lrype+shJR1BZTHRHD5NYIL3HcT4flsMJrcbODnsVQB38bPpDZGoA+EFaCzype/j+VpdVtPqV8qviS+jy+KUNoPPw9Gk/Mt/kzux8+k1kWgy4QVoHNKMDkejCZn2V640FK9Ek4+brrC9xQ/k0DHCStAp5RKyqdtV1KeE18QTz3VrsZlhJTLrG9YpQXoKGEF6ITyJfBoE33/bYqZllOD+L11GyHlU1fe4HQ8fBuhxUwL0AUHDoUEMru5e6oymhx0LagUMbPw+t7ZLvRDuaevuxRUmr9/Js/iZ/JjhC2A1FRWgIw698T6OdPx8EM80ab7jvvwsxntiie22QGJqawA6ZQnv6/6FFSav59ol7By5Gl2p91Gpa8XP5ulWjkYTd6U9xRnFAGkI6wAWczaao6yD9C/VLTgHAgsnXQdQaV3LX3lPQ1Gk9fCNJCRsAJs200Mzx9kWvm6LvEeBZZumQWVXv98Rph+FfMsACkIK8A2fYxqSrozU9ZJYOmUWVCp4l6V9xkti68shgAyEFaAbTiPuZQPtXwJvG8usJBXVUFlXsyzHMTPaOc28QH9IawAmzT78vemi6uI2xaB5ahf76o3bqM9serqV8yzlCrLsUogsA3CCrAJt7Hu9XUfB5RXES1wvdp81hNvapihWlRsQHvlZxXYNGEFWLdPfVxF3KbBaHJsPiCVY6H6RzHPcuygU2CThBVgXWariI9rb6VZkLWxOVwK1k8rFaeYZ3ljngVYN2EFaNtNtNBUsYq4LTHDY2Xsdt3GF3AWMBhNzmOe5aOgDayLsAK0pXxZ+Vi+vJQvMa7q8uKJvvaa7VEFfIFYdVxaw6paQQ5shrACtOEsWr4+uJorO+746++qy9rO+2lTrDo+ilXHAjfQGmEFWMVsFfGRVcTtiNY5X5o3TwteC2LV8UHMYPlMAFYmrAAvMTuDwiri9fDFebPO/By3K6pUr/0sA6sSVoBlzVYRe/q/JlGlcn03xxfqNYhVxx/ifBZzbMCLCCvAoi4jpBhC3gxfoDfjXAvjesU8y5uYZ7EhEFiKsAI85ybmUg58qducuNaeRq/f576/wSxinuW1M4WAZQgrwGPmVxHr59+O32t80xt042d786KF9FW0lAI8SVgBHnIWLV9WEW9RnFfjCfT6qKpsScyzHEdoERiBRwkrwLzLuVXEviTnoBVsfVzbLYt5loOYZ9FmCvxAWAGa+JJwFHMpnnLm8kftF2BNrs1g5RHzLK/iUFQPSoBvhBXgY5w+b1VuTsLjegiBCQ1Gk0/RGubzCLgjrEC9zmdzKVq+8op7I7C0zzVNKuZZjuJQSfcJKiesQH1mq4jfaIPpDGdTtEy7Y36D0eQ65lnemGeBegkrUI/yhP7YKuJO+rP2C9AyP/8dElvxXkfLqiowVEZYgTrMVhE716CbPFVul0pVx0Rr2IcILeZZoCLCCvTbZQzPW0XcYaUdpvZr0LL/36t3U5FYdXwUq45VyKACwgr0U3kS/yZWEfui2w+qK+3xJbfjYtVxCSxHWsOg34QV6JfbuVXEDrzrF2EF7omV66/icw/oIWEF+uM8QopVxPAECyb6ZW6e5VV8DgI9IqxA911bRQzULuZZ3sQ8i/ZX6AlhBbprtor4tSfFVRBEYQExz1K2hh2bZ4HuE1agmz5ZRVwdX7pgCfH5+Co+L4GOElagWy4jpBybS6nOXu0XAJYV8yzHEVpUoKGDhBXohvlVxNqBAJYQ8ywHMc/iMxQ6RFiB3O5WEQ9Gk1dWEQOsJuZZZquOVaehA4QVyOtstorYPaJpml0XoR3T8XC/D++Dl5tbdXzmMkJuwgrkcxmriI+0fDFHWIEWxTxLOQH/tXkWyEtYgTxKS8JRzKX4xck30/FQUGmXZQV8MxhNrmOe5cg8C+QjrEAOH2PLl5YEHiKstOs/fXoztCM+f1+bZ4FchBXYrtkq4g9WEfMEMxbtUlnhQdEa9iFCi4dHkICwAttxE3MpVhGziJ9dpVYJfzwpVh0fxarja1cLtkdYgc2aX0VsLoVFqQS0bDoeuqY8K1Ydv455FtVv2AJhBTbnbNby5ZqzqFizu+OCtU51hYXFPMvsfBZgg4QVWL/LOC/lyFwKL/CLi7YWritLmZtnKaHFIb2wIcIKrM/N3CpiPc+81KErtxb70/FQxYqlxTzLm5hnMXMIayaswHp8jGqKbTK8WMxVWFu8PoIgLxbzLKXKcmyeBdZHWIF2nVtFTIt+czHXyvVlZYPR5FO0hn1yNaF9wgq04zpWEb+xipg2RIuSJ//rtWcrGG2IeZbjOJ/FpkdokbACqynVk+Oy2tIqYlr2zhawjVBdoTVlPrHMKTZN88Y8C7RDWIGX+xQtX0r/tCqqKr5Eb8bb6XhoLohWDUaT85hn+WieBVYjrMDyZquIj82lsCaqKpv1vqY3y+bMrTq2bAVeaBAHjl24gPCsm2j5sl+ftYmqyldhZeNemTdjneL71nsHksJSDlRW4Hm3c6uIBRXW7b2gshUnFb5nNihWHZd5liPzLLA4YQWedhYhxSpi1i6evL5zpbfiMK4/rFWcv/XaPAssRliBh81WER9pDWGDPN3frlOn2rMJser4Q4QWFXt4grAC3ytPuY6sImbTpuNhCSrO/NiuXcP2bFJ5GFbO5yoPx+IhGXCPsAL/mK0itrWFjZqOh4fav9J4F/cDNibmWV7HPIvWMJgjrMDfq4hfWUXMNsQJ6qcufiqnTrZnG+Jh2ex8FqheI6xQuTKL8qZsZzGXwjbEfMQX27/S2TG/wrbMzbO8iodpUDVhhRrdrSIupwtbRcy2xBfhi5iTIJ9SWbkQWNiWmGc5iHkWD9SolrBCbc6i5euDO8+2zAUVrUa5CSxsXcyzlCrLsXkWaiSsUIvLuVXEPuzZGkGlcwQWUhiMJp+iNcwSGKoirNB3s1XEB1YRs20xtC2odI/AQgoxz3IU57P4nUYVhBX67KNVxGQRp6MLKt01CyzuH1s3GE2uY57ljXkW+k5YoY/OZ3MpWr7IYDoefoig4sl8t80Ci3NYSKEsiYl5lo/mWeirwdzTPui6m2j5Uhonhel4uBtnqOy7I73zKbYK+oJICvF5875pmrfuCD1yoLJCH5QvC8exilhQIYWoplwJKr31rtzfeOAHWxerjo9i1bHfhfSGygpddxZBxdNNUojP1FPnp1TlLKosZgdIYzoevo1Ki88iuuxAWKGrLiOkXLuDZKDlq3rlgcnn0h7m4QlZxAa7dxFaoIuEFTrnJp5g2vBFCvFl4H18IYCbeJByXv2VII14mHLSNI3lEHSNmRU64za2nbwWVMgi2iy+CirMKV8Kv0zHQ2uOSSPmWd7EPIuOBDpFZYUuOI8nlfrBSSE+N0+cmcICzNWRTjxoObFOnQ5QWSG167texdHkjaBCBqWVYjoenjrckSXcVd9iOxykEB0Kr2IFN6SmskJGtzGX4kOUFOaGVH/zJJIVOAuKdCwHITmVFdL5FKfPCyqkEKeVX8UQvaDCKnbjBPyL+IIIWxfzLAcxz6KLgXRUVsjiMp44+qAkhRiOPvG0kTVyCj7pRMuiKjJZqKywdSWclJmUA0GFDErL13Q8PHH6PBvwLuZZ3rrYZDEYTT7EPIvNm6QgrLAts7mUV84jIIvpePjOKmI2rDy9Pp2Oh1fR6QBbV6p9g9HkqBwXEJ0PsDXawNiGswgqKimkYBUxiVjVTjoxu3cSc1ewSU6wZ6Ou45ewpzSk4FRnEiuH4H4yz0IWtiKyJcIKG3EbIUX/KynM/dJ9746Q2E1UoX12kkY85HkfZwjBuhmwZ+0+xipiv2xJIYaZrwQVOmA35lkuzLOQRaw6PopVxzolWDuVFdbFKmJSsYqYHjDvRzrxAOhEaxhrorJC627u+gutIiaJWEV8ahUxPXBXFYxzMCCF6Jx4FZ0U0DqVFdpS5lI+x352SCFWETt5nj66iVlAq99Jw9IS1sCAPa04i1+attaQQnyunVqzSQUu4/P32s0mC+vgaZGwwkqsIiaVeKp3qt2LCnloRDqq27TAzAovVoY8XwsqZBBzKR/i9HlBhRqVeZav8eUQUhiMJp/iFHyVP15MWGFZtzFAbzaFFGITzVeriOHu6fXJdDz8atUxWcSq49cG8HkpYYVlXMeZKaopbF35MlbOn4i2Ly0G8I/SDnkR57OY2yKFeMj5Jh56wsKEFRZ1Fm1fPmTYqvLlK1YRX2j5giftR2vYh9Iq6VKxbbG97kBgYRnCCos4i9NqYatiLuUq+vOBxbyP0OLfG7YuNteZY2FhwgrPEVTYuul4eFj68G2VgRcr/96cTsfDK/MsbFscGn0gsLAIYYWnCCpsVbR8lXavL85MgVbsxTzLF/MsbFO0lWsJ41nCCo85F1TYllhFfGIVMaxNOWH8yjwL2ySwsAhhhYeUsqygwlbMrSJ2XgSs1060Vl6ZZ2FbYobFdw4eJaxwX3m6cWTrF5sWq4ivrCKGjduNeZYL8yxsQ2wJcw4LDxJWuO8onnLARsRcypdYRbznqsPW7Mc8y6nWMDYtzmFxjhs/EFaYdx5PN2DtYi5ltor40BWHNN7OzmdxS9iwI/Mr3CesMHOrZ5RNKauII6RYRQw53c2zlJXh8e8rrF2sNNYOxneEFWaOzamwbtPxcM8qYuiU8u/pl5hn8e8sazcYTT45f4V5wgrF9WA0OXMlWJdo+TqNaooBXuie/WgNOzHPwgYcu8jMCCs0PhRYp+l4+C5WEVuNCt33LkKL1eKszWA0uTRsz4ywwmV8KECrYhVxCSkn5lKgV8q/zycxz6JSyrqYXeGOsMLn6q8Arbq3iliPO/TXbqw6/mKehbaprjAjrNTtxqpi2jK3ivirVcRQlcPZqmPzLLTMA1WElcr5EKAV0/Hw7dwqYqBO7yO0mE+jFfFA9eQWZDEAAAyGSURBVMbVrJuwUjdVFVYScyml3etUyxcQ8yzlBPwr8yy05HcXsm7CSr3O4/AlWNrcKuILq4iBB+zFPMupeRZW5GiFygkr9fqz9gvAy8zNpWj1AJ5z1yJqnoWXigerDomsmLBSLy1gLGVuFfF7q4iBJezE58aVeRZeyFawigkrdbrRAsaiYhXxhVXEwIp2Y56ltIftuZgs4Q8Xq17CSp08oeBZMZdyEi1f5lKAtuxHleVUaxiLcHh13YSVOplX4UnRqlFCyjtXCliTt7PzWVxgFmBupVLCSp20gPGgmEu5ilXEnngC63Y3z1Lm4aw65hnCSqWElQopp3JfzKXMVhHrJQc2bTdWHV9Ydcwj/uvC1ElYqc9t7ReA70ULxpVVxEAC+9EadmKehXs8aK2UsFIfZVTuTMfDQ6uIgaTeRWgxNweVE1agMmVlaKwi/mIVMZBYeYhSKixX5lnwsLVewkp9tIFVam4V8ZVVxECH7MU8yxfzLPUajCa+v1RKWKnPX7VfgBpFK4VVxECXHc5WHZtngXoIK9Bjc6uIT8ylAD3xPkKLpSBQAWEFeihWEX+xihjoqfLw5TRWHWtrhR4TVurz/2q/AH0WcymzVcSHtV8PoPf2Y57l1DwL9JOwUh9P2XsqWiKurCIGKnT3+WeeBfpHWIGOm1tFfGoVMVCxnXhYU0KLynLPaPerl7BSH19meyJavk6tIgb4Tvk99yXmWXQTQMcJK/URVnpgbhWxbTgAD9uPKsup1rBeEDwrJaxUyJOm7opVxF+tIgZY2NtYdeycqW77T+0XoFbCSp1UVzomVhFfxCpi9w9gOeXhzkl52GP2obM8aK2UsFKnn2u/AF0xt4r4q7kUgJXtxqrjC6uOO8fvwEoJK3XyL3wHxCrir7HdBoD27Edr2Il5lvy0r9dNWKnTng/nvGIuZbaK2H0CWJ93EVosK8nNQ9aKCSv18i9+MnOriC/cH4CNKQ+FysawK/Msaf1S+wWombBSL//iJzI3l+LpHsB27MU8yxfzLHlEJ4gQWTFhpV5O902gnLIcq4jfa/kCSOEwWsM+aJlOwfeVygkr9drRo7s9c6uIv1hFDJDS+zhU0u/K7fqt5jePsFK7X2u/AJsWcyknVhEDdMJuzLNcmGfZvNgCZhNY5YSVuu1bB7g5c6uInaIM0C37Mc9yqjVso1RVEFbwQbBusYr4yipigM57O5tncSvXK5YcaMFDWKF5a+vJesRcypdYRayCBdAP5aHT+7IcpSxJcU/XxoHI3BFWKE5chfbEXEp56nZliwlAb5UHfV9insUDqRapqjBPWKE4NDjYjnjKdmUVMUA19mNr2Il5ltZ4iMo3wgozPhhWUJ6qWUUMULV3Mc9iicoK4uGprgS+EVaY2TMwuLy5VcRXVhEDVK9UVk5insXvhCVFZeq0Uy+atRNWmPde3+3i4umZVcQA3Lcbq44vLLFZynvdCdwnrHCfHfLPiFXEX6N1zrUC4DH7s1XHfrc+LWY+PfzjB8IK9+0pwT7s3ipiT34AWNT7CC02XD0gujp89+BBwgoPOTS/8o+5VcRfDf0B8EI70b1wZZ7lH3NzKipPPEhY4THvPQG6+xB9O7eKGABWtRfzLF9qn2eJoOLgZJ4krPCU01oDy9wq4lMtXwCswWGcz1LzPMupoMJzhBWeU1VgiZavU6uIAdiAnajcX1X6u1ZrNc8SVlhEFYFlbi6l+vY3ADZqN37XXvT9CIG51i+/a1mIsMKiTuPww96ZW0X83oAfAFu0H1WWXh4jEDM6ZlRYirDCMt7FQGAvPkBjFfGFVcQAJPN2dj5LX25MnKNyJaiwLGGFZc0GAjs7z3FvFbG5FAAy2onNnF/ji35nRWfGF90LvISwwkvsxtrFk65VWWL25qtVxAB0RPmd+yXmWTrVBRBt1ldOpmcVwgqreNeVDSZzH5gOngKgi/ajNSz9g8K5bV/mU1jZINp5LlxKVnTZNM3HwWhymelCxlOoE+sRAeiR26ZpPjdN82kwmtxmeVsRosqDzN88GKQlB8IKbSth5ffBaHK2zSsbP9e/CSkA9NgstJwNRpObbb3NeDD4WywGEFJok7DC2pQPzfPyIbqpD9B4olM+KH9VdgagMuUh4R+D0eR8U287Bv9/9WCQNRJW2IjrqLj80XabWByeVX6Gf7HZCwDuqi0lsPxRfve22SYWFZTyu/bnCCiqKKybsMJWXEaA+SsqMNeLfJjGz+pOVE1+ig9MH5QA8Ljr+PPf+P17OxhNrp+7XvEwcCd+1/4Uv3udScamCSukcx1PhWZUSwBgPW7j9+6M37lkc/Bvt4RkzJoAwGbsCChk55wVAAAgJWEFAABISVgBAAAyuhVWAACAdMrmun+1fe4FAABAG1RWAACAbO6OspiFldZONwUAAFjR3RlAs7Dy7EmmAAAAm6SyAgAAZPNnMxdW/nJ7AACATGZh5cZdAQAAkrjbWCysAAAA2dzlk8HsRU3Hw6lbBAAAbNtgNLnLKfPnrKiuAAAA2/bt0Pr5sGJ9MQAAsG3fcsl8WPnTbQEAALbs26ZilRUAACCTb21gg/kXZcgeAADYopvBaPJq9o//173XcenOAAAAW/JdHrkfVv5wVwAAgC35bo5eZQUAAMjiuzwyuP+ipuPh/zZNs+N2AQAAG3Q9GE1ez//j7ldWinN3BAAA2LAfurweCivmVgAAgE37/f4/74c2sEYrGAAAsFnfrSyeeaiy0mgFAwAANujB/PFYWNEKBgAAbMoPLWDNY21gzd+tYF+bptl1ewAAgDX6YQvYzGOVleaxdAMAANCiR3PHU2HlzB0AAADW7NHc8WhYGYwmNwbtAQCANTobjCa3j/3tn6qsFJ/dGQAAYE2ezBuPDtjPGLQHAADW4HIwmhw89bd9rrJSfHRnAACAlj2bM56trDSqKwAAQLseXVc8b5HKSqO6AgAAtGih2fiFKiuN6goAANCOhaoqzRKVlUZ1BQAAaMHxon+LhSsrzd/VlaumafbcIQAA4AWe3QA2b5nKSrNMCgIAAFglTywVVgajyaVT7QEAgBcop9VfL/M/W7ay0kQaevRIfAAAgHtuX9KltXRYGYwmN4uuGgMAACjLugajydIFj6UG7OcZtgcAABaw1FD9vJe0gc0cuTMAAMATblfJDS8OKzEc4+wVAADgMR9jjORFXtwGNqMdDAAAeMCL279mVmkDmzmyHQwAAJizUvvXzMphJdrBHBYJAADMHK3S/jXTRmWlBJazcshLG38vAACg0z4NRpNWDpJvJayEUl1Z6kRKAACgV8qcSmtdV62FlTjk5Y35FQAAqNJN5IHWtFlZmZ1uv9LEPwAA0Dl3hYuXnFL/lFbDSvPPwL0DIwEAoB5HkQNa1XpYaf4ZuLchDAAA+u+orYH6+9YSVpq/A8snG8IAAKDXjqNQsRYrn2D/nOl4eNo0zVs/owAA0Ctng9FkreMfaw8rjcACAAB9s/ag0mwqrDQCCwAA9MVGgkqzybDSCCwAANB1GwsqzToH7B8Sb8zQPQAAdM/xJoNKs+nKysx0PCzVldNt/LMBAIClHa1z69djthJWmn8Cy0nTNDvbeg0AAMCTZifTX27jMm0trDR/B5a9pmkuBBYAAEjnJoJK6yfTL2qrYaX5O7DsRGDZ2/ZrAQAA7lxGULnd5uXYeliZmY6HpSXsXY5XAwAA1fo4GE0+ZHjzacJK83dgOYzBe21hAACwWVudT3nIRlcXP2cwmpw3TfM6yk4AAMBmlO/hrzIFlSZbZWXedDwsLWHvVVkAAGBtbqPt61PGS5w2rDR/B5bdaAvbT/ByAACgTy7j/JSbrO8pdViZcSYLAAC05jZCynn2S5pqZuUxcVrmq6ZpUpanAACgIz7GbEr6oNJ0pbIyT2sYAAAsrYST48wtXw/pXFiZmY6H+zGAL7QAAMDDLmOAvpPbdjsbVmaEFgAA+EGnQ8pM58PKTISW35qmOczxigAAYOPKrPfnwWhy3YdL35uwMhMzLSW0vLU9DACACpTtXp9LUOnaTMpzehdW5sXK41+1iAEA0ENlaP6P2JzbS70OKzNRbTmM4LKX41UBAMDSSnvX7yWo9K2K8pAqwsq8ueDyi4oLAAAdUCoof9YSUOZVF1bmTcfDnQgsP8dfVV0AANi2y6ig/NmVwxvXpeqw8pDYKlb+/NQ0za4AAwDAGl3Hn7/KX7u+arhtwsoCpuPhXmwWm7WN/Rx/3RFmAAB4wnVs62qilauJysltX9YLr5OwsgYxF7PbuzcGAMBjSlXk1tVpUdM0/wepnMc0zFEZrgAAAABJRU5ErkJggg==;container=0;" vertex="1" parent="1">
          <mxGeometry x="310" y="456.36" width="30.1" height="24.64" as="geometry" />
        </mxCell>
        <mxCell id="H5LyelW8MneRmdd9rbQy-12" value="k3s agent" style="rounded=1;whiteSpace=wrap;html=1;verticalAlign=top;labelPosition=center;verticalLabelPosition=middle;align=center;fontStyle=1" vertex="1" parent="1">
          <mxGeometry x="204.2" y="602.6" width="150" height="100" as="geometry" />
        </mxCell>
        <mxCell id="H5LyelW8MneRmdd9rbQy-13" value="" style="image;sketch=0;aspect=fixed;html=1;points=[];align=center;fontSize=12;image=img/lib/mscae/Kubernetes.svg;direction=south;" vertex="1" parent="1">
          <mxGeometry x="189" y="583.4000000000001" width="38.4" height="40" as="geometry" />
        </mxCell>
        <mxCell id="H5LyelW8MneRmdd9rbQy-14" value="kubelet/kubeproxy" style="sketch=0;html=1;dashed=0;whitespace=wrap;fillColor=#2875E2;strokeColor=#ffffff;points=[[0.005,0.63,0],[0.1,0.2,0],[0.9,0.2,0],[0.5,0,0],[0.995,0.63,0],[0.72,0.99,0],[0.5,1,0],[0.28,0.99,0]];verticalLabelPosition=bottom;align=center;verticalAlign=top;shape=mxgraph.kubernetes.icon;prIcon=node" vertex="1" parent="1">
          <mxGeometry x="254.2" y="628.6" width="50" height="48" as="geometry" />
        </mxCell>
        <mxCell id="H5LyelW8MneRmdd9rbQy-15" value="" style="shape=image;verticalLabelPosition=bottom;labelBackgroundColor=default;verticalAlign=top;aspect=fixed;imageAspect=0;image=data:image/png,iVBORw0KGgoAAAANSUhEUgAAAysAAAKYCAYAAABzfmczAAAACXBIWXMAAC4jAAAuIwF4pT92AAAgAElEQVR4nO3dTXIbV5Y24ERFzT/2HBFFrcDUFBOTKzC1AosrsLgCSSugtALSKxC9AtITTEmvQKwIzJvfCtBx6QMZovgDEAngZN7niVC4uqPKBjJpEG+enztoWMh0PNxrmmanaZr9+O//FP93E3/dcyUBAAiXcxfipmma/879/28Ho8m1C/U8YeWe6Xi4G8Gj/Pm5aZrd+AMAAG0qIaaElr/ir9eD0eTGFf5H9WElKib7EUz2BBMAALboJqovf5a/1h5eqgwr0/HwsGmaXyKkCCcAAGRVwsp5CS+D0eS8trtUTViZjodvI6AcJng5AACwrNsILn/UElx6HVam42GpnPwaAWVngf8JAAB0wSy4fO7zsH7vwsp0PNyJcPJeixcAABUoYeVzCS+D0eS2T2+3N2Eltnj91jTNW1UUAAAqdBuh5VNfQkvnw0qElPcRUgAAgKY5a5rmY9e3iXU2rAgpAADwrE6Hls6FlZhJORFSAABgYR+72B7WqbAyHQ8/xFyKmRQAAFhOCSrHg9HkrCvXrRNhJVYQn9ruBQAAK7uO0HKZ/VKmDitavgAAYG0+xTxL2tawtGFlOh4eRjVFyxcAAKxHGbw/ylplSRdWVFMAAGDjUlZZUoWV6Xi41zTNF7MpAACwcddRZbnOcun/leA13JmOh++aprkSVAAAYCtK4eBiOh6m6XDaemVF2xcAAKRzNhhNjrb9orYaVuIU+i+R4gAAgDxKO9jBNudYthZWYj7lwrYvAABIq2wLe7OtOZatzKxEH5ygAgAAue3GHMv+Nl7lxisrEVRON/3PBQAAVlI2hZ1t8hJutLISG78EFQAA6J7TTW8K21hlZToentr4BQAAnbexCstGwoqgAgAAvbKRwLL2NrDpePhBUAEAgF7ZSEvYWisrhukBAKDX1lphWVtYEVQAAKAK5RyW83W80bWEldjDfLGOvzcAAJDKbZx03/rBka2HFSfTAwBAdUpgeTUYTW7bfOOtDthPx8MSUL4IKgAAUJWdOOm+1RzQ9jawL3EkPwAAUJfSYXXS5jtuLazEiuL9tv5+AABA57ydjofv2nrRrcysTMfDw6iqAAAAvG5j4H7lsBJ9aV/NqQAAAOEmAstKA/dttIEZqAcAAObttnHm4kphJfrRzKkAAAD3Hca4yIu9uA1sOh6WtHSlqgIAADxipfNXVqmsnAoqAADAE3ZWaQd7UVjR/gUAACzoxe1gS7eB2f4FAAAs6UXbwV5SWTkRVAAAgCWUefelD4tcqrIyHQ/3YqgeAABgWWXY/mbR/82ylZUTtwMAAHihpfLEwpWV6XhYBuov3BUAAGAFB4PR5HKR//kylZWVT6AEAACq937RC7BQWJmOh29jKAYAAGAV+9G19axFKysLpx8AAIA28sWzYSUOcFFVAQAA2rJQdWWRyspvbgkAANCyZ3PGk9vAbAADAADW6MlzV56rrPzqzgAAAGvyZHXl0crKdDzcaZrmf90VAABgTW6junL70N/+qcrKW3cEAABYo1IgOXzsb/9UWDFYDwAArNujoycPtoFNx8O9pmmu3BYAAGADHhy0f6yyYrAeAADYlAdHUB4LK+ZVAACATXmwWPJDWImzVXbcFgAAYEN2YxTlOw9VVn5xRwAAgA3bv/+PeyisPLo6DAAAYE1+aAX7bhuYLWAAAMAW/c/8AZH3Kys/lF4AAAA25Lsur/th5Wd3AQAA2JLv8ojKCgAAkMV3eeRbWIl5FSuLAQCAbSkrjHdn/+z5yoqqCgAAsG3fzluZDys/uS0AAMCWPRhWfjgxEgAAYMO+DdkLKwAAQCbfV1ZiuB4AAGDbdqbj4U4zV1nZdUsAAIAk7oops7CisgIAAGTxXVj5j9sCAAAkoQ0MAABI6W4jmLACAACkJKwAAADZfDezAgAAkMXfMyvOWAEAADL61yy1AAAAZDEdD3f/7W4AsILLJ/6nu2YiAViBsALAQkoouW6a5q+maW4Go8lTIeU70/FwJwYly5+fmqbZF2IAWISwAsBDbpqmOW+a5s/BaHK+yhUajCa3EXa+BZxS2o/Q8kvTNIfuAAAPGUzHw/LL4sLVAaBpmrOmaX5fpnKyqqi8lMDy22xVJQA0TXMgrABQKh+fm6b5FFWQrYnfSb+ptgBQwoo2MIB6pQkpM1HRuYw2sdNoFQOgUsIKQJ1Ku9dxlpBy32A0KTMzB1FpOTWQD1AnJ9gD1OUuBAxGk6OsQWVeqbQMRpNXTdN8zPOqANgUYQWgHqWa8nqTw/NtGYwmH8prj/XJAFRCWAHov1JBOepKNeUxg9GkBJWDCF0AVMDMCkC/3UbbVy8qEhG2jqbjYTmc8iTBSwJgjVRWAPqrBJRXfQkq8wajyacSWvK8IgDWQVgB6KfrqKh0tu3rOYPR5ExgAeg3YQWgf3ofVGYEFoB+E1YA+qWaoDIjsAD0l7AC0B+zrV/VBJWZCCzHOV4NAG0RVgD6400fh+kXFUP31hoD9IiwAtAPH7t42OMaHDs4EqA/hBWA7ruME96rNzuHpfbrANAXwgpAt/lyfk+0wn1M9aIAeBFhBaDbPg9Gkxv38HtRadIOBtBxwgpAd91o/3qS7WAAHSesAHSX9q8nxMKB87QvEIBnCSsA3XRp+9dCVFcAOkxYAegmA+QLiHkeZ68AdJSwAtA916oqS/ncodcKwBxhBaB7fPleQqwyFu4AOkhYAeiWW0PjL/J7B18zQPWEFYBuOY9T2lmOgAfQQcIKQLf84X4tLwKewALQMcIKQHfcDkYTX7hfTtAD6BhhBaA7DImvRtAD6BhhBaA7/nSvXi5awa67+voBaiSsAHSHL9qrU50C6BBhBaAjHATZir968B4AqiGsAHSDqko7bvrwJgBqIawAdIMv2S1QnQLoFmEFoBu0LwFQHWEFgNqorgB0hLAC0A1mVgCojrAC0A237hMAtRFWAACAlIQVAAAgJWEFAABISVgBAABSElYAAICUhBUAACAlYQUAAEhJWAEAAFISVgAAgJSEFQAAICVhBQAASElYAQAAUhJWAACAlIQVAAAgJWEFAABISVgBAABSElYAAICUhBUAACAlYQUAAEhJWAEAAFISVgAAgJSEFQAAICVhBQAASElYAQAAUhJWAACAlIQVAAAgJWEFAABISVgBAABSElYAAICUhBUAACAlYQUAAEhJWAEAAFISVgAAgJSEFYAOGIwml+4TALURVgAAgJSEFQAAICVhBQAASElYAQAAUhJWAACAlIQVAAAgJWEFAABISVgBAABSElYAAICUhBUAACAlYQUAAEhJWAEAAFISVgAAgJSEFQAAICVhBQAASElYAQAAUhJWAACAlIQVAAAgJWEFgNrsueMA3SCsAFCbHXccoBuEFQAAICVhBQAASElYAQAAUhJWAACAlIQVAAAgJWEFAABISVgBAABSElYAAICUhBUAACAlYQUAAEhJWAEAAFISVgAAgJSEFQAAICVhBQAASElYAQAAUhJWAACAlIQVAAAgJWEFAABISVgBAABSElYAAICUhBUAACAlYQUAAEhJWAEAAFISVgAAgJSEFQAAICVhBQAASElYAQAAUhJWAACAlIQVAAAgJWEFAABISVgBAABSElYAAICUhBUAACAlYQUAAEhJWAEAAFISVgAAgJSEFYD8btwjAGokrADkJ6wAUCVhBQAASElYAQAAUhJWAACAlIQVAAAgJWEFAABISVgBAABSElYAAICUhBUAACAlYQUAAEhJWAEAAFISVgAAgJSEFQAAICVhBQAASElYAQAAUhJWAACAlIQVAAAgJWEFAABISVgBoBrT8XDH3QboDmEFgJrsudsA3SGsAAAAKQkrAABASsIKAACQkrACAACkJKwAAAApCSsAAEBKwgoAAJCSsAIAAKQkrAAAACkJKwAAQErCCgAAkJKwAgAApCSsAAAAKQkrAABASsIKAACQkrACAACkJKwAAAApCSsAAEBKwgoAAJCSsAIAAKQkrAAAACkJKwAAQErCCgAAkJKwAgAApCSsAAAAKQkrAABASsIKAACQkrACAACkJKwAAAApCSsAAEBKwgoAAJCSsAIAAKQkrAAAACkJKwAAQErCCgAAkJKwAgAApCSsAAAAKQkrAPn96R4BUCNhBQAASElYAQAAUhJWAACAlIQVAAAgJWEFAABISVgBAABSElYAAICUhBUAACAlYQUAAEhJWAEAAFISVgAAgJSEFQAAICVhBQAASElYAQAAUhJWAACAlIQVAAAgJWEFAABISVgBAABSElYAqMmeuw3QHcIKADXZcbcBukNYAQAAUhJWAACAlIQVAAAgJWEFAABISVgBAABSElYAAICUhBUAACAlYQUAAEhJWAEAAFISVgAAgJSEFQAAICVhBQAASElYAQAAUhJWAACAlIQVAAAgJWEFIL+f3aPW/Kcn7wOgCsIKADXZdbcBukNYAchvzz1qjbAC0CHCCkB+O9PxcMd9aoWwAtAhwgpAN6iurGg6Hu53+g0AVEhYAegGX7RXJ/ABdIywAtANP7lPK3MNATpGWAHoBpWV1bmGAB0jrAB0Qxmy18b0QnHtDNcDdIywAtAdv7pXL+baAXSQsALQHYfu1Yu5dgAdJKwAdMeu9bvL0wIG0F3CCkC3aGda3m9de8EA/E1YAeiWt9PxUJVgQXHy/9tOvFgAfiCsAHSPSsHi3nXlhQLwI2EFoHveRsWAJ8Q1EuwAOkxYAeie8iX8xH171ru4VgB0lLAC0E1vHRL5uJjreZ/19QGwGGEFoLtUVx53mvWFAbA4YQWgu/an46EB8num42E5ANJ5NAA9IKwAdNt7q4z/EddCVQWgJ4QVgG4rA+Rf3MNvTg3VA/SHsALQfXvT8bD6asJ0PDzR/gXQL8IKQD+U7WDVntQe7938DkDPCCsA/XFaY2CZjof75lQA+klYAeiXk5rOX4n3amYHoKeEFYB+KcPlF1Ft6LUIKhcG6gH6S1gB6J9ZYOltS1i8N0EFoOeEFYD+Ou3joZERVKwoBqjAv91kgF4rMyw/NU1zPBhNbrv8RqfjYQknZT1xtVvPAGqjsgLQf+XL/VWXB+/n5lMEFYCKCCsAddiNwPKha+82XvNVOfwywcsBYIOEFYC6vJ+Oh1+7sC2svMbyWstrTvByANgCYQWgPruxLSzliuMIKRfR9rWb4CUBsCXCCkC99udCy+G2r8K9kNL7c2IAeJ5tYACUYFCCwk3TNL83TXM2GE1uNnFVpuNhqZyUoPSbKgoA9w2iBeDClQFgznXTNH80TXM+GE2u27wwsdmr/O751dA8AE84EFYAeM5thJc/m6a5iT/Xz53bEuei7EXFpPz5Of5vhzkCsIgDbWAAPGdn1io2/9+bjoez/3gdgaaJ/65qCQCtEFYAWJVwAsBa2AYGAACkJKwAAAApCSsAAEBKwgoAAJCSsAIAAKQkrAAAACkJKwAAQErCCgAAkJKwAgAApCSsAAAAKQkrAABASsIKAACQkrACAACkJKwAAAApCSsAAEBKwgoAAJCSsAIAAKQkrAAAACkJKwAAQErCCgAAkJKwAgAApCSsAAAAKQkrAABASsIKAACQkrACAACkJKwAAAApCSsAAEBKwgoAAJCSsAIAAKQkrAAAACkJKwAAQErCCgAAkJKwAgAApCSsAAAAKQkrAABASsIKAACQkrACAACkJKwAAAApCSsAAEBKwgoAAJCSsAIAAKQkrAAAACkJKwAAQErCCgAAkJKwAgAApCSsAAAAKQkrAABASsIKAACQkrACAACkJKwAAAApCSsAAEBKwgoAAJCSsAIAAKQkrAAAACkJKwAAQErCCgAAkJKwAgAApCSsAAAAKf3bbQEqczn3dv+c+8//aZpmN/7z7tx/BgC2RFgB+uo2gkkJJNflz2A0uV3mvU7Hw70ILeWvPzdNs++nhZaUn8mbpmn+iv9cfjZvB6PJ9f2/ffwc7sSfvQjWe/EHoNcG0/Gw/PK9cJuBHihf9H4vIeWhL31tmI6Hh03T/NI0zWF8eYRFlGByHuH5ctng/Jj4Hf5LBGnhBeibA2EF6Lrype+shJR1BZTHRHD5NYIL3HcT4flsMJrcbODnsVQB38bPpDZGoA+EFaCzype/j+VpdVtPqV8qviS+jy+KUNoPPw9Gk/Mt/kzux8+k1kWgy4QVoHNKMDkejCZn2V640FK9Ek4+brrC9xQ/k0DHCStAp5RKyqdtV1KeE18QTz3VrsZlhJTLrG9YpQXoKGEF6ITyJfBoE33/bYqZllOD+L11GyHlU1fe4HQ8fBuhxUwL0AUHDoUEMru5e6oymhx0LagUMbPw+t7ZLvRDuaevuxRUmr9/Js/iZ/JjhC2A1FRWgIw698T6OdPx8EM80ab7jvvwsxntiie22QGJqawA6ZQnv6/6FFSav59ol7By5Gl2p91Gpa8XP5ulWjkYTd6U9xRnFAGkI6wAWczaao6yD9C/VLTgHAgsnXQdQaV3LX3lPQ1Gk9fCNJCRsAJs200Mzx9kWvm6LvEeBZZumQWVXv98Rph+FfMsACkIK8A2fYxqSrozU9ZJYOmUWVCp4l6V9xkti68shgAyEFaAbTiPuZQPtXwJvG8usJBXVUFlXsyzHMTPaOc28QH9IawAmzT78vemi6uI2xaB5ahf76o3bqM9serqV8yzlCrLsUogsA3CCrAJt7Hu9XUfB5RXES1wvdp81hNvapihWlRsQHvlZxXYNGEFWLdPfVxF3KbBaHJsPiCVY6H6RzHPcuygU2CThBVgXWariI9rb6VZkLWxOVwK1k8rFaeYZ3ljngVYN2EFaNtNtNBUsYq4LTHDY2Xsdt3GF3AWMBhNzmOe5aOgDayLsAK0pXxZ+Vi+vJQvMa7q8uKJvvaa7VEFfIFYdVxaw6paQQ5shrACtOEsWr4+uJorO+746++qy9rO+2lTrDo+ilXHAjfQGmEFWMVsFfGRVcTtiNY5X5o3TwteC2LV8UHMYPlMAFYmrAAvMTuDwiri9fDFebPO/By3K6pUr/0sA6sSVoBlzVYRe/q/JlGlcn03xxfqNYhVxx/ifBZzbMCLCCvAoi4jpBhC3gxfoDfjXAvjesU8y5uYZ7EhEFiKsAI85ybmUg58qducuNaeRq/f576/wSxinuW1M4WAZQgrwGPmVxHr59+O32t80xt042d786KF9FW0lAI8SVgBHnIWLV9WEW9RnFfjCfT6qKpsScyzHEdoERiBRwkrwLzLuVXEviTnoBVsfVzbLYt5loOYZ9FmCvxAWAGa+JJwFHMpnnLm8kftF2BNrs1g5RHzLK/iUFQPSoBvhBXgY5w+b1VuTsLjegiBCQ1Gk0/RGubzCLgjrEC9zmdzKVq+8op7I7C0zzVNKuZZjuJQSfcJKiesQH1mq4jfaIPpDGdTtEy7Y36D0eQ65lnemGeBegkrUI/yhP7YKuJO+rP2C9AyP/8dElvxXkfLqiowVEZYgTrMVhE716CbPFVul0pVx0Rr2IcILeZZoCLCCvTbZQzPW0XcYaUdpvZr0LL/36t3U5FYdXwUq45VyKACwgr0U3kS/yZWEfui2w+qK+3xJbfjYtVxCSxHWsOg34QV6JfbuVXEDrzrF2EF7omV66/icw/oIWEF+uM8QopVxPAECyb6ZW6e5VV8DgI9IqxA911bRQzULuZZ3sQ8i/ZX6AlhBbprtor4tSfFVRBEYQExz1K2hh2bZ4HuE1agmz5ZRVwdX7pgCfH5+Co+L4GOElagWy4jpBybS6nOXu0XAJYV8yzHEVpUoKGDhBXohvlVxNqBAJYQ8ywHMc/iMxQ6RFiB3O5WEQ9Gk1dWEQOsJuZZZquOVaehA4QVyOtstorYPaJpml0XoR3T8XC/D++Dl5tbdXzmMkJuwgrkcxmriI+0fDFHWIEWxTxLOQH/tXkWyEtYgTxKS8JRzKX4xck30/FQUGmXZQV8MxhNrmOe5cg8C+QjrEAOH2PLl5YEHiKstOs/fXoztCM+f1+bZ4FchBXYrtkq4g9WEfMEMxbtUlnhQdEa9iFCi4dHkICwAttxE3MpVhGziJ9dpVYJfzwpVh0fxarja1cLtkdYgc2aX0VsLoVFqQS0bDoeuqY8K1Ydv455FtVv2AJhBTbnbNby5ZqzqFizu+OCtU51hYXFPMvsfBZgg4QVWL/LOC/lyFwKL/CLi7YWritLmZtnKaHFIb2wIcIKrM/N3CpiPc+81KErtxb70/FQxYqlxTzLm5hnMXMIayaswHp8jGqKbTK8WMxVWFu8PoIgLxbzLKXKcmyeBdZHWIF2nVtFTIt+czHXyvVlZYPR5FO0hn1yNaF9wgq04zpWEb+xipg2RIuSJ//rtWcrGG2IeZbjOJ/FpkdokbACqynVk+Oy2tIqYlr2zhawjVBdoTVlPrHMKTZN88Y8C7RDWIGX+xQtX0r/tCqqKr5Eb8bb6XhoLohWDUaT85hn+WieBVYjrMDyZquIj82lsCaqKpv1vqY3y+bMrTq2bAVeaBAHjl24gPCsm2j5sl+ftYmqyldhZeNemTdjneL71nsHksJSDlRW4Hm3c6uIBRXW7b2gshUnFb5nNihWHZd5liPzLLA4YQWedhYhxSpi1i6evL5zpbfiMK4/rFWcv/XaPAssRliBh81WER9pDWGDPN3frlOn2rMJser4Q4QWFXt4grAC3ytPuY6sImbTpuNhCSrO/NiuXcP2bFJ5GFbO5yoPx+IhGXCPsAL/mK0itrWFjZqOh4fav9J4F/cDNibmWV7HPIvWMJgjrMDfq4hfWUXMNsQJ6qcufiqnTrZnG+Jh2ex8FqheI6xQuTKL8qZsZzGXwjbEfMQX27/S2TG/wrbMzbO8iodpUDVhhRrdrSIupwtbRcy2xBfhi5iTIJ9SWbkQWNiWmGc5iHkWD9SolrBCbc6i5euDO8+2zAUVrUa5CSxsXcyzlCrLsXkWaiSsUIvLuVXEPuzZGkGlcwQWUhiMJp+iNcwSGKoirNB3s1XEB1YRs20xtC2odI/AQgoxz3IU57P4nUYVhBX67KNVxGQRp6MLKt01CyzuH1s3GE2uY57ljXkW+k5YoY/OZ3MpWr7IYDoefoig4sl8t80Ci3NYSKEsiYl5lo/mWeirwdzTPui6m2j5Uhonhel4uBtnqOy7I73zKbYK+oJICvF5875pmrfuCD1yoLJCH5QvC8exilhQIYWoplwJKr31rtzfeOAHWxerjo9i1bHfhfSGygpddxZBxdNNUojP1FPnp1TlLKosZgdIYzoevo1Ki88iuuxAWKGrLiOkXLuDZKDlq3rlgcnn0h7m4QlZxAa7dxFaoIuEFTrnJp5g2vBFCvFl4H18IYCbeJByXv2VII14mHLSNI3lEHSNmRU64za2nbwWVMgi2iy+CirMKV8Kv0zHQ2uOSSPmWd7EPIuOBDpFZYUuOI8nlfrBSSE+N0+cmcICzNWRTjxoObFOnQ5QWSG167texdHkjaBCBqWVYjoenjrckSXcVd9iOxykEB0Kr2IFN6SmskJGtzGX4kOUFOaGVH/zJJIVOAuKdCwHITmVFdL5FKfPCyqkEKeVX8UQvaDCKnbjBPyL+IIIWxfzLAcxz6KLgXRUVsjiMp44+qAkhRiOPvG0kTVyCj7pRMuiKjJZqKywdSWclJmUA0GFDErL13Q8PHH6PBvwLuZZ3rrYZDEYTT7EPIvNm6QgrLAts7mUV84jIIvpePjOKmI2rDy9Pp2Oh1fR6QBbV6p9g9HkqBwXEJ0PsDXawNiGswgqKimkYBUxiVjVTjoxu3cSc1ewSU6wZ6Ou45ewpzSk4FRnEiuH4H4yz0IWtiKyJcIKG3EbIUX/KynM/dJ9746Q2E1UoX12kkY85HkfZwjBuhmwZ+0+xipiv2xJIYaZrwQVOmA35lkuzLOQRaw6PopVxzolWDuVFdbFKmJSsYqYHjDvRzrxAOhEaxhrorJC627u+gutIiaJWEV8ahUxPXBXFYxzMCCF6Jx4FZ0U0DqVFdpS5lI+x352SCFWETt5nj66iVlAq99Jw9IS1sCAPa04i1+attaQQnyunVqzSQUu4/P32s0mC+vgaZGwwkqsIiaVeKp3qt2LCnloRDqq27TAzAovVoY8XwsqZBBzKR/i9HlBhRqVeZav8eUQUhiMJp/iFHyVP15MWGFZtzFAbzaFFGITzVeriOHu6fXJdDz8atUxWcSq49cG8HkpYYVlXMeZKaopbF35MlbOn4i2Ly0G8I/SDnkR57OY2yKFeMj5Jh56wsKEFRZ1Fm1fPmTYqvLlK1YRX2j5giftR2vYh9Iq6VKxbbG97kBgYRnCCos4i9NqYatiLuUq+vOBxbyP0OLfG7YuNteZY2FhwgrPEVTYuul4eFj68G2VgRcr/96cTsfDK/MsbFscGn0gsLAIYYWnCCpsVbR8lXavL85MgVbsxTzLF/MsbFO0lWsJ41nCCo85F1TYllhFfGIVMaxNOWH8yjwL2ySwsAhhhYeUsqygwlbMrSJ2XgSs1060Vl6ZZ2FbYobFdw4eJaxwX3m6cWTrF5sWq4ivrCKGjduNeZYL8yxsQ2wJcw4LDxJWuO8onnLARsRcypdYRbznqsPW7Mc8y6nWMDYtzmFxjhs/EFaYdx5PN2DtYi5ltor40BWHNN7OzmdxS9iwI/Mr3CesMHOrZ5RNKauII6RYRQw53c2zlJXh8e8rrF2sNNYOxneEFWaOzamwbtPxcM8qYuiU8u/pl5hn8e8sazcYTT45f4V5wgrF9WA0OXMlWJdo+TqNaooBXuie/WgNOzHPwgYcu8jMCCs0PhRYp+l4+C5WEVuNCt33LkKL1eKszWA0uTRsz4ywwmV8KECrYhVxCSkn5lKgV8q/zycxz6JSyrqYXeGOsMLn6q8Arbq3iliPO/TXbqw6/mKehbaprjAjrNTtxqpi2jK3ivirVcRQlcPZqmPzLLTMA1WElcr5EKAV0/Hw7dwqYqBO7yO0mE+jFfFA9eQWZDEAAAyGSURBVMbVrJuwUjdVFVYScyml3etUyxcQ8yzlBPwr8yy05HcXsm7CSr3O4/AlWNrcKuILq4iBB+zFPMupeRZW5GiFygkr9fqz9gvAy8zNpWj1AJ5z1yJqnoWXigerDomsmLBSLy1gLGVuFfF7q4iBJezE58aVeRZeyFawigkrdbrRAsaiYhXxhVXEwIp2Y56ltIftuZgs4Q8Xq17CSp08oeBZMZdyEi1f5lKAtuxHleVUaxiLcHh13YSVOplX4UnRqlFCyjtXCliTt7PzWVxgFmBupVLCSp20gPGgmEu5ilXEnngC63Y3z1Lm4aw65hnCSqWElQopp3JfzKXMVhHrJQc2bTdWHV9Ydcwj/uvC1ElYqc9t7ReA70ULxpVVxEAC+9EadmKehXs8aK2UsFIfZVTuTMfDQ6uIgaTeRWgxNweVE1agMmVlaKwi/mIVMZBYeYhSKixX5lnwsLVewkp9tIFVam4V8ZVVxECH7MU8yxfzLPUajCa+v1RKWKnPX7VfgBpFK4VVxECXHc5WHZtngXoIK9Bjc6uIT8ylAD3xPkKLpSBQAWEFeihWEX+xihjoqfLw5TRWHWtrhR4TVurz/2q/AH0WcymzVcSHtV8PoPf2Y57l1DwL9JOwUh9P2XsqWiKurCIGKnT3+WeeBfpHWIGOm1tFfGoVMVCxnXhYU0KLynLPaPerl7BSH19meyJavk6tIgb4Tvk99yXmWXQTQMcJK/URVnpgbhWxbTgAD9uPKsup1rBeEDwrJaxUyJOm7opVxF+tIgZY2NtYdeycqW77T+0XoFbCSp1UVzomVhFfxCpi9w9gOeXhzkl52GP2obM8aK2UsFKnn2u/AF0xt4r4q7kUgJXtxqrjC6uOO8fvwEoJK3XyL3wHxCrir7HdBoD27Edr2Il5lvy0r9dNWKnTng/nvGIuZbaK2H0CWJ93EVosK8nNQ9aKCSv18i9+MnOriC/cH4CNKQ+FysawK/Msaf1S+wWombBSL//iJzI3l+LpHsB27MU8yxfzLHlEJ4gQWTFhpV5O902gnLIcq4jfa/kCSOEwWsM+aJlOwfeVygkr9drRo7s9c6uIv1hFDJDS+zhU0u/K7fqt5jePsFK7X2u/AJsWcyknVhEDdMJuzLNcmGfZvNgCZhNY5YSVuu1bB7g5c6uInaIM0C37Mc9yqjVso1RVEFbwQbBusYr4yipigM57O5tncSvXK5YcaMFDWKF5a+vJesRcypdYRayCBdAP5aHT+7IcpSxJcU/XxoHI3BFWKE5chfbEXEp56nZliwlAb5UHfV9insUDqRapqjBPWKE4NDjYjnjKdmUVMUA19mNr2Il5ltZ4iMo3wgozPhhWUJ6qWUUMULV3Mc9iicoK4uGprgS+EVaY2TMwuLy5VcRXVhEDVK9UVk5insXvhCVFZeq0Uy+atRNWmPde3+3i4umZVcQA3Lcbq44vLLFZynvdCdwnrHCfHfLPiFXEX6N1zrUC4DH7s1XHfrc+LWY+PfzjB8IK9+0pwT7s3ipiT34AWNT7CC02XD0gujp89+BBwgoPOTS/8o+5VcRfDf0B8EI70b1wZZ7lH3NzKipPPEhY4THvPQG6+xB9O7eKGABWtRfzLF9qn2eJoOLgZJ4krPCU01oDy9wq4lMtXwCswWGcz1LzPMupoMJzhBWeU1VgiZavU6uIAdiAnajcX1X6u1ZrNc8SVlhEFYFlbi6l+vY3ADZqN37XXvT9CIG51i+/a1mIsMKiTuPww96ZW0X83oAfAFu0H1WWXh4jEDM6ZlRYirDCMt7FQGAvPkBjFfGFVcQAJPN2dj5LX25MnKNyJaiwLGGFZc0GAjs7z3FvFbG5FAAy2onNnF/ji35nRWfGF90LvISwwkvsxtrFk65VWWL25qtVxAB0RPmd+yXmWTrVBRBt1ldOpmcVwgqreNeVDSZzH5gOngKgi/ajNSz9g8K5bV/mU1jZINp5LlxKVnTZNM3HwWhymelCxlOoE+sRAeiR26ZpPjdN82kwmtxmeVsRosqDzN88GKQlB8IKbSth5ffBaHK2zSsbP9e/CSkA9NgstJwNRpObbb3NeDD4WywGEFJok7DC2pQPzfPyIbqpD9B4olM+KH9VdgagMuUh4R+D0eR8U287Bv9/9WCQNRJW2IjrqLj80XabWByeVX6Gf7HZCwDuqi0lsPxRfve22SYWFZTyu/bnCCiqKKybsMJWXEaA+SsqMNeLfJjGz+pOVE1+ig9MH5QA8Ljr+PPf+P17OxhNrp+7XvEwcCd+1/4Uv3udScamCSukcx1PhWZUSwBgPW7j9+6M37lkc/Bvt4RkzJoAwGbsCChk55wVAAAgJWEFAABISVgBAAAyuhVWAACAdMrmun+1fe4FAABAG1RWAACAbO6OspiFldZONwUAAFjR3RlAs7Dy7EmmAAAAm6SyAgAAZPNnMxdW/nJ7AACATGZh5cZdAQAAkrjbWCysAAAA2dzlk8HsRU3Hw6lbBAAAbNtgNLnLKfPnrKiuAAAA2/bt0Pr5sGJ9MQAAsG3fcsl8WPnTbQEAALbs26ZilRUAACCTb21gg/kXZcgeAADYopvBaPJq9o//173XcenOAAAAW/JdHrkfVv5wVwAAgC35bo5eZQUAAMjiuzwyuP+ipuPh/zZNs+N2AQAAG3Q9GE1ez//j7ldWinN3BAAA2LAfurweCivmVgAAgE37/f4/74c2sEYrGAAAsFnfrSyeeaiy0mgFAwAANujB/PFYWNEKBgAAbMoPLWDNY21gzd+tYF+bptl1ewAAgDX6YQvYzGOVleaxdAMAANCiR3PHU2HlzB0AAADW7NHc8WhYGYwmNwbtAQCANTobjCa3j/3tn6qsFJ/dGQAAYE2ezBuPDtjPGLQHAADW4HIwmhw89bd9rrJSfHRnAACAlj2bM56trDSqKwAAQLseXVc8b5HKSqO6AgAAtGih2fiFKiuN6goAANCOhaoqzRKVlUZ1BQAAaMHxon+LhSsrzd/VlaumafbcIQAA4AWe3QA2b5nKSrNMCgIAAFglTywVVgajyaVT7QEAgBcop9VfL/M/W7ay0kQaevRIfAAAgHtuX9KltXRYGYwmN4uuGgMAACjLugajydIFj6UG7OcZtgcAABaw1FD9vJe0gc0cuTMAAMATblfJDS8OKzEc4+wVAADgMR9jjORFXtwGNqMdDAAAeMCL279mVmkDmzmyHQwAAJizUvvXzMphJdrBHBYJAADMHK3S/jXTRmWlBJazcshLG38vAACg0z4NRpNWDpJvJayEUl1Z6kRKAACgV8qcSmtdV62FlTjk5Y35FQAAqNJN5IHWtFlZmZ1uv9LEPwAA0Dl3hYuXnFL/lFbDSvPPwL0DIwEAoB5HkQNa1XpYaf4ZuLchDAAA+u+orYH6+9YSVpq/A8snG8IAAKDXjqNQsRYrn2D/nOl4eNo0zVs/owAA0Ctng9FkreMfaw8rjcACAAB9s/ag0mwqrDQCCwAA9MVGgkqzybDSCCwAANB1GwsqzToH7B8Sb8zQPQAAdM/xJoNKs+nKysx0PCzVldNt/LMBAIClHa1z69djthJWmn8Cy0nTNDvbeg0AAMCTZifTX27jMm0trDR/B5a9pmkuBBYAAEjnJoJK6yfTL2qrYaX5O7DsRGDZ2/ZrAQAA7lxGULnd5uXYeliZmY6HpSXsXY5XAwAA1fo4GE0+ZHjzacJK83dgOYzBe21hAACwWVudT3nIRlcXP2cwmpw3TfM6yk4AAMBmlO/hrzIFlSZbZWXedDwsLWHvVVkAAGBtbqPt61PGS5w2rDR/B5bdaAvbT/ByAACgTy7j/JSbrO8pdViZcSYLAAC05jZCynn2S5pqZuUxcVrmq6ZpUpanAACgIz7GbEr6oNJ0pbIyT2sYAAAsrYST48wtXw/pXFiZmY6H+zGAL7QAAMDDLmOAvpPbdjsbVmaEFgAA+EGnQ8pM58PKTISW35qmOczxigAAYOPKrPfnwWhy3YdL35uwMhMzLSW0vLU9DACACpTtXp9LUOnaTMpzehdW5sXK41+1iAEA0ENlaP6P2JzbS70OKzNRbTmM4LKX41UBAMDSSnvX7yWo9K2K8pAqwsq8ueDyi4oLAAAdUCoof9YSUOZVF1bmTcfDnQgsP8dfVV0AANi2y6ig/NmVwxvXpeqw8pDYKlb+/NQ0za4AAwDAGl3Hn7/KX7u+arhtwsoCpuPhXmwWm7WN/Rx/3RFmAAB4wnVs62qilauJysltX9YLr5OwsgYxF7PbuzcGAMBjSlXk1tVpUdM0/wepnMc0zFEZrgAAAABJRU5ErkJggg==;container=0;" vertex="1" parent="1">
          <mxGeometry x="310" y="603.96" width="30.1" height="24.64" as="geometry" />
        </mxCell>
      </root>
    </mxGraphModel>
  </diagram>
</mxfile>
